<?xml version="1.0" encoding="utf-8" standalone="no"?>
<!DOCTYPE svg PUBLIC "-//W3C//DTD SVG 1.1//EN"
  "http://www.w3.org/Graphics/SVG/1.1/DTD/svg11.dtd">
<svg xmlns:xlink="http://www.w3.org/1999/xlink" width="554.4pt" height="554.4pt" viewBox="0 0 554.4 554.4" xmlns="http://www.w3.org/2000/svg" version="1.1">
 <metadata>
  <rdf:RDF xmlns:dc="http://purl.org/dc/elements/1.1/" xmlns:cc="http://creativecommons.org/ns#" xmlns:rdf="http://www.w3.org/1999/02/22-rdf-syntax-ns#">
   <cc:Work>
    <dc:type rdf:resource="http://purl.org/dc/dcmitype/StillImage"/>
    <dc:date>2026-06-01T14:58:22.886125</dc:date>
    <dc:format>image/svg+xml</dc:format>
    <dc:creator>
     <cc:Agent>
      <dc:title>Matplotlib v3.8.4, https://matplotlib.org/</dc:title>
     </cc:Agent>
    </dc:creator>
   </cc:Work>
  </rdf:RDF>
 </metadata>
 <defs>
  <style type="text/css">*{stroke-linejoin: round; stroke-linecap: butt}</style>
 </defs>
 <g id="figure_1">
  <g id="patch_1">
   <path d="M 0 554.4 
L 554.4 554.4 
L 554.4 0 
L 0 0 
z
" style="fill: #ffffff"/>
  </g>
  <g id="axes_1">
   <g id="line2d_1">
    <path d="M 443.52 277.2 
L 443.437519 271.962674 
L 443.190159 266.730542 
L 442.778164 261.508794 
L 442.201944 256.302609 
L 441.462069 251.117151 
L 440.559274 245.957562 
L 439.494454 240.828961 
L 438.268666 235.736434 
L 436.883124 230.685031 
L 435.339204 225.679764 
L 433.638436 220.725596 
L 431.782507 215.827441 
L 429.773258 210.990158 
L 427.612683 206.218543 
L 425.302923 201.51733 
L 422.846271 196.891182 
L 420.245161 192.344687 
L 417.502175 187.882353 
L 414.620033 183.508608 
L 411.601593 179.227789 
L 408.44985 175.044142 
L 405.167928 170.961816 
L 401.759084 166.984861 
L 398.226698 163.11722 
L 394.574275 159.362731 
L 390.805435 155.725116 
L 386.923918 152.207984 
L 382.933574 148.814823 
L 378.838359 145.548998 
L 374.642337 142.413749 
L 370.349668 139.412186 
L 365.96461 136.547284 
L 361.491512 133.821887 
L 356.934812 131.238696 
L 352.299028 128.800275 
L 347.588759 126.509041 
L 342.808675 124.367267 
L 337.963519 122.377078 
L 333.058096 120.540447 
L 328.097271 118.859196 
L 323.085964 117.334992 
L 318.029146 115.969348 
L 312.931833 114.763617 
L 307.799079 113.718996 
L 302.635977 112.83652 
L 297.447646 112.117066 
L 292.239233 111.561345 
L 287.015903 111.169911 
L 281.782838 110.943151 
L 276.545228 110.881289 
L 271.308266 110.984387 
L 266.077149 111.252344 
L 260.857063 111.684892 
L 255.653187 112.281604 
L 250.470682 113.041887 
L 245.314688 113.964988 
L 240.190318 115.04999 
L 235.102656 116.295817 
L 230.056748 117.701235 
L 225.057597 119.264848 
L 220.110163 120.985106 
L 215.219353 122.860304 
L 210.390017 124.88858 
L 205.626945 127.067924 
L 200.934862 129.396174 
L 196.318421 131.87102 
L 191.782201 134.490008 
L 187.330701 137.25054 
L 182.968336 140.149878 
L 178.699433 143.185148 
L 174.528226 146.353337 
L 170.458852 149.651304 
L 166.495348 153.075779 
L 162.641643 156.623363 
L 158.901562 160.290539 
L 155.278813 164.07367 
L 151.776989 167.969003 
L 148.399563 171.972675 
L 145.149886 176.080715 
L 142.03118 180.289048 
L 139.04654 184.5935 
L 136.198924 188.989803 
L 133.491157 193.473595 
L 130.925926 198.04043 
L 128.505773 202.685777 
L 126.233101 207.40503 
L 124.110162 212.193509 
L 122.139063 217.046462 
L 120.321758 221.959078 
L 118.660049 226.926483 
L 117.155586 231.943752 
L 115.80986 237.005907 
L 114.624206 242.107927 
L 113.599799 247.244754 
L 112.737657 252.41129 
L 112.038633 257.602413 
L 111.503422 262.812974 
L 111.132554 268.037804 
L 110.926397 273.271721 
L 110.885155 278.509535 
L 111.00887 283.746049 
L 111.297419 288.976071 
L 111.750514 294.194414 
L 112.367708 299.3959 
L 113.148388 304.575372 
L 114.091779 309.727693 
L 115.196947 314.847751 
L 116.462794 319.930469 
L 117.888065 324.970805 
L 119.471347 329.963761 
L 121.21107 334.904385 
L 123.105507 339.787775 
L 125.15278 344.609088 
L 127.350858 349.363543 
L 129.697561 354.046425 
L 132.190562 358.653087 
L 134.827388 363.178961 
L 137.605424 367.619559 
L 140.521914 371.970476 
L 143.573965 376.227397 
L 146.758552 380.386099 
L 150.072514 384.442457 
L 153.512565 388.39245 
L 157.075293 392.232158 
L 160.757165 395.957773 
L 164.554529 399.565601 
L 168.463618 403.052062 
L 172.480555 406.4137 
L 176.601356 409.647179 
L 180.821935 412.749293 
L 185.138104 415.716965 
L 189.545583 418.547252 
L 194.04 421.237345 
L 198.616898 423.784578 
L 203.271737 426.186424 
L 207.999901 428.4405 
L 212.7967 430.544571 
L 217.657376 432.49655 
L 222.577108 434.2945 
L 227.551017 435.93664 
L 232.574169 437.421339 
L 237.641583 438.747126 
L 242.748231 439.912686 
L 247.889051 440.916861 
L 253.058941 441.758657 
L 258.252776 442.437239 
L 263.465403 442.951933 
L 268.691653 443.302229 
L 273.926341 443.487779 
L 279.164276 443.5084 
L 284.400264 443.364071 
L 289.629109 443.054936 
L 294.845627 442.5813 
L 300.044644 441.943633 
L 305.221002 441.142569 
L 310.369569 440.178901 
L 315.485236 439.053585 
L 320.562932 437.767738 
L 325.597618 436.322635 
L 330.584302 434.719709 
L 335.518038 432.96055 
L 340.393932 431.046902 
L 345.207149 428.980664 
L 349.952914 426.763886 
L 354.62652 424.398765 
L 359.223332 421.887648 
L 363.738791 419.233025 
L 368.168418 416.437529 
L 372.507819 413.503933 
L 376.752691 410.435146 
L 380.898824 407.234212 
L 384.942105 403.904306 
L 388.878523 400.448731 
L 392.704176 396.870914 
L 396.415268 393.174404 
L 400.008118 389.362866 
L 403.479163 385.440082 
L 406.824961 381.409942 
L 410.042192 377.276443 
L 413.127666 373.043685 
L 416.078323 368.715866 
L 418.891236 364.297279 
L 421.563615 359.792306 
L 424.09281 355.205415 
L 426.476311 350.541157 
L 428.711756 345.804155 
L 430.796927 340.999111 
L 432.729755 336.130788 
L 434.508324 331.204016 
L 436.130869 326.223681 
L 437.595782 321.194722 
L 438.901609 316.122129 
L 440.047055 311.010931 
L 441.030985 305.866198 
L 441.852421 300.693033 
L 442.51055 295.496567 
L 443.004719 290.281954 
L 443.334438 285.054366 
L 443.499379 279.818988 
L 443.52 277.2 
L 443.52 277.2 
" clip-path="url(#p5eaa810a61)" style="fill: none; stroke: #000000; stroke-width: 1.5; stroke-linecap: square"/>
   </g>
   <g id="line2d_2">
    <path d="M 277.2 140.028233 
L 265.206289 140.111258 
L 253.076881 140.390992 
L 240.693136 140.954528 
L 227.968795 141.938376 
L 214.863183 143.518264 
L 201.38953 145.892415 
L 187.623328 149.271254 
L 173.700811 153.85447 
L 159.814611 159.814611 
L 146.20877 167.285307 
L 133.164413 176.345196 
L 120.983523 187.008375 
L 109.978394 199.223284 
L 100.44639 212.866947 
L 92.661215 227.752982 
L 86.855038 243.637048 
L 83.201773 260.227354 
L 81.816049 277.2 
L 82.742196 294.212853 
L 85.955127 310.921631 
L 91.357226 326.996421 
L 98.788767 342.136378 
L 108.037938 356.081565 
L 118.850158 368.623324 
L 130.939397 379.612777 
L 144.011339 388.958556 
L 157.769517 396.630483 
L 171.932033 402.653478 
L 186.241761 407.101828 
L 200.474998 410.091602 
L 214.452001 411.763518 
L 228.034539 412.280994 
L 241.130559 411.812986 
L 253.691311 410.524402 
L 265.70734 408.561705 
L 277.2 406.055951 
" clip-path="url(#p5eaa810a61)" style="fill: none; stroke: #000000; stroke-linecap: square"/>
   </g>
   <g id="line2d_3">
    <path d="M 277.2 110.88 
L 277.2 140.028233 
" clip-path="url(#p5eaa810a61)" style="fill: none; stroke: #808080; stroke-width: 0.6; stroke-linecap: square"/>
   </g>
   <g id="line2d_4">
    <path d="M 248.318835 113.406775 
L 253.076881 140.390992 
" clip-path="url(#p5eaa810a61)" style="fill: none; stroke: #808080; stroke-width: 0.6; stroke-linecap: square"/>
   </g>
   <g id="line2d_5">
    <path d="M 220.31521 120.910323 
L 227.968795 141.938376 
" clip-path="url(#p5eaa810a61)" style="fill: none; stroke: #808080; stroke-width: 0.6; stroke-linecap: square"/>
   </g>
   <g id="line2d_6">
    <path d="M 194.04 133.162655 
L 201.38953 145.892415 
" clip-path="url(#p5eaa810a61)" style="fill: none; stroke: #808080; stroke-width: 0.6; stroke-linecap: square"/>
   </g>
   <g id="line2d_7">
    <path d="M 170.291565 149.791488 
L 173.700811 153.85447 
" clip-path="url(#p5eaa810a61)" style="fill: none; stroke: #808080; stroke-width: 0.6; stroke-linecap: square"/>
   </g>
   <g id="line2d_8">
    <path d="M 149.791488 170.291565 
L 146.20877 167.285307 
" clip-path="url(#p5eaa810a61)" style="fill: none; stroke: #808080; stroke-width: 0.6; stroke-linecap: square"/>
   </g>
   <g id="line2d_9">
    <path d="M 133.162655 194.04 
L 120.983523 187.008375 
" clip-path="url(#p5eaa810a61)" style="fill: none; stroke: #808080; stroke-width: 0.6; stroke-linecap: square"/>
   </g>
   <g id="line2d_10">
    <path d="M 120.910323 220.31521 
L 100.44639 212.866947 
" clip-path="url(#p5eaa810a61)" style="fill: none; stroke: #808080; stroke-width: 0.6; stroke-linecap: square"/>
   </g>
   <g id="line2d_11">
    <path d="M 113.406775 248.318835 
L 86.855038 243.637048 
" clip-path="url(#p5eaa810a61)" style="fill: none; stroke: #808080; stroke-width: 0.6; stroke-linecap: square"/>
   </g>
   <g id="line2d_12">
    <path d="M 110.88 277.2 
L 81.816049 277.2 
" clip-path="url(#p5eaa810a61)" style="fill: none; stroke: #808080; stroke-width: 0.6; stroke-linecap: square"/>
   </g>
   <g id="line2d_13">
    <path d="M 113.406775 306.081165 
L 85.955127 310.921631 
" clip-path="url(#p5eaa810a61)" style="fill: none; stroke: #808080; stroke-width: 0.6; stroke-linecap: square"/>
   </g>
   <g id="line2d_14">
    <path d="M 120.910323 334.08479 
L 98.788767 342.136378 
" clip-path="url(#p5eaa810a61)" style="fill: none; stroke: #808080; stroke-width: 0.6; stroke-linecap: square"/>
   </g>
   <g id="line2d_15">
    <path d="M 133.162655 360.36 
L 118.850158 368.623324 
" clip-path="url(#p5eaa810a61)" style="fill: none; stroke: #808080; stroke-width: 0.6; stroke-linecap: square"/>
   </g>
   <g id="line2d_16">
    <path d="M 149.791488 384.108435 
L 144.011339 388.958556 
" clip-path="url(#p5eaa810a61)" style="fill: none; stroke: #808080; stroke-width: 0.6; stroke-linecap: square"/>
   </g>
   <g id="line2d_17">
    <path d="M 170.291565 404.608512 
L 171.932033 402.653478 
" clip-path="url(#p5eaa810a61)" style="fill: none; stroke: #808080; stroke-width: 0.6; stroke-linecap: square"/>
   </g>
   <g id="line2d_18">
    <path d="M 194.04 421.237345 
L 200.474998 410.091602 
" clip-path="url(#p5eaa810a61)" style="fill: none; stroke: #808080; stroke-width: 0.6; stroke-linecap: square"/>
   </g>
   <g id="line2d_19">
    <path d="M 220.31521 433.489677 
L 228.034539 412.280994 
" clip-path="url(#p5eaa810a61)" style="fill: none; stroke: #808080; stroke-width: 0.6; stroke-linecap: square"/>
   </g>
   <g id="line2d_20">
    <path d="M 248.318835 440.993225 
L 253.691311 410.524402 
" clip-path="url(#p5eaa810a61)" style="fill: none; stroke: #808080; stroke-width: 0.6; stroke-linecap: square"/>
   </g>
   <g id="line2d_21">
    <path d="M 277.2 443.52 
L 277.2 406.055951 
" clip-path="url(#p5eaa810a61)" style="fill: none; stroke: #808080; stroke-width: 0.6; stroke-linecap: square"/>
   </g>
   <g id="line2d_22">
    <path d="M 277.2 88.260048 
L 293.691685 88.699183 
L 310.20283 90.031648 
L 326.743394 92.301535 
L 343.30541 95.576878 
L 359.855092 99.945584 
L 376.328527 105.504354 
L 392.627638 112.352249 
L 408.620951 120.578609 
L 424.145861 130.254139 
L 439.011481 141.424046 
L 453.009173 154.097092 
L 465.91712 168.24412 
L 477.512516 183.79274 
L 487.579832 200.628003 
L 495.921552 218.593737 
L 502.364782 237.497374 
L 506.771571 257.11509 
L 509.040268 277.2 
L 509.1003 297.488647 
L 506.923541 317.706458 
L 502.542722 337.5804 
L 496.032313 356.848448 
L 487.504686 375.266686 
L 477.108541 392.61725 
L 465.015728 408.709988 
L 451.420145 423.38806 
L 436.527012 436.527012 
L 420.548911 448.03658 
L 403.698303 457.858299 
L 386.181417 465.961351 
L 368.196397 472.342403 
L 349.928952 477.021153 
L 331.549249 480.03416 
L 313.211445 481.431053 
L 295.054243 481.274926 
L 277.2 479.631383 
" clip-path="url(#p5eaa810a61)" style="fill: none; stroke: #000000; stroke-linecap: square"/>
   </g>
   <g id="line2d_23">
    <path d="M 277.2 110.88 
L 277.2 88.260048 
" clip-path="url(#p5eaa810a61)" style="fill: none; stroke: #808080; stroke-width: 0.6; stroke-linecap: square"/>
   </g>
   <g id="line2d_24">
    <path d="M 306.081165 113.406775 
L 310.20283 90.031648 
" clip-path="url(#p5eaa810a61)" style="fill: none; stroke: #808080; stroke-width: 0.6; stroke-linecap: square"/>
   </g>
   <g id="line2d_25">
    <path d="M 334.08479 120.910323 
L 343.30541 95.576878 
" clip-path="url(#p5eaa810a61)" style="fill: none; stroke: #808080; stroke-width: 0.6; stroke-linecap: square"/>
   </g>
   <g id="line2d_26">
    <path d="M 360.36 133.162655 
L 376.328527 105.504354 
" clip-path="url(#p5eaa810a61)" style="fill: none; stroke: #808080; stroke-width: 0.6; stroke-linecap: square"/>
   </g>
   <g id="line2d_27">
    <path d="M 384.108435 149.791488 
L 408.620951 120.578609 
" clip-path="url(#p5eaa810a61)" style="fill: none; stroke: #808080; stroke-width: 0.6; stroke-linecap: square"/>
   </g>
   <g id="line2d_28">
    <path d="M 404.608512 170.291565 
L 439.011481 141.424046 
" clip-path="url(#p5eaa810a61)" style="fill: none; stroke: #808080; stroke-width: 0.6; stroke-linecap: square"/>
   </g>
   <g id="line2d_29">
    <path d="M 421.237345 194.04 
L 465.91712 168.24412 
" clip-path="url(#p5eaa810a61)" style="fill: none; stroke: #808080; stroke-width: 0.6; stroke-linecap: square"/>
   </g>
   <g id="line2d_30">
    <path d="M 433.489677 220.31521 
L 487.579832 200.628003 
" clip-path="url(#p5eaa810a61)" style="fill: none; stroke: #808080; stroke-width: 0.6; stroke-linecap: square"/>
   </g>
   <g id="line2d_31">
    <path d="M 440.993225 248.318835 
L 502.364782 237.497374 
" clip-path="url(#p5eaa810a61)" style="fill: none; stroke: #808080; stroke-width: 0.6; stroke-linecap: square"/>
   </g>
   <g id="line2d_32">
    <path d="M 443.52 277.2 
L 509.040268 277.2 
" clip-path="url(#p5eaa810a61)" style="fill: none; stroke: #808080; stroke-width: 0.6; stroke-linecap: square"/>
   </g>
   <g id="line2d_33">
    <path d="M 440.993225 306.081165 
L 506.923541 317.706458 
" clip-path="url(#p5eaa810a61)" style="fill: none; stroke: #808080; stroke-width: 0.6; stroke-linecap: square"/>
   </g>
   <g id="line2d_34">
    <path d="M 433.489677 334.08479 
L 496.032313 356.848448 
" clip-path="url(#p5eaa810a61)" style="fill: none; stroke: #808080; stroke-width: 0.6; stroke-linecap: square"/>
   </g>
   <g id="line2d_35">
    <path d="M 421.237345 360.36 
L 477.108541 392.61725 
" clip-path="url(#p5eaa810a61)" style="fill: none; stroke: #808080; stroke-width: 0.6; stroke-linecap: square"/>
   </g>
   <g id="line2d_36">
    <path d="M 404.608512 384.108435 
L 451.420145 423.38806 
" clip-path="url(#p5eaa810a61)" style="fill: none; stroke: #808080; stroke-width: 0.6; stroke-linecap: square"/>
   </g>
   <g id="line2d_37">
    <path d="M 384.108435 404.608512 
L 420.548911 448.03658 
" clip-path="url(#p5eaa810a61)" style="fill: none; stroke: #808080; stroke-width: 0.6; stroke-linecap: square"/>
   </g>
   <g id="line2d_38">
    <path d="M 360.36 421.237345 
L 386.181417 465.961351 
" clip-path="url(#p5eaa810a61)" style="fill: none; stroke: #808080; stroke-width: 0.6; stroke-linecap: square"/>
   </g>
   <g id="line2d_39">
    <path d="M 334.08479 433.489677 
L 349.928952 477.021153 
" clip-path="url(#p5eaa810a61)" style="fill: none; stroke: #808080; stroke-width: 0.6; stroke-linecap: square"/>
   </g>
   <g id="line2d_40">
    <path d="M 306.081165 440.993225 
L 313.211445 481.431053 
" clip-path="url(#p5eaa810a61)" style="fill: none; stroke: #808080; stroke-width: 0.6; stroke-linecap: square"/>
   </g>
   <g id="line2d_41">
    <path d="M 277.2 443.52 
L 277.2 479.631383 
" clip-path="url(#p5eaa810a61)" style="fill: none; stroke: #808080; stroke-width: 0.6; stroke-linecap: square"/>
   </g>
   <g id="text_1">
    <!-- 197.1 -->
    <g transform="translate(256.95 155.440452) scale(0.18 -0.18)">
     <defs>
      <path id="TimesNewRomanPSMT-31" d="M 750 3822 
L 1781 4325 
L 1884 4325 
L 1884 747 
Q 1884 391 1914 303 
Q 1944 216 2037 169 
Q 2131 122 2419 116 
L 2419 0 
L 825 0 
L 825 116 
Q 1125 122 1212 167 
Q 1300 213 1334 289 
Q 1369 366 1369 747 
L 1369 3034 
Q 1369 3497 1338 3628 
Q 1316 3728 1258 3775 
Q 1200 3822 1119 3822 
Q 1003 3822 797 3725 
L 750 3822 
z
" transform="scale(0.015625)"/>
      <path id="TimesNewRomanPSMT-39" d="M 338 -88 
L 338 28 
Q 744 34 1094 217 
Q 1444 400 1770 856 
Q 2097 1313 2225 1859 
Q 1734 1544 1338 1544 
Q 891 1544 572 1889 
Q 253 2234 253 2806 
Q 253 3363 572 3797 
Q 956 4325 1575 4325 
Q 2097 4325 2469 3894 
Q 2925 3359 2925 2575 
Q 2925 1869 2578 1258 
Q 2231 647 1613 244 
Q 1109 -88 516 -88 
L 338 -88 
z
M 2275 2091 
Q 2331 2497 2331 2741 
Q 2331 3044 2228 3395 
Q 2125 3747 1936 3934 
Q 1747 4122 1506 4122 
Q 1228 4122 1018 3872 
Q 809 3622 809 3128 
Q 809 2469 1088 2097 
Q 1291 1828 1588 1828 
Q 1731 1828 1928 1897 
Q 2125 1966 2275 2091 
z
" transform="scale(0.015625)"/>
      <path id="TimesNewRomanPSMT-37" d="M 644 4238 
L 2916 4238 
L 2916 4119 
L 1503 -88 
L 1153 -88 
L 2419 3728 
L 1253 3728 
Q 900 3728 750 3644 
Q 488 3500 328 3200 
L 238 3234 
L 644 4238 
z
" transform="scale(0.015625)"/>
      <path id="TimesNewRomanPSMT-2e" d="M 800 606 
Q 947 606 1047 504 
Q 1147 403 1147 259 
Q 1147 116 1045 14 
Q 944 -88 800 -88 
Q 656 -88 554 14 
Q 453 116 453 259 
Q 453 406 554 506 
Q 656 606 800 606 
z
" transform="scale(0.015625)"/>
     </defs>
     <use xlink:href="#TimesNewRomanPSMT-31"/>
     <use xlink:href="#TimesNewRomanPSMT-39" x="50"/>
     <use xlink:href="#TimesNewRomanPSMT-37" x="100"/>
     <use xlink:href="#TimesNewRomanPSMT-2e" x="150"/>
     <use xlink:href="#TimesNewRomanPSMT-31" x="175"/>
    </g>
   </g>
   <g id="text_2">
    <!-- 170.9 -->
    <g transform="translate(223.312921 155.988932) scale(0.18 -0.18)">
     <defs>
      <path id="TimesNewRomanPSMT-30" d="M 231 2094 
Q 231 2819 450 3342 
Q 669 3866 1031 4122 
Q 1313 4325 1613 4325 
Q 2100 4325 2488 3828 
Q 2972 3213 2972 2159 
Q 2972 1422 2759 906 
Q 2547 391 2217 158 
Q 1888 -75 1581 -75 
Q 975 -75 572 641 
Q 231 1244 231 2094 
z
M 844 2016 
Q 844 1141 1059 588 
Q 1238 122 1591 122 
Q 1759 122 1940 273 
Q 2122 425 2216 781 
Q 2359 1319 2359 2297 
Q 2359 3022 2209 3506 
Q 2097 3866 1919 4016 
Q 1791 4119 1609 4119 
Q 1397 4119 1231 3928 
Q 1006 3669 925 3112 
Q 844 2556 844 2016 
z
" transform="scale(0.015625)"/>
     </defs>
     <use xlink:href="#TimesNewRomanPSMT-31"/>
     <use xlink:href="#TimesNewRomanPSMT-37" x="50"/>
     <use xlink:href="#TimesNewRomanPSMT-30" x="100"/>
     <use xlink:href="#TimesNewRomanPSMT-2e" x="150"/>
     <use xlink:href="#TimesNewRomanPSMT-39" x="175"/>
    </g>
   </g>
   <g id="text_3">
    <!-- 99.4 -->
    <g transform="translate(191.18353 159.819123) scale(0.18 -0.18)">
     <defs>
      <path id="TimesNewRomanPSMT-34" d="M 2978 1563 
L 2978 1119 
L 2409 1119 
L 2409 0 
L 1894 0 
L 1894 1119 
L 100 1119 
L 100 1519 
L 2066 4325 
L 2409 4325 
L 2409 1563 
L 2978 1563 
z
M 1894 1563 
L 1894 3666 
L 406 1563 
L 1894 1563 
z
" transform="scale(0.015625)"/>
     </defs>
     <use xlink:href="#TimesNewRomanPSMT-39"/>
     <use xlink:href="#TimesNewRomanPSMT-39" x="50"/>
     <use xlink:href="#TimesNewRomanPSMT-2e" x="100"/>
     <use xlink:href="#TimesNewRomanPSMT-34" x="125"/>
    </g>
   </g>
   <g id="text_4">
    <!-- 2.1 -->
    <g transform="translate(156.405011 171.97923) scale(0.18 -0.18)">
     <defs>
      <path id="TimesNewRomanPSMT-32" d="M 2934 816 
L 2638 0 
L 138 0 
L 138 116 
Q 1241 1122 1691 1759 
Q 2141 2397 2141 2925 
Q 2141 3328 1894 3587 
Q 1647 3847 1303 3847 
Q 991 3847 742 3664 
Q 494 3481 375 3128 
L 259 3128 
Q 338 3706 661 4015 
Q 984 4325 1469 4325 
Q 1984 4325 2329 3994 
Q 2675 3663 2675 3213 
Q 2675 2891 2525 2569 
Q 2294 2063 1775 1497 
Q 997 647 803 472 
L 1909 472 
Q 2247 472 2383 497 
Q 2519 522 2628 598 
Q 2738 675 2819 816 
L 2934 816 
z
" transform="scale(0.015625)"/>
     </defs>
     <use xlink:href="#TimesNewRomanPSMT-32"/>
     <use xlink:href="#TimesNewRomanPSMT-2e" x="50"/>
     <use xlink:href="#TimesNewRomanPSMT-31" x="75"/>
    </g>
   </g>
   <g id="text_5">
    <!-- -95.1 -->
    <g transform="translate(92.634315 185.788594) scale(0.18 -0.18)">
     <defs>
      <path id="TimesNewRomanPSMT-2d" d="M 259 1672 
L 1875 1672 
L 1875 1200 
L 259 1200 
L 259 1672 
z
" transform="scale(0.015625)"/>
      <path id="TimesNewRomanPSMT-35" d="M 2778 4238 
L 2534 3706 
L 1259 3706 
L 981 3138 
Q 1809 3016 2294 2522 
Q 2709 2097 2709 1522 
Q 2709 1188 2573 903 
Q 2438 619 2231 419 
Q 2025 219 1772 97 
Q 1413 -75 1034 -75 
Q 653 -75 479 54 
Q 306 184 306 341 
Q 306 428 378 495 
Q 450 563 559 563 
Q 641 563 702 538 
Q 763 513 909 409 
Q 1144 247 1384 247 
Q 1750 247 2026 523 
Q 2303 800 2303 1197 
Q 2303 1581 2056 1914 
Q 1809 2247 1375 2428 
Q 1034 2569 447 2591 
L 1259 4238 
L 2778 4238 
z
" transform="scale(0.015625)"/>
     </defs>
     <use xlink:href="#TimesNewRomanPSMT-2d"/>
     <use xlink:href="#TimesNewRomanPSMT-39" x="33.300781"/>
     <use xlink:href="#TimesNewRomanPSMT-35" x="83.300781"/>
     <use xlink:href="#TimesNewRomanPSMT-2e" x="133.300781"/>
     <use xlink:href="#TimesNewRomanPSMT-31" x="158.300781"/>
    </g>
   </g>
   <g id="text_6">
    <!-- -167.2 -->
    <g transform="translate(58.704311 229.207415) scale(0.18 -0.18)">
     <defs>
      <path id="TimesNewRomanPSMT-36" d="M 2869 4325 
L 2869 4209 
Q 2456 4169 2195 4045 
Q 1934 3922 1679 3669 
Q 1425 3416 1258 3105 
Q 1091 2794 978 2366 
Q 1428 2675 1881 2675 
Q 2316 2675 2634 2325 
Q 2953 1975 2953 1425 
Q 2953 894 2631 456 
Q 2244 -75 1606 -75 
Q 1172 -75 869 213 
Q 275 772 275 1663 
Q 275 2231 503 2743 
Q 731 3256 1154 3653 
Q 1578 4050 1965 4187 
Q 2353 4325 2688 4325 
L 2869 4325 
z
M 925 2138 
Q 869 1716 869 1456 
Q 869 1156 980 804 
Q 1091 453 1309 247 
Q 1469 100 1697 100 
Q 1969 100 2183 356 
Q 2397 613 2397 1088 
Q 2397 1622 2184 2012 
Q 1972 2403 1581 2403 
Q 1463 2403 1327 2353 
Q 1191 2303 925 2138 
z
" transform="scale(0.015625)"/>
     </defs>
     <use xlink:href="#TimesNewRomanPSMT-2d"/>
     <use xlink:href="#TimesNewRomanPSMT-31" x="33.300781"/>
     <use xlink:href="#TimesNewRomanPSMT-36" x="83.300781"/>
     <use xlink:href="#TimesNewRomanPSMT-37" x="133.300781"/>
     <use xlink:href="#TimesNewRomanPSMT-2e" x="183.300781"/>
     <use xlink:href="#TimesNewRomanPSMT-32" x="208.300781"/>
    </g>
   </g>
   <g id="text_7">
    <!-- -196.6 -->
    <g transform="translate(47.48133 281.524219) scale(0.18 -0.18)">
     <use xlink:href="#TimesNewRomanPSMT-2d"/>
     <use xlink:href="#TimesNewRomanPSMT-31" x="33.300781"/>
     <use xlink:href="#TimesNewRomanPSMT-39" x="83.300781"/>
     <use xlink:href="#TimesNewRomanPSMT-36" x="133.300781"/>
     <use xlink:href="#TimesNewRomanPSMT-2e" x="183.300781"/>
     <use xlink:href="#TimesNewRomanPSMT-36" x="208.300781"/>
    </g>
   </g>
   <g id="text_8">
    <!-- -176.4 -->
    <g transform="translate(57.400321 334.190426) scale(0.18 -0.18)">
     <use xlink:href="#TimesNewRomanPSMT-2d"/>
     <use xlink:href="#TimesNewRomanPSMT-31" x="33.300781"/>
     <use xlink:href="#TimesNewRomanPSMT-37" x="83.300781"/>
     <use xlink:href="#TimesNewRomanPSMT-36" x="133.300781"/>
     <use xlink:href="#TimesNewRomanPSMT-2e" x="183.300781"/>
     <use xlink:href="#TimesNewRomanPSMT-34" x="208.300781"/>
    </g>
   </g>
   <g id="text_9">
    <!-- -111.8 -->
    <g transform="translate(86.67595 378.491543) scale(0.18 -0.18)">
     <defs>
      <path id="TimesNewRomanPSMT-38" d="M 1228 2134 
Q 725 2547 579 2797 
Q 434 3047 434 3316 
Q 434 3728 753 4026 
Q 1072 4325 1600 4325 
Q 2113 4325 2425 4047 
Q 2738 3769 2738 3413 
Q 2738 3175 2569 2928 
Q 2400 2681 1866 2347 
Q 2416 1922 2594 1678 
Q 2831 1359 2831 1006 
Q 2831 559 2490 242 
Q 2150 -75 1597 -75 
Q 994 -75 656 303 
Q 388 606 388 966 
Q 388 1247 577 1523 
Q 766 1800 1228 2134 
z
M 1719 2469 
Q 2094 2806 2194 3001 
Q 2294 3197 2294 3444 
Q 2294 3772 2109 3958 
Q 1925 4144 1606 4144 
Q 1288 4144 1088 3959 
Q 888 3775 888 3528 
Q 888 3366 970 3203 
Q 1053 3041 1206 2894 
L 1719 2469 
z
M 1375 2016 
Q 1116 1797 991 1539 
Q 866 1281 866 981 
Q 866 578 1086 336 
Q 1306 94 1647 94 
Q 1984 94 2187 284 
Q 2391 475 2391 747 
Q 2391 972 2272 1150 
Q 2050 1481 1375 2016 
z
" transform="scale(0.015625)"/>
     </defs>
     <use xlink:href="#TimesNewRomanPSMT-2d"/>
     <use xlink:href="#TimesNewRomanPSMT-31" x="33.300781"/>
     <use xlink:href="#TimesNewRomanPSMT-31" x="79.550781"/>
     <use xlink:href="#TimesNewRomanPSMT-31" x="125.800781"/>
     <use xlink:href="#TimesNewRomanPSMT-2e" x="175.800781"/>
     <use xlink:href="#TimesNewRomanPSMT-38" x="200.800781"/>
    </g>
   </g>
   <g id="text_10">
    <!-- -17.4 -->
    <g transform="translate(131.182398 408.795102) scale(0.18 -0.18)">
     <use xlink:href="#TimesNewRomanPSMT-2d"/>
     <use xlink:href="#TimesNewRomanPSMT-31" x="33.300781"/>
     <use xlink:href="#TimesNewRomanPSMT-37" x="83.300781"/>
     <use xlink:href="#TimesNewRomanPSMT-2e" x="133.300781"/>
     <use xlink:href="#TimesNewRomanPSMT-34" x="158.300781"/>
    </g>
   </g>
   <g id="text_11">
    <!-- 87.0 -->
    <g transform="translate(190.268998 404.813331) scale(0.18 -0.18)">
     <use xlink:href="#TimesNewRomanPSMT-38"/>
     <use xlink:href="#TimesNewRomanPSMT-37" x="50"/>
     <use xlink:href="#TimesNewRomanPSMT-2e" x="100"/>
     <use xlink:href="#TimesNewRomanPSMT-30" x="125"/>
    </g>
   </g>
   <g id="text_12">
    <!-- 182.3 -->
    <g transform="translate(223.750345 405.427019) scale(0.18 -0.18)">
     <defs>
      <path id="TimesNewRomanPSMT-33" d="M 325 3431 
Q 506 3859 782 4092 
Q 1059 4325 1472 4325 
Q 1981 4325 2253 3994 
Q 2459 3747 2459 3466 
Q 2459 3003 1878 2509 
Q 2269 2356 2469 2072 
Q 2669 1788 2669 1403 
Q 2669 853 2319 450 
Q 1863 -75 997 -75 
Q 569 -75 414 31 
Q 259 138 259 259 
Q 259 350 332 419 
Q 406 488 509 488 
Q 588 488 669 463 
Q 722 447 909 348 
Q 1097 250 1169 231 
Q 1284 197 1416 197 
Q 1734 197 1970 444 
Q 2206 691 2206 1028 
Q 2206 1275 2097 1509 
Q 2016 1684 1919 1775 
Q 1784 1900 1550 2001 
Q 1316 2103 1072 2103 
L 972 2103 
L 972 2197 
Q 1219 2228 1467 2375 
Q 1716 2522 1828 2728 
Q 1941 2934 1941 3181 
Q 1941 3503 1739 3701 
Q 1538 3900 1238 3900 
Q 753 3900 428 3381 
L 325 3431 
z
" transform="scale(0.015625)"/>
     </defs>
     <use xlink:href="#TimesNewRomanPSMT-31"/>
     <use xlink:href="#TimesNewRomanPSMT-38" x="50"/>
     <use xlink:href="#TimesNewRomanPSMT-32" x="100"/>
     <use xlink:href="#TimesNewRomanPSMT-2e" x="150"/>
     <use xlink:href="#TimesNewRomanPSMT-33" x="175"/>
    </g>
   </g>
   <g id="text_13">
    <!-- 253.4 -->
    <g transform="translate(256.95 399.29217) scale(0.18 -0.18)">
     <use xlink:href="#TimesNewRomanPSMT-32"/>
     <use xlink:href="#TimesNewRomanPSMT-35" x="50"/>
     <use xlink:href="#TimesNewRomanPSMT-33" x="100"/>
     <use xlink:href="#TimesNewRomanPSMT-2e" x="150"/>
     <use xlink:href="#TimesNewRomanPSMT-34" x="175"/>
    </g>
   </g>
   <g id="text_14">
    <!-- 230.3 -->
    <g transform="translate(256.95 75.952267) scale(0.18 -0.18)">
     <use xlink:href="#TimesNewRomanPSMT-32"/>
     <use xlink:href="#TimesNewRomanPSMT-33" x="50"/>
     <use xlink:href="#TimesNewRomanPSMT-30" x="100"/>
     <use xlink:href="#TimesNewRomanPSMT-2e" x="150"/>
     <use xlink:href="#TimesNewRomanPSMT-33" x="175"/>
    </g>
   </g>
   <g id="text_15">
    <!-- 255.6 -->
    <g transform="translate(310.798073 80.560475) scale(0.18 -0.18)">
     <use xlink:href="#TimesNewRomanPSMT-32"/>
     <use xlink:href="#TimesNewRomanPSMT-35" x="50"/>
     <use xlink:href="#TimesNewRomanPSMT-35" x="100"/>
     <use xlink:href="#TimesNewRomanPSMT-2e" x="150"/>
     <use xlink:href="#TimesNewRomanPSMT-36" x="175"/>
    </g>
   </g>
   <g id="text_16">
    <!-- 325.2 -->
    <g transform="translate(364.394527 95.424839) scale(0.18 -0.18)">
     <use xlink:href="#TimesNewRomanPSMT-33"/>
     <use xlink:href="#TimesNewRomanPSMT-32" x="50"/>
     <use xlink:href="#TimesNewRomanPSMT-35" x="100"/>
     <use xlink:href="#TimesNewRomanPSMT-2e" x="150"/>
     <use xlink:href="#TimesNewRomanPSMT-32" x="175"/>
    </g>
   </g>
   <g id="text_17">
    <!-- 422.4 -->
    <g transform="translate(415.656461 122.817757) scale(0.18 -0.18)">
     <use xlink:href="#TimesNewRomanPSMT-34"/>
     <use xlink:href="#TimesNewRomanPSMT-32" x="50"/>
     <use xlink:href="#TimesNewRomanPSMT-32" x="100"/>
     <use xlink:href="#TimesNewRomanPSMT-2e" x="150"/>
     <use xlink:href="#TimesNewRomanPSMT-34" x="175"/>
    </g>
   </g>
   <g id="text_18">
    <!-- 525.3 -->
    <g transform="translate(460.070854 164.252339) scale(0.18 -0.18)">
     <use xlink:href="#TimesNewRomanPSMT-35"/>
     <use xlink:href="#TimesNewRomanPSMT-32" x="50"/>
     <use xlink:href="#TimesNewRomanPSMT-35" x="100"/>
     <use xlink:href="#TimesNewRomanPSMT-2e" x="150"/>
     <use xlink:href="#TimesNewRomanPSMT-33" x="175"/>
    </g>
   </g>
   <g id="text_19">
    <!-- 612.1 -->
    <g transform="translate(491.73683 218.613277) scale(0.18 -0.18)">
     <use xlink:href="#TimesNewRomanPSMT-36"/>
     <use xlink:href="#TimesNewRomanPSMT-31" x="50"/>
     <use xlink:href="#TimesNewRomanPSMT-32" x="100"/>
     <use xlink:href="#TimesNewRomanPSMT-2e" x="150"/>
     <use xlink:href="#TimesNewRomanPSMT-31" x="175"/>
    </g>
   </g>
   <g id="text_20">
    <!-- 667.1 -->
    <g transform="translate(505.422268 281.524219) scale(0.18 -0.18)">
     <use xlink:href="#TimesNewRomanPSMT-36"/>
     <use xlink:href="#TimesNewRomanPSMT-36" x="50"/>
     <use xlink:href="#TimesNewRomanPSMT-37" x="100"/>
     <use xlink:href="#TimesNewRomanPSMT-2e" x="150"/>
     <use xlink:href="#TimesNewRomanPSMT-31" x="175"/>
    </g>
   </g>
   <g id="text_21">
    <!-- 681.9 -->
    <g transform="translate(498.358 346.209297) scale(0.18 -0.18)">
     <use xlink:href="#TimesNewRomanPSMT-36"/>
     <use xlink:href="#TimesNewRomanPSMT-38" x="50"/>
     <use xlink:href="#TimesNewRomanPSMT-31" x="100"/>
     <use xlink:href="#TimesNewRomanPSMT-2e" x="150"/>
     <use xlink:href="#TimesNewRomanPSMT-39" x="175"/>
    </g>
   </g>
   <g id="text_22">
    <!-- 656.8 -->
    <g transform="translate(471.262276 405.257469) scale(0.18 -0.18)">
     <use xlink:href="#TimesNewRomanPSMT-36"/>
     <use xlink:href="#TimesNewRomanPSMT-35" x="50"/>
     <use xlink:href="#TimesNewRomanPSMT-36" x="100"/>
     <use xlink:href="#TimesNewRomanPSMT-2e" x="150"/>
     <use xlink:href="#TimesNewRomanPSMT-38" x="175"/>
    </g>
   </g>
   <g id="text_23">
    <!-- 600.7 -->
    <g transform="translate(428.037612 452.611831) scale(0.18 -0.18)">
     <use xlink:href="#TimesNewRomanPSMT-36"/>
     <use xlink:href="#TimesNewRomanPSMT-30" x="50"/>
     <use xlink:href="#TimesNewRomanPSMT-30" x="100"/>
     <use xlink:href="#TimesNewRomanPSMT-2e" x="150"/>
     <use xlink:href="#TimesNewRomanPSMT-37" x="175"/>
    </g>
   </g>
   <g id="text_24">
    <!-- 525.8 -->
    <g transform="translate(374.247417 484.689305) scale(0.18 -0.18)">
     <use xlink:href="#TimesNewRomanPSMT-35"/>
     <use xlink:href="#TimesNewRomanPSMT-32" x="50"/>
     <use xlink:href="#TimesNewRomanPSMT-35" x="100"/>
     <use xlink:href="#TimesNewRomanPSMT-2e" x="150"/>
     <use xlink:href="#TimesNewRomanPSMT-38" x="175"/>
    </g>
   </g>
   <g id="text_25">
    <!-- 444.6 -->
    <g transform="translate(315.603928 500.423657) scale(0.18 -0.18)">
     <use xlink:href="#TimesNewRomanPSMT-34"/>
     <use xlink:href="#TimesNewRomanPSMT-34" x="50"/>
     <use xlink:href="#TimesNewRomanPSMT-34" x="100"/>
     <use xlink:href="#TimesNewRomanPSMT-2e" x="150"/>
     <use xlink:href="#TimesNewRomanPSMT-36" x="175"/>
    </g>
   </g>
   <g id="text_26">
    <!-- 367.7 -->
    <g transform="translate(256.95 500.587602) scale(0.18 -0.18)">
     <use xlink:href="#TimesNewRomanPSMT-33"/>
     <use xlink:href="#TimesNewRomanPSMT-36" x="50"/>
     <use xlink:href="#TimesNewRomanPSMT-37" x="100"/>
     <use xlink:href="#TimesNewRomanPSMT-2e" x="150"/>
     <use xlink:href="#TimesNewRomanPSMT-37" x="175"/>
    </g>
   </g>
   <g id="text_27">
    <!-- kN·m -->
    <g transform="translate(209.957344 282.485156) scale(0.22 -0.22)">
     <defs>
      <path id="TimesNewRomanPSMT-6b" d="M 1047 4444 
L 1047 1597 
L 1775 2259 
Q 2006 2472 2044 2528 
Q 2069 2566 2069 2603 
Q 2069 2666 2017 2711 
Q 1966 2756 1847 2763 
L 1847 2863 
L 3091 2863 
L 3091 2763 
Q 2834 2756 2664 2684 
Q 2494 2613 2291 2428 
L 1556 1750 
L 2291 822 
Q 2597 438 2703 334 
Q 2853 188 2966 144 
Q 3044 113 3238 113 
L 3238 0 
L 1847 0 
L 1847 113 
Q 1966 116 2008 148 
Q 2050 181 2050 241 
Q 2050 313 1925 472 
L 1047 1594 
L 1047 644 
Q 1047 366 1086 278 
Q 1125 191 1197 153 
Q 1269 116 1509 113 
L 1509 0 
L 53 0 
L 53 113 
Q 272 113 381 166 
Q 447 200 481 272 
Q 528 375 528 628 
L 528 3234 
Q 528 3731 506 3842 
Q 484 3953 434 3995 
Q 384 4038 303 4038 
Q 238 4038 106 3984 
L 53 4094 
L 903 4444 
L 1047 4444 
z
" transform="scale(0.015625)"/>
      <path id="TimesNewRomanPSMT-4e" d="M -84 4238 
L 1066 4238 
L 3656 1059 
L 3656 3503 
Q 3656 3894 3569 3991 
Q 3453 4122 3203 4122 
L 3056 4122 
L 3056 4238 
L 4531 4238 
L 4531 4122 
L 4381 4122 
Q 4113 4122 4000 3959 
Q 3931 3859 3931 3503 
L 3931 -69 
L 3819 -69 
L 1025 3344 
L 1025 734 
Q 1025 344 1109 247 
Q 1228 116 1475 116 
L 1625 116 
L 1625 0 
L 150 0 
L 150 116 
L 297 116 
Q 569 116 681 278 
Q 750 378 750 734 
L 750 3681 
Q 566 3897 470 3965 
Q 375 4034 191 4094 
Q 100 4122 -84 4122 
L -84 4238 
z
" transform="scale(0.015625)"/>
      <path id="TimesNewRomanPSMT-b7" d="M 1066 2525 
Q 1203 2525 1298 2429 
Q 1394 2334 1394 2197 
Q 1394 2063 1297 1966 
Q 1200 1869 1066 1869 
Q 931 1869 834 1966 
Q 738 2063 738 2197 
Q 738 2334 833 2429 
Q 928 2525 1066 2525 
z
" transform="scale(0.015625)"/>
      <path id="TimesNewRomanPSMT-6d" d="M 1050 2338 
Q 1363 2650 1419 2697 
Q 1559 2816 1721 2881 
Q 1884 2947 2044 2947 
Q 2313 2947 2506 2790 
Q 2700 2634 2766 2338 
Q 3088 2713 3309 2830 
Q 3531 2947 3766 2947 
Q 3994 2947 4170 2830 
Q 4347 2713 4450 2447 
Q 4519 2266 4519 1878 
L 4519 647 
Q 4519 378 4559 278 
Q 4591 209 4675 161 
Q 4759 113 4950 113 
L 4950 0 
L 3538 0 
L 3538 113 
L 3597 113 
Q 3781 113 3884 184 
Q 3956 234 3988 344 
Q 4000 397 4000 647 
L 4000 1878 
Q 4000 2228 3916 2372 
Q 3794 2572 3525 2572 
Q 3359 2572 3192 2489 
Q 3025 2406 2788 2181 
L 2781 2147 
L 2788 2013 
L 2788 647 
Q 2788 353 2820 281 
Q 2853 209 2943 161 
Q 3034 113 3253 113 
L 3253 0 
L 1806 0 
L 1806 113 
Q 2044 113 2133 169 
Q 2222 225 2256 338 
Q 2272 391 2272 647 
L 2272 1878 
Q 2272 2228 2169 2381 
Q 2031 2581 1784 2581 
Q 1616 2581 1450 2491 
Q 1191 2353 1050 2181 
L 1050 647 
Q 1050 366 1089 281 
Q 1128 197 1204 155 
Q 1281 113 1516 113 
L 1516 0 
L 100 0 
L 100 113 
Q 297 113 375 155 
Q 453 197 493 289 
Q 534 381 534 647 
L 534 1741 
Q 534 2213 506 2350 
Q 484 2453 437 2492 
Q 391 2531 309 2531 
Q 222 2531 100 2484 
L 53 2597 
L 916 2947 
L 1050 2947 
L 1050 2338 
z
" transform="scale(0.015625)"/>
     </defs>
     <use xlink:href="#TimesNewRomanPSMT-6b"/>
     <use xlink:href="#TimesNewRomanPSMT-4e" x="50"/>
     <use xlink:href="#TimesNewRomanPSMT-b7" x="122.216797"/>
     <use xlink:href="#TimesNewRomanPSMT-6d" x="155.517578"/>
    </g>
   </g>
   <g id="text_28">
    <!-- kN -->
    <g transform="translate(305.335938 282.485156) scale(0.22 -0.22)">
     <use xlink:href="#TimesNewRomanPSMT-6b"/>
     <use xlink:href="#TimesNewRomanPSMT-4e" x="50"/>
    </g>
   </g>
  </g>
 </g>
 <defs>
  <clipPath id="p5eaa810a61">
   <rect x="0" y="0" width="554.4" height="554.4"/>
  </clipPath>
 </defs>
</svg>
