<?xml version="1.0" encoding="utf-8" standalone="no"?>
<!DOCTYPE svg PUBLIC "-//W3C//DTD SVG 1.1//EN"
  "http://www.w3.org/Graphics/SVG/1.1/DTD/svg11.dtd">
<svg xmlns:xlink="http://www.w3.org/1999/xlink" width="552.960794pt" height="552.960794pt" viewBox="0 0 552.960794 552.960794" xmlns="http://www.w3.org/2000/svg" version="1.1">
 <metadata>
  <rdf:RDF xmlns:dc="http://purl.org/dc/elements/1.1/" xmlns:cc="http://creativecommons.org/ns#" xmlns:rdf="http://www.w3.org/1999/02/22-rdf-syntax-ns#">
   <cc:Work>
    <dc:type rdf:resource="http://purl.org/dc/dcmitype/StillImage"/>
    <dc:date>2026-05-30T14:44:58.337664</dc:date>
    <dc:format>image/svg+xml</dc:format>
    <dc:creator>
     <cc:Agent>
      <dc:title>Matplotlib v3.8.4, https://matplotlib.org/</dc:title>
     </cc:Agent>
    </dc:creator>
   </cc:Work>
  </rdf:RDF>
 </metadata>
 <defs>
  <style type="text/css">*{stroke-linejoin: round; stroke-linecap: butt}</style>
 </defs>
 <g id="figure_1">
  <g id="patch_1">
   <path d="M 0 552.960794 
L 552.960794 552.960794 
L 552.960794 0 
L 0 0 
z
" style="fill: #ffffff"/>
  </g>
  <g id="axes_1">
   <g id="line2d_1">
    <path d="M 430.080617 276.480397 
L 430.004445 271.643609 
L 429.776002 266.811619 
L 429.395516 261.989219 
L 428.863363 257.181191 
L 428.180072 252.392305 
L 427.346321 247.62731 
L 426.362936 242.890933 
L 425.230893 238.187871 
L 423.951315 233.522788 
L 422.52547 228.900313 
L 420.954773 224.325028 
L 419.240781 219.801473 
L 417.385196 215.334134 
L 415.389856 210.927442 
L 413.256742 206.585768 
L 410.987968 202.313417 
L 408.585786 198.114627 
L 406.052577 193.993563 
L 403.390855 189.954312 
L 400.603259 186.00088 
L 397.692553 182.137189 
L 394.661626 178.36707 
L 391.513482 174.694263 
L 388.251246 171.122411 
L 384.878151 167.655057 
L 381.397544 164.295639 
L 377.812877 161.047489 
L 374.127705 157.913829 
L 370.345683 154.897767 
L 366.470563 152.002295 
L 362.506188 149.230285 
L 358.456489 146.584485 
L 354.325484 144.067519 
L 350.11727 141.681886 
L 345.83602 139.429949 
L 341.485982 137.313944 
L 337.071468 135.335968 
L 332.596859 133.497984 
L 328.066591 131.801814 
L 323.485159 130.249141 
L 318.857106 128.841505 
L 314.187022 127.580302 
L 309.479539 126.466783 
L 304.739327 125.502052 
L 299.971087 124.687066 
L 295.179548 124.022634 
L 290.369463 123.509414 
L 285.545602 123.147916 
L 280.71275 122.938497 
L 275.8757 122.881367 
L 271.03925 122.97658 
L 266.208196 123.224044 
L 261.387331 123.623513 
L 256.581436 124.174589 
L 251.795277 124.876727 
L 247.033602 125.729231 
L 242.301132 126.731255 
L 237.602563 127.881804 
L 232.942554 129.179738 
L 228.325728 130.62377 
L 223.756663 132.212467 
L 219.23989 133.944254 
L 214.779891 135.817412 
L 210.381088 137.830084 
L 206.047845 139.980275 
L 201.784459 142.26585 
L 197.595159 144.684544 
L 193.484099 147.233957 
L 189.455358 149.91156 
L 185.512932 152.714699 
L 181.660729 155.640592 
L 177.902572 158.686339 
L 174.242187 161.848917 
L 170.683206 165.12519 
L 167.229157 168.511909 
L 163.883468 172.005714 
L 160.649455 175.603141 
L 157.530328 179.300621 
L 154.529179 183.094487 
L 151.648985 186.980976 
L 148.892602 190.956234 
L 146.262766 195.016317 
L 143.762083 199.157199 
L 141.393035 203.374772 
L 139.15797 207.664854 
L 137.059107 212.02319 
L 135.098525 216.445456 
L 133.278171 220.927266 
L 131.59985 225.464176 
L 130.065225 230.051686 
L 128.67582 234.685245 
L 127.433012 239.360257 
L 126.338034 244.072087 
L 125.391972 248.81606 
L 124.595764 253.587472 
L 123.9502 258.38159 
L 123.455921 263.193658 
L 123.113416 268.018905 
L 122.923025 272.852544 
L 122.884938 277.689781 
L 122.999191 282.525819 
L 123.265672 287.355861 
L 123.684116 292.175116 
L 124.254108 296.978805 
L 124.975083 301.762162 
L 125.846326 306.520445 
L 126.866973 311.248932 
L 128.036011 315.942936 
L 129.352281 320.597799 
L 130.814477 325.208905 
L 132.421149 329.77168 
L 134.170704 334.281599 
L 136.061406 338.73419 
L 138.09138 343.125035 
L 140.258613 347.44978 
L 142.560955 351.704135 
L 144.996122 355.883881 
L 147.5617 359.984872 
L 150.255143 364.00304 
L 153.073781 367.934401 
L 156.014817 371.775055 
L 159.075335 375.521192 
L 162.252299 379.169098 
L 165.542558 382.715154 
L 168.942848 386.155843 
L 172.449798 389.487752 
L 176.059929 392.707577 
L 179.76966 395.812124 
L 183.575311 398.798314 
L 187.473109 401.663185 
L 191.459187 404.403896 
L 195.529592 407.017729 
L 199.680287 409.50209 
L 203.907154 411.854516 
L 208.206002 414.072674 
L 212.572566 416.154363 
L 217.002516 418.09752 
L 221.491459 419.900216 
L 226.034941 421.560663 
L 230.628456 423.077216 
L 235.267449 424.448369 
L 239.947318 425.672762 
L 244.663422 426.749182 
L 249.411083 427.676561 
L 254.185592 428.453978 
L 258.982214 429.080663 
L 263.796191 429.555995 
L 268.622749 429.879501 
L 273.4571 430.050861 
L 278.29445 430.069905 
L 283.13 429.936614 
L 287.958956 429.65112 
L 292.776526 429.213707 
L 297.577934 428.624808 
L 302.358416 427.885007 
L 307.113232 426.995038 
L 311.837664 425.955784 
L 316.527029 424.768276 
L 321.176674 423.433691 
L 325.781988 421.953353 
L 330.338403 420.32873 
L 334.8414 418.561434 
L 339.286512 416.653218 
L 343.669331 414.605973 
L 347.985511 412.421731 
L 352.230769 410.102659 
L 356.400896 407.651055 
L 360.491755 405.069353 
L 364.499288 402.360111 
L 368.419522 399.526018 
L 372.248568 396.569885 
L 375.982628 393.494643 
L 379.617998 390.303343 
L 383.151073 386.999149 
L 386.578349 383.585339 
L 389.896426 380.0653 
L 393.102014 376.442521 
L 396.191932 372.720597 
L 399.163117 368.903219 
L 402.012621 364.994172 
L 404.737618 360.997335 
L 407.335406 356.916672 
L 409.803407 352.756229 
L 412.139175 348.520134 
L 414.340392 344.212587 
L 416.404875 339.837861 
L 418.330576 335.400295 
L 420.115586 330.904291 
L 421.758134 326.354307 
L 423.256591 321.754857 
L 424.60947 317.110502 
L 425.81543 312.425849 
L 426.873276 307.705544 
L 427.781956 302.954268 
L 428.540571 298.176736 
L 429.148368 293.377684 
L 429.604744 288.561873 
L 429.909246 283.734079 
L 430.061573 278.899091 
L 430.080617 276.480397 
L 430.080617 276.480397 
" clip-path="url(#p5f3bb1398b)" style="fill: none; stroke: #000000; stroke-width: 2; stroke-linecap: square"/>
   </g>
   <g id="line2d_2">
    <path d="M 276.480397 101.667677 
L 261.272374 102.651895 
L 246.345007 105.574108 
L 231.965377 110.348082 
L 218.374566 116.835937 
L 205.7752 124.852612 
L 194.326024 134.184849 
L 184.133543 144.595422 
L 175.253026 155.842314 
L 167.68784 167.68784 
L 161.395684 179.912857 
L 156.295624 192.326113 
L 152.280201 204.773381 
L 149.221045 217.138387 
L 146.985203 229.348001 
L 145.447074 241.370124 
L 144.494788 253.207773 
L 144.0385 264.893232 
L 144.020839 276.480397 
L 144.416936 288.034453 
L 145.235814 299.622358 
L 146.523189 311.302326 
L 148.352452 323.115155 
L 150.82111 335.076285 
L 154.043236 347.169525 
L 158.13578 359.34619 
L 163.215406 371.521009 
L 169.383915 383.576879 
L 176.723604 395.365913 
L 185.287249 406.717709 
L 195.094919 417.444179 
L 206.129222 427.348979 
L 218.334588 436.234694 
L 231.617158 443.912282 
L 245.847304 450.209302 
L 260.864031 454.976278 
L 276.480397 458.092026 
" clip-path="url(#p5f3bb1398b)" style="fill: none; stroke: #000000; stroke-width: 1.5; stroke-linecap: square"/>
   </g>
   <g id="line2d_3">
    <path d="M 276.480397 122.880176 
L 276.480397 101.667677 
" clip-path="url(#p5f3bb1398b)" style="fill: none; stroke: #808080; stroke-width: 0.6; stroke-linecap: square"/>
   </g>
   <g id="line2d_4">
    <path d="M 249.807999 125.213709 
L 246.345007 105.574108 
" clip-path="url(#p5f3bb1398b)" style="fill: none; stroke: #808080; stroke-width: 0.6; stroke-linecap: square"/>
   </g>
   <g id="line2d_5">
    <path d="M 223.946027 132.143403 
L 218.374566 116.835937 
" clip-path="url(#p5f3bb1398b)" style="fill: none; stroke: #808080; stroke-width: 0.6; stroke-linecap: square"/>
   </g>
   <g id="line2d_6">
    <path d="M 199.680287 143.458704 
L 194.326024 134.184849 
" clip-path="url(#p5f3bb1398b)" style="fill: none; stroke: #808080; stroke-width: 0.6; stroke-linecap: square"/>
   </g>
   <g id="line2d_7">
    <path d="M 177.748078 158.815802 
L 175.253026 155.842314 
" clip-path="url(#p5f3bb1398b)" style="fill: none; stroke: #808080; stroke-width: 0.6; stroke-linecap: square"/>
   </g>
   <g id="line2d_8">
    <path d="M 158.815802 177.748078 
L 161.395684 179.912857 
" clip-path="url(#p5f3bb1398b)" style="fill: none; stroke: #808080; stroke-width: 0.6; stroke-linecap: square"/>
   </g>
   <g id="line2d_9">
    <path d="M 143.458704 199.680287 
L 152.280201 204.773381 
" clip-path="url(#p5f3bb1398b)" style="fill: none; stroke: #808080; stroke-width: 0.6; stroke-linecap: square"/>
   </g>
   <g id="line2d_10">
    <path d="M 132.143403 223.946027 
L 146.985203 229.348001 
" clip-path="url(#p5f3bb1398b)" style="fill: none; stroke: #808080; stroke-width: 0.6; stroke-linecap: square"/>
   </g>
   <g id="line2d_11">
    <path d="M 125.213709 249.807999 
L 144.494788 253.207773 
" clip-path="url(#p5f3bb1398b)" style="fill: none; stroke: #808080; stroke-width: 0.6; stroke-linecap: square"/>
   </g>
   <g id="line2d_12">
    <path d="M 122.880176 276.480397 
L 144.020839 276.480397 
" clip-path="url(#p5f3bb1398b)" style="fill: none; stroke: #808080; stroke-width: 0.6; stroke-linecap: square"/>
   </g>
   <g id="line2d_13">
    <path d="M 125.213709 303.152795 
L 145.235814 299.622358 
" clip-path="url(#p5f3bb1398b)" style="fill: none; stroke: #808080; stroke-width: 0.6; stroke-linecap: square"/>
   </g>
   <g id="line2d_14">
    <path d="M 132.143403 329.014766 
L 148.352452 323.115155 
" clip-path="url(#p5f3bb1398b)" style="fill: none; stroke: #808080; stroke-width: 0.6; stroke-linecap: square"/>
   </g>
   <g id="line2d_15">
    <path d="M 143.458704 353.280507 
L 154.043236 347.169525 
" clip-path="url(#p5f3bb1398b)" style="fill: none; stroke: #808080; stroke-width: 0.6; stroke-linecap: square"/>
   </g>
   <g id="line2d_16">
    <path d="M 158.815802 375.212715 
L 163.215406 371.521009 
" clip-path="url(#p5f3bb1398b)" style="fill: none; stroke: #808080; stroke-width: 0.6; stroke-linecap: square"/>
   </g>
   <g id="line2d_17">
    <path d="M 177.748078 394.144992 
L 176.723604 395.365913 
" clip-path="url(#p5f3bb1398b)" style="fill: none; stroke: #808080; stroke-width: 0.6; stroke-linecap: square"/>
   </g>
   <g id="line2d_18">
    <path d="M 199.680287 409.50209 
L 195.094919 417.444179 
" clip-path="url(#p5f3bb1398b)" style="fill: none; stroke: #808080; stroke-width: 0.6; stroke-linecap: square"/>
   </g>
   <g id="line2d_19">
    <path d="M 223.946027 420.817391 
L 218.334588 436.234694 
" clip-path="url(#p5f3bb1398b)" style="fill: none; stroke: #808080; stroke-width: 0.6; stroke-linecap: square"/>
   </g>
   <g id="line2d_20">
    <path d="M 249.807999 427.747085 
L 245.847304 450.209302 
" clip-path="url(#p5f3bb1398b)" style="fill: none; stroke: #808080; stroke-width: 0.6; stroke-linecap: square"/>
   </g>
   <g id="line2d_21">
    <path d="M 276.480397 430.080617 
L 276.480397 458.092026 
" clip-path="url(#p5f3bb1398b)" style="fill: none; stroke: #808080; stroke-width: 0.6; stroke-linecap: square"/>
   </g>
   <g id="line2d_22">
    <path d="M 276.480397 466.097735 
L 293.033219 465.680025 
L 309.617331 464.409288 
L 326.253828 462.23737 
L 342.944062 459.087816 
L 359.661334 454.862492 
L 376.346724 449.453949 
L 392.904367 442.751058 
L 409.200238 434.649745 
L 425.066941 425.066941 
L 440.309148 413.949042 
L 454.706191 401.275441 
L 468.027713 387.070292 
L 480.038414 371.401059 
L 490.51149 354.381344 
L 499.236239 336.167645 
L 506.029295 316.956061 
L 510.741684 296.975604 
L 513.264371 276.480397 
L 513.51351 255.742687 
L 511.454339 235.048151 
L 507.113935 214.682327 
L 500.568032 194.919168 
L 491.927897 176.015578 
L 481.342976 158.202932 
L 468.991277 141.682827 
L 455.07176 126.62445 
L 439.798539 113.162255 
L 423.391815 101.398187 
L 406.075286 91.399714 
L 388.069436 83.202511 
L 369.586096 76.814581 
L 350.824579 72.221434 
L 331.971709 69.384 
L 313.196902 68.250747 
L 294.654254 68.752264 
L 276.480397 70.812473 
" clip-path="url(#p5f3bb1398b)" style="fill: none; stroke: #000000; stroke-width: 1.5; stroke-linecap: square"/>
   </g>
   <g id="line2d_23">
    <path d="M 276.480397 430.080617 
L 276.480397 466.097735 
" clip-path="url(#p5f3bb1398b)" style="fill: none; stroke: #808080; stroke-width: 0.6; stroke-linecap: square"/>
   </g>
   <g id="line2d_24">
    <path d="M 303.152795 427.747085 
L 309.617331 464.409288 
" clip-path="url(#p5f3bb1398b)" style="fill: none; stroke: #808080; stroke-width: 0.6; stroke-linecap: square"/>
   </g>
   <g id="line2d_25">
    <path d="M 329.014766 420.817391 
L 342.944062 459.087816 
" clip-path="url(#p5f3bb1398b)" style="fill: none; stroke: #808080; stroke-width: 0.6; stroke-linecap: square"/>
   </g>
   <g id="line2d_26">
    <path d="M 353.280507 409.50209 
L 376.346724 449.453949 
" clip-path="url(#p5f3bb1398b)" style="fill: none; stroke: #808080; stroke-width: 0.6; stroke-linecap: square"/>
   </g>
   <g id="line2d_27">
    <path d="M 375.212715 394.144992 
L 409.200238 434.649745 
" clip-path="url(#p5f3bb1398b)" style="fill: none; stroke: #808080; stroke-width: 0.6; stroke-linecap: square"/>
   </g>
   <g id="line2d_28">
    <path d="M 394.144992 375.212715 
L 440.309148 413.949042 
" clip-path="url(#p5f3bb1398b)" style="fill: none; stroke: #808080; stroke-width: 0.6; stroke-linecap: square"/>
   </g>
   <g id="line2d_29">
    <path d="M 409.50209 353.280507 
L 468.027713 387.070292 
" clip-path="url(#p5f3bb1398b)" style="fill: none; stroke: #808080; stroke-width: 0.6; stroke-linecap: square"/>
   </g>
   <g id="line2d_30">
    <path d="M 420.817391 329.014766 
L 490.51149 354.381344 
" clip-path="url(#p5f3bb1398b)" style="fill: none; stroke: #808080; stroke-width: 0.6; stroke-linecap: square"/>
   </g>
   <g id="line2d_31">
    <path d="M 427.747085 303.152795 
L 506.029295 316.956061 
" clip-path="url(#p5f3bb1398b)" style="fill: none; stroke: #808080; stroke-width: 0.6; stroke-linecap: square"/>
   </g>
   <g id="line2d_32">
    <path d="M 430.080617 276.480397 
L 513.264371 276.480397 
" clip-path="url(#p5f3bb1398b)" style="fill: none; stroke: #808080; stroke-width: 0.6; stroke-linecap: square"/>
   </g>
   <g id="line2d_33">
    <path d="M 427.747085 249.807999 
L 511.454339 235.048151 
" clip-path="url(#p5f3bb1398b)" style="fill: none; stroke: #808080; stroke-width: 0.6; stroke-linecap: square"/>
   </g>
   <g id="line2d_34">
    <path d="M 420.817391 223.946027 
L 500.568032 194.919168 
" clip-path="url(#p5f3bb1398b)" style="fill: none; stroke: #808080; stroke-width: 0.6; stroke-linecap: square"/>
   </g>
   <g id="line2d_35">
    <path d="M 409.50209 199.680287 
L 481.342976 158.202932 
" clip-path="url(#p5f3bb1398b)" style="fill: none; stroke: #808080; stroke-width: 0.6; stroke-linecap: square"/>
   </g>
   <g id="line2d_36">
    <path d="M 394.144992 177.748078 
L 455.07176 126.62445 
" clip-path="url(#p5f3bb1398b)" style="fill: none; stroke: #808080; stroke-width: 0.6; stroke-linecap: square"/>
   </g>
   <g id="line2d_37">
    <path d="M 375.212715 158.815802 
L 423.391815 101.398187 
" clip-path="url(#p5f3bb1398b)" style="fill: none; stroke: #808080; stroke-width: 0.6; stroke-linecap: square"/>
   </g>
   <g id="line2d_38">
    <path d="M 353.280507 143.458704 
L 388.069436 83.202511 
" clip-path="url(#p5f3bb1398b)" style="fill: none; stroke: #808080; stroke-width: 0.6; stroke-linecap: square"/>
   </g>
   <g id="line2d_39">
    <path d="M 329.014766 132.143403 
L 350.824579 72.221434 
" clip-path="url(#p5f3bb1398b)" style="fill: none; stroke: #808080; stroke-width: 0.6; stroke-linecap: square"/>
   </g>
   <g id="line2d_40">
    <path d="M 303.152795 125.213709 
L 313.196902 68.250747 
" clip-path="url(#p5f3bb1398b)" style="fill: none; stroke: #808080; stroke-width: 0.6; stroke-linecap: square"/>
   </g>
   <g id="line2d_41">
    <path d="M 276.480397 122.880176 
L 276.480397 70.812473 
" clip-path="url(#p5f3bb1398b)" style="fill: none; stroke: #808080; stroke-width: 0.6; stroke-linecap: square"/>
   </g>
   <g id="text_1">
    <!-- 174.2 -->
    <g transform="translate(256.230397 93.703878) scale(0.18 -0.18)">
     <defs>
      <path id="TimesNewRomanPSMT-31" d="M 750 3822 
L 1781 4325 
L 1884 4325 
L 1884 747 
Q 1884 391 1914 303 
Q 1944 216 2037 169 
Q 2131 122 2419 116 
L 2419 0 
L 825 0 
L 825 116 
Q 1125 122 1212 167 
Q 1300 213 1334 289 
Q 1369 366 1369 747 
L 1369 3034 
Q 1369 3497 1338 3628 
Q 1316 3728 1258 3775 
Q 1200 3822 1119 3822 
Q 1003 3822 797 3725 
L 750 3822 
z
" transform="scale(0.015625)"/>
      <path id="TimesNewRomanPSMT-37" d="M 644 4238 
L 2916 4238 
L 2916 4119 
L 1503 -88 
L 1153 -88 
L 2419 3728 
L 1253 3728 
Q 900 3728 750 3644 
Q 488 3500 328 3200 
L 238 3234 
L 644 4238 
z
" transform="scale(0.015625)"/>
      <path id="TimesNewRomanPSMT-34" d="M 2978 1563 
L 2978 1119 
L 2409 1119 
L 2409 0 
L 1894 0 
L 1894 1119 
L 100 1119 
L 100 1519 
L 2066 4325 
L 2409 4325 
L 2409 1563 
L 2978 1563 
z
M 1894 1563 
L 1894 3666 
L 406 1563 
L 1894 1563 
z
" transform="scale(0.015625)"/>
      <path id="TimesNewRomanPSMT-2e" d="M 800 606 
Q 947 606 1047 504 
Q 1147 403 1147 259 
Q 1147 116 1045 14 
Q 944 -88 800 -88 
Q 656 -88 554 14 
Q 453 116 453 259 
Q 453 406 554 506 
Q 656 606 800 606 
z
" transform="scale(0.015625)"/>
      <path id="TimesNewRomanPSMT-32" d="M 2934 816 
L 2638 0 
L 138 0 
L 138 116 
Q 1241 1122 1691 1759 
Q 2141 2397 2141 2925 
Q 2141 3328 1894 3587 
Q 1647 3847 1303 3847 
Q 991 3847 742 3664 
Q 494 3481 375 3128 
L 259 3128 
Q 338 3706 661 4015 
Q 984 4325 1469 4325 
Q 1984 4325 2329 3994 
Q 2675 3663 2675 3213 
Q 2675 2891 2525 2569 
Q 2294 2063 1775 1497 
Q 997 647 803 472 
L 1909 472 
Q 2247 472 2383 497 
Q 2519 522 2628 598 
Q 2738 675 2819 816 
L 2934 816 
z
" transform="scale(0.015625)"/>
     </defs>
     <use xlink:href="#TimesNewRomanPSMT-31"/>
     <use xlink:href="#TimesNewRomanPSMT-37" x="50"/>
     <use xlink:href="#TimesNewRomanPSMT-34" x="100"/>
     <use xlink:href="#TimesNewRomanPSMT-2e" x="150"/>
     <use xlink:href="#TimesNewRomanPSMT-32" x="175"/>
    </g>
   </g>
   <g id="text_2">
    <!-- 151.1 -->
    <g transform="translate(208.535004 102.802987) scale(0.18 -0.18)">
     <defs>
      <path id="TimesNewRomanPSMT-35" d="M 2778 4238 
L 2534 3706 
L 1259 3706 
L 981 3138 
Q 1809 3016 2294 2522 
Q 2709 2097 2709 1522 
Q 2709 1188 2573 903 
Q 2438 619 2231 419 
Q 2025 219 1772 97 
Q 1413 -75 1034 -75 
Q 653 -75 479 54 
Q 306 184 306 341 
Q 306 428 378 495 
Q 450 563 559 563 
Q 641 563 702 538 
Q 763 513 909 409 
Q 1144 247 1384 247 
Q 1750 247 2026 523 
Q 2303 800 2303 1197 
Q 2303 1581 2056 1914 
Q 1809 2247 1375 2428 
Q 1034 2569 447 2591 
L 1259 4238 
L 2778 4238 
z
" transform="scale(0.015625)"/>
     </defs>
     <use xlink:href="#TimesNewRomanPSMT-31"/>
     <use xlink:href="#TimesNewRomanPSMT-35" x="50"/>
     <use xlink:href="#TimesNewRomanPSMT-31" x="100"/>
     <use xlink:href="#TimesNewRomanPSMT-2e" x="150"/>
     <use xlink:href="#TimesNewRomanPSMT-31" x="175"/>
    </g>
   </g>
   <g id="text_3">
    <!-- 88.0 -->
    <g transform="translate(172.432015 127.867332) scale(0.18 -0.18)">
     <defs>
      <path id="TimesNewRomanPSMT-38" d="M 1228 2134 
Q 725 2547 579 2797 
Q 434 3047 434 3316 
Q 434 3728 753 4026 
Q 1072 4325 1600 4325 
Q 2113 4325 2425 4047 
Q 2738 3769 2738 3413 
Q 2738 3175 2569 2928 
Q 2400 2681 1866 2347 
Q 2416 1922 2594 1678 
Q 2831 1359 2831 1006 
Q 2831 559 2490 242 
Q 2150 -75 1597 -75 
Q 994 -75 656 303 
Q 388 606 388 966 
Q 388 1247 577 1523 
Q 766 1800 1228 2134 
z
M 1719 2469 
Q 2094 2806 2194 3001 
Q 2294 3197 2294 3444 
Q 2294 3772 2109 3958 
Q 1925 4144 1606 4144 
Q 1288 4144 1088 3959 
Q 888 3775 888 3528 
Q 888 3366 970 3203 
Q 1053 3041 1206 2894 
L 1719 2469 
z
M 1375 2016 
Q 1116 1797 991 1539 
Q 866 1281 866 981 
Q 866 578 1086 336 
Q 1306 94 1647 94 
Q 1984 94 2187 284 
Q 2391 475 2391 747 
Q 2391 972 2272 1150 
Q 2050 1481 1375 2016 
z
" transform="scale(0.015625)"/>
      <path id="TimesNewRomanPSMT-30" d="M 231 2094 
Q 231 2819 450 3342 
Q 669 3866 1031 4122 
Q 1313 4325 1613 4325 
Q 2100 4325 2488 3828 
Q 2972 3213 2972 2159 
Q 2972 1422 2759 906 
Q 2547 391 2217 158 
Q 1888 -75 1581 -75 
Q 975 -75 572 641 
Q 231 1244 231 2094 
z
M 844 2016 
Q 844 1141 1059 588 
Q 1238 122 1591 122 
Q 1759 122 1940 273 
Q 2122 425 2216 781 
Q 2359 1319 2359 2297 
Q 2359 3022 2209 3506 
Q 2097 3866 1919 4016 
Q 1791 4119 1609 4119 
Q 1397 4119 1231 3928 
Q 1006 3669 925 3112 
Q 844 2556 844 2016 
z
" transform="scale(0.015625)"/>
     </defs>
     <use xlink:href="#TimesNewRomanPSMT-38"/>
     <use xlink:href="#TimesNewRomanPSMT-38" x="50"/>
     <use xlink:href="#TimesNewRomanPSMT-2e" x="100"/>
     <use xlink:href="#TimesNewRomanPSMT-30" x="125"/>
    </g>
   </g>
   <g id="text_4">
    <!-- 2.1 -->
    <g transform="translate(147.748899 163.323118) scale(0.18 -0.18)">
     <use xlink:href="#TimesNewRomanPSMT-32"/>
     <use xlink:href="#TimesNewRomanPSMT-2e" x="50"/>
     <use xlink:href="#TimesNewRomanPSMT-31" x="75"/>
    </g>
   </g>
   <g id="text_5">
    <!-- -83.7 -->
    <g transform="translate(144.175218 215.241608) scale(0.18 -0.18)">
     <defs>
      <path id="TimesNewRomanPSMT-2d" d="M 259 1672 
L 1875 1672 
L 1875 1200 
L 259 1200 
L 259 1672 
z
" transform="scale(0.015625)"/>
      <path id="TimesNewRomanPSMT-33" d="M 325 3431 
Q 506 3859 782 4092 
Q 1059 4325 1472 4325 
Q 1981 4325 2253 3994 
Q 2459 3747 2459 3466 
Q 2459 3003 1878 2509 
Q 2269 2356 2469 2072 
Q 2669 1788 2669 1403 
Q 2669 853 2319 450 
Q 1863 -75 997 -75 
Q 569 -75 414 31 
Q 259 138 259 259 
Q 259 350 332 419 
Q 406 488 509 488 
Q 588 488 669 463 
Q 722 447 909 348 
Q 1097 250 1169 231 
Q 1284 197 1416 197 
Q 1734 197 1970 444 
Q 2206 691 2206 1028 
Q 2206 1275 2097 1509 
Q 2016 1684 1919 1775 
Q 1784 1900 1550 2001 
Q 1316 2103 1072 2103 
L 972 2103 
L 972 2197 
Q 1219 2228 1467 2375 
Q 1716 2522 1828 2728 
Q 1941 2934 1941 3181 
Q 1941 3503 1739 3701 
Q 1538 3900 1238 3900 
Q 753 3900 428 3381 
L 325 3431 
z
" transform="scale(0.015625)"/>
     </defs>
     <use xlink:href="#TimesNewRomanPSMT-2d"/>
     <use xlink:href="#TimesNewRomanPSMT-38" x="33.300781"/>
     <use xlink:href="#TimesNewRomanPSMT-33" x="83.300781"/>
     <use xlink:href="#TimesNewRomanPSMT-2e" x="133.300781"/>
     <use xlink:href="#TimesNewRomanPSMT-37" x="158.300781"/>
    </g>
   </g>
   <g id="text_6">
    <!-- -147.4 -->
    <g transform="translate(134.069668 248.874715) scale(0.18 -0.18)">
     <use xlink:href="#TimesNewRomanPSMT-2d"/>
     <use xlink:href="#TimesNewRomanPSMT-31" x="33.300781"/>
     <use xlink:href="#TimesNewRomanPSMT-34" x="83.300781"/>
     <use xlink:href="#TimesNewRomanPSMT-37" x="133.300781"/>
     <use xlink:href="#TimesNewRomanPSMT-2e" x="183.300781"/>
     <use xlink:href="#TimesNewRomanPSMT-34" x="208.300781"/>
    </g>
   </g>
   <g id="text_7">
    <!-- -173.6 -->
    <g transform="translate(133.062138 280.804616) scale(0.18 -0.18)">
     <defs>
      <path id="TimesNewRomanPSMT-36" d="M 2869 4325 
L 2869 4209 
Q 2456 4169 2195 4045 
Q 1934 3922 1679 3669 
Q 1425 3416 1258 3105 
Q 1091 2794 978 2366 
Q 1428 2675 1881 2675 
Q 2316 2675 2634 2325 
Q 2953 1975 2953 1425 
Q 2953 894 2631 456 
Q 2244 -75 1606 -75 
Q 1172 -75 869 213 
Q 275 772 275 1663 
Q 275 2231 503 2743 
Q 731 3256 1154 3653 
Q 1578 4050 1965 4187 
Q 2353 4325 2688 4325 
L 2869 4325 
z
M 925 2138 
Q 869 1716 869 1456 
Q 869 1156 980 804 
Q 1091 453 1309 247 
Q 1469 100 1697 100 
Q 1969 100 2183 356 
Q 2397 613 2397 1088 
Q 2397 1622 2184 2012 
Q 1972 2403 1581 2403 
Q 1463 2403 1327 2353 
Q 1191 2303 925 2138 
z
" transform="scale(0.015625)"/>
     </defs>
     <use xlink:href="#TimesNewRomanPSMT-2d"/>
     <use xlink:href="#TimesNewRomanPSMT-31" x="33.300781"/>
     <use xlink:href="#TimesNewRomanPSMT-37" x="83.300781"/>
     <use xlink:href="#TimesNewRomanPSMT-33" x="133.300781"/>
     <use xlink:href="#TimesNewRomanPSMT-2e" x="183.300781"/>
     <use xlink:href="#TimesNewRomanPSMT-36" x="208.300781"/>
    </g>
   </g>
   <g id="text_8">
    <!-- -156.5 -->
    <g transform="translate(135.145783 312.446172) scale(0.18 -0.18)">
     <use xlink:href="#TimesNewRomanPSMT-2d"/>
     <use xlink:href="#TimesNewRomanPSMT-31" x="33.300781"/>
     <use xlink:href="#TimesNewRomanPSMT-35" x="83.300781"/>
     <use xlink:href="#TimesNewRomanPSMT-36" x="133.300781"/>
     <use xlink:href="#TimesNewRomanPSMT-2e" x="183.300781"/>
     <use xlink:href="#TimesNewRomanPSMT-35" x="208.300781"/>
    </g>
   </g>
   <g id="text_9">
    <!-- -100.4 -->
    <g transform="translate(141.438252 345.349735) scale(0.18 -0.18)">
     <use xlink:href="#TimesNewRomanPSMT-2d"/>
     <use xlink:href="#TimesNewRomanPSMT-31" x="33.300781"/>
     <use xlink:href="#TimesNewRomanPSMT-30" x="83.300781"/>
     <use xlink:href="#TimesNewRomanPSMT-30" x="133.300781"/>
     <use xlink:href="#TimesNewRomanPSMT-2e" x="183.300781"/>
     <use xlink:href="#TimesNewRomanPSMT-34" x="208.300781"/>
    </g>
   </g>
   <g id="text_10">
    <!-- -17.6 -->
    <g transform="translate(159.326136 379.212157) scale(0.18 -0.18)">
     <use xlink:href="#TimesNewRomanPSMT-2d"/>
     <use xlink:href="#TimesNewRomanPSMT-31" x="33.300781"/>
     <use xlink:href="#TimesNewRomanPSMT-37" x="83.300781"/>
     <use xlink:href="#TimesNewRomanPSMT-2e" x="133.300781"/>
     <use xlink:href="#TimesNewRomanPSMT-36" x="158.300781"/>
    </g>
   </g>
   <g id="text_11">
    <!-- 75.3 -->
    <g transform="translate(173.20091 432.410133) scale(0.18 -0.18)">
     <use xlink:href="#TimesNewRomanPSMT-37"/>
     <use xlink:href="#TimesNewRomanPSMT-35" x="50"/>
     <use xlink:href="#TimesNewRomanPSMT-2e" x="100"/>
     <use xlink:href="#TimesNewRomanPSMT-33" x="125"/>
    </g>
   </g>
   <g id="text_12">
    <!-- 162.1 -->
    <g transform="translate(208.186785 460.105815) scale(0.18 -0.18)">
     <use xlink:href="#TimesNewRomanPSMT-31"/>
     <use xlink:href="#TimesNewRomanPSMT-36" x="50"/>
     <use xlink:href="#TimesNewRomanPSMT-32" x="100"/>
     <use xlink:href="#TimesNewRomanPSMT-2e" x="150"/>
     <use xlink:href="#TimesNewRomanPSMT-31" x="175"/>
    </g>
   </g>
   <g id="text_13">
    <!-- 230.1 -->
    <g transform="translate(256.230397 474.704262) scale(0.18 -0.18)">
     <use xlink:href="#TimesNewRomanPSMT-32"/>
     <use xlink:href="#TimesNewRomanPSMT-33" x="50"/>
     <use xlink:href="#TimesNewRomanPSMT-30" x="100"/>
     <use xlink:href="#TimesNewRomanPSMT-2e" x="150"/>
     <use xlink:href="#TimesNewRomanPSMT-31" x="175"/>
    </g>
   </g>
   <g id="text_14">
    <!-- 308.2 -->
    <g transform="translate(256.230397 488.85398) scale(0.18 -0.18)">
     <use xlink:href="#TimesNewRomanPSMT-33"/>
     <use xlink:href="#TimesNewRomanPSMT-30" x="50"/>
     <use xlink:href="#TimesNewRomanPSMT-38" x="100"/>
     <use xlink:href="#TimesNewRomanPSMT-2e" x="150"/>
     <use xlink:href="#TimesNewRomanPSMT-32" x="175"/>
    </g>
   </g>
   <g id="text_15">
    <!-- 331.2 -->
    <g transform="translate(310.774387 484.365559) scale(0.18 -0.18)">
     <use xlink:href="#TimesNewRomanPSMT-33"/>
     <use xlink:href="#TimesNewRomanPSMT-33" x="50"/>
     <use xlink:href="#TimesNewRomanPSMT-31" x="100"/>
     <use xlink:href="#TimesNewRomanPSMT-2e" x="150"/>
     <use xlink:href="#TimesNewRomanPSMT-32" x="175"/>
    </g>
   </g>
   <g id="text_16">
    <!-- 394.8 -->
    <g transform="translate(365.312737 469.740771) scale(0.18 -0.18)">
     <defs>
      <path id="TimesNewRomanPSMT-39" d="M 338 -88 
L 338 28 
Q 744 34 1094 217 
Q 1444 400 1770 856 
Q 2097 1313 2225 1859 
Q 1734 1544 1338 1544 
Q 891 1544 572 1889 
Q 253 2234 253 2806 
Q 253 3363 572 3797 
Q 956 4325 1575 4325 
Q 2097 4325 2469 3894 
Q 2925 3359 2925 2575 
Q 2925 1869 2578 1258 
Q 2231 647 1613 244 
Q 1109 -88 516 -88 
L 338 -88 
z
M 2275 2091 
Q 2331 2497 2331 2741 
Q 2331 3044 2228 3395 
Q 2125 3747 1936 3934 
Q 1747 4122 1506 4122 
Q 1228 4122 1018 3872 
Q 809 3622 809 3128 
Q 809 2469 1088 2097 
Q 1291 1828 1588 1828 
Q 1731 1828 1928 1897 
Q 2125 1966 2275 2091 
z
" transform="scale(0.015625)"/>
     </defs>
     <use xlink:href="#TimesNewRomanPSMT-33"/>
     <use xlink:href="#TimesNewRomanPSMT-39" x="50"/>
     <use xlink:href="#TimesNewRomanPSMT-34" x="100"/>
     <use xlink:href="#TimesNewRomanPSMT-2e" x="150"/>
     <use xlink:href="#TimesNewRomanPSMT-38" x="175"/>
    </g>
   </g>
   <g id="text_17">
    <!-- 483.8 -->
    <g transform="translate(417.850352 442.424571) scale(0.18 -0.18)">
     <use xlink:href="#TimesNewRomanPSMT-34"/>
     <use xlink:href="#TimesNewRomanPSMT-38" x="50"/>
     <use xlink:href="#TimesNewRomanPSMT-33" x="100"/>
     <use xlink:href="#TimesNewRomanPSMT-2e" x="150"/>
     <use xlink:href="#TimesNewRomanPSMT-38" x="175"/>
    </g>
   </g>
   <g id="text_18">
    <!-- 578.3 -->
    <g transform="translate(463.740316 400.610524) scale(0.18 -0.18)">
     <use xlink:href="#TimesNewRomanPSMT-35"/>
     <use xlink:href="#TimesNewRomanPSMT-37" x="50"/>
     <use xlink:href="#TimesNewRomanPSMT-38" x="100"/>
     <use xlink:href="#TimesNewRomanPSMT-2e" x="150"/>
     <use xlink:href="#TimesNewRomanPSMT-33" x="175"/>
    </g>
   </g>
   <g id="text_19">
    <!-- 659.0 -->
    <g transform="translate(496.79021 345.262423) scale(0.18 -0.18)">
     <use xlink:href="#TimesNewRomanPSMT-36"/>
     <use xlink:href="#TimesNewRomanPSMT-35" x="50"/>
     <use xlink:href="#TimesNewRomanPSMT-39" x="100"/>
     <use xlink:href="#TimesNewRomanPSMT-2e" x="150"/>
     <use xlink:href="#TimesNewRomanPSMT-30" x="175"/>
    </g>
   </g>
   <g id="text_20">
    <!-- 711.8 -->
    <g transform="translate(511.783897 280.804616) scale(0.18 -0.18)">
     <use xlink:href="#TimesNewRomanPSMT-37"/>
     <use xlink:href="#TimesNewRomanPSMT-31" x="50"/>
     <use xlink:href="#TimesNewRomanPSMT-31" x="96.25"/>
     <use xlink:href="#TimesNewRomanPSMT-2e" x="146.25"/>
     <use xlink:href="#TimesNewRomanPSMT-38" x="171.25"/>
    </g>
   </g>
   <g id="text_21">
    <!-- 728.8 -->
    <g transform="translate(504.667905 214.235986) scale(0.18 -0.18)">
     <use xlink:href="#TimesNewRomanPSMT-37"/>
     <use xlink:href="#TimesNewRomanPSMT-32" x="50"/>
     <use xlink:href="#TimesNewRomanPSMT-38" x="100"/>
     <use xlink:href="#TimesNewRomanPSMT-2e" x="150"/>
     <use xlink:href="#TimesNewRomanPSMT-38" x="175"/>
    </g>
   </g>
   <g id="text_22">
    <!-- 709.9 -->
    <g transform="translate(477.055579 153.311137) scale(0.18 -0.18)">
     <use xlink:href="#TimesNewRomanPSMT-37"/>
     <use xlink:href="#TimesNewRomanPSMT-30" x="50"/>
     <use xlink:href="#TimesNewRomanPSMT-39" x="100"/>
     <use xlink:href="#TimesNewRomanPSMT-2e" x="150"/>
     <use xlink:href="#TimesNewRomanPSMT-39" x="175"/>
    </g>
   </g>
   <g id="text_23">
    <!-- 662.0 -->
    <g transform="translate(432.58195 104.453062) scale(0.18 -0.18)">
     <use xlink:href="#TimesNewRomanPSMT-36"/>
     <use xlink:href="#TimesNewRomanPSMT-36" x="50"/>
     <use xlink:href="#TimesNewRomanPSMT-32" x="100"/>
     <use xlink:href="#TimesNewRomanPSMT-2e" x="150"/>
     <use xlink:href="#TimesNewRomanPSMT-30" x="175"/>
    </g>
   </g>
   <g id="text_24">
    <!-- 595.4 -->
    <g transform="translate(377.035449 71.564127) scale(0.18 -0.18)">
     <use xlink:href="#TimesNewRomanPSMT-35"/>
     <use xlink:href="#TimesNewRomanPSMT-39" x="50"/>
     <use xlink:href="#TimesNewRomanPSMT-35" x="100"/>
     <use xlink:href="#TimesNewRomanPSMT-2e" x="150"/>
     <use xlink:href="#TimesNewRomanPSMT-34" x="175"/>
    </g>
   </g>
   <g id="text_25">
    <!-- 520.3 -->
    <g transform="translate(316.492269 55.904249) scale(0.18 -0.18)">
     <use xlink:href="#TimesNewRomanPSMT-35"/>
     <use xlink:href="#TimesNewRomanPSMT-32" x="50"/>
     <use xlink:href="#TimesNewRomanPSMT-30" x="100"/>
     <use xlink:href="#TimesNewRomanPSMT-2e" x="150"/>
     <use xlink:href="#TimesNewRomanPSMT-33" x="175"/>
    </g>
   </g>
   <g id="text_26">
    <!-- 445.6 -->
    <g transform="translate(256.230397 56.704666) scale(0.18 -0.18)">
     <use xlink:href="#TimesNewRomanPSMT-34"/>
     <use xlink:href="#TimesNewRomanPSMT-34" x="50"/>
     <use xlink:href="#TimesNewRomanPSMT-35" x="100"/>
     <use xlink:href="#TimesNewRomanPSMT-2e" x="150"/>
     <use xlink:href="#TimesNewRomanPSMT-36" x="175"/>
    </g>
   </g>
   <g id="text_27">
    <!-- kN·m -->
    <g transform="translate(212.417686 281.765553) scale(0.22 -0.22)">
     <defs>
      <path id="TimesNewRomanPSMT-6b" d="M 1047 4444 
L 1047 1597 
L 1775 2259 
Q 2006 2472 2044 2528 
Q 2069 2566 2069 2603 
Q 2069 2666 2017 2711 
Q 1966 2756 1847 2763 
L 1847 2863 
L 3091 2863 
L 3091 2763 
Q 2834 2756 2664 2684 
Q 2494 2613 2291 2428 
L 1556 1750 
L 2291 822 
Q 2597 438 2703 334 
Q 2853 188 2966 144 
Q 3044 113 3238 113 
L 3238 0 
L 1847 0 
L 1847 113 
Q 1966 116 2008 148 
Q 2050 181 2050 241 
Q 2050 313 1925 472 
L 1047 1594 
L 1047 644 
Q 1047 366 1086 278 
Q 1125 191 1197 153 
Q 1269 116 1509 113 
L 1509 0 
L 53 0 
L 53 113 
Q 272 113 381 166 
Q 447 200 481 272 
Q 528 375 528 628 
L 528 3234 
Q 528 3731 506 3842 
Q 484 3953 434 3995 
Q 384 4038 303 4038 
Q 238 4038 106 3984 
L 53 4094 
L 903 4444 
L 1047 4444 
z
" transform="scale(0.015625)"/>
      <path id="TimesNewRomanPSMT-4e" d="M -84 4238 
L 1066 4238 
L 3656 1059 
L 3656 3503 
Q 3656 3894 3569 3991 
Q 3453 4122 3203 4122 
L 3056 4122 
L 3056 4238 
L 4531 4238 
L 4531 4122 
L 4381 4122 
Q 4113 4122 4000 3959 
Q 3931 3859 3931 3503 
L 3931 -69 
L 3819 -69 
L 1025 3344 
L 1025 734 
Q 1025 344 1109 247 
Q 1228 116 1475 116 
L 1625 116 
L 1625 0 
L 150 0 
L 150 116 
L 297 116 
Q 569 116 681 278 
Q 750 378 750 734 
L 750 3681 
Q 566 3897 470 3965 
Q 375 4034 191 4094 
Q 100 4122 -84 4122 
L -84 4238 
z
" transform="scale(0.015625)"/>
      <path id="TimesNewRomanPSMT-b7" d="M 1066 2525 
Q 1203 2525 1298 2429 
Q 1394 2334 1394 2197 
Q 1394 2063 1297 1966 
Q 1200 1869 1066 1869 
Q 931 1869 834 1966 
Q 738 2063 738 2197 
Q 738 2334 833 2429 
Q 928 2525 1066 2525 
z
" transform="scale(0.015625)"/>
      <path id="TimesNewRomanPSMT-6d" d="M 1050 2338 
Q 1363 2650 1419 2697 
Q 1559 2816 1721 2881 
Q 1884 2947 2044 2947 
Q 2313 2947 2506 2790 
Q 2700 2634 2766 2338 
Q 3088 2713 3309 2830 
Q 3531 2947 3766 2947 
Q 3994 2947 4170 2830 
Q 4347 2713 4450 2447 
Q 4519 2266 4519 1878 
L 4519 647 
Q 4519 378 4559 278 
Q 4591 209 4675 161 
Q 4759 113 4950 113 
L 4950 0 
L 3538 0 
L 3538 113 
L 3597 113 
Q 3781 113 3884 184 
Q 3956 234 3988 344 
Q 4000 397 4000 647 
L 4000 1878 
Q 4000 2228 3916 2372 
Q 3794 2572 3525 2572 
Q 3359 2572 3192 2489 
Q 3025 2406 2788 2181 
L 2781 2147 
L 2788 2013 
L 2788 647 
Q 2788 353 2820 281 
Q 2853 209 2943 161 
Q 3034 113 3253 113 
L 3253 0 
L 1806 0 
L 1806 113 
Q 2044 113 2133 169 
Q 2222 225 2256 338 
Q 2272 391 2272 647 
L 2272 1878 
Q 2272 2228 2169 2381 
Q 2031 2581 1784 2581 
Q 1616 2581 1450 2491 
Q 1191 2353 1050 2181 
L 1050 647 
Q 1050 366 1089 281 
Q 1128 197 1204 155 
Q 1281 113 1516 113 
L 1516 0 
L 100 0 
L 100 113 
Q 297 113 375 155 
Q 453 197 493 289 
Q 534 381 534 647 
L 534 1741 
Q 534 2213 506 2350 
Q 484 2453 437 2492 
Q 391 2531 309 2531 
Q 222 2531 100 2484 
L 53 2597 
L 916 2947 
L 1050 2947 
L 1050 2338 
z
" transform="scale(0.015625)"/>
     </defs>
     <use xlink:href="#TimesNewRomanPSMT-6b"/>
     <use xlink:href="#TimesNewRomanPSMT-4e" x="50"/>
     <use xlink:href="#TimesNewRomanPSMT-b7" x="122.216797"/>
     <use xlink:href="#TimesNewRomanPSMT-6d" x="155.517578"/>
    </g>
   </g>
   <g id="text_28">
    <!-- kN -->
    <g transform="translate(301.43639 281.765553) scale(0.22 -0.22)">
     <use xlink:href="#TimesNewRomanPSMT-6b"/>
     <use xlink:href="#TimesNewRomanPSMT-4e" x="50"/>
    </g>
   </g>
  </g>
 </g>
 <defs>
  <clipPath id="p5f3bb1398b">
   <rect x="0" y="0" width="552.960794" height="552.960794"/>
  </clipPath>
 </defs>
</svg>
