<?xml version="1.0" encoding="utf-8" standalone="no"?>
<!DOCTYPE svg PUBLIC "-//W3C//DTD SVG 1.1//EN"
  "http://www.w3.org/Graphics/SVG/1.1/DTD/svg11.dtd">
<svg xmlns:xlink="http://www.w3.org/1999/xlink" width="552.088787pt" height="551.255214pt" viewBox="0 0 552.088787 551.255214" xmlns="http://www.w3.org/2000/svg" version="1.1">
 <metadata>
  <rdf:RDF xmlns:dc="http://purl.org/dc/elements/1.1/" xmlns:cc="http://creativecommons.org/ns#" xmlns:rdf="http://www.w3.org/1999/02/22-rdf-syntax-ns#">
   <cc:Work>
    <dc:type rdf:resource="http://purl.org/dc/dcmitype/StillImage"/>
    <dc:date>2026-06-01T14:58:22.996931</dc:date>
    <dc:format>image/svg+xml</dc:format>
    <dc:creator>
     <cc:Agent>
      <dc:title>Matplotlib v3.8.4, https://matplotlib.org/</dc:title>
     </cc:Agent>
    </dc:creator>
   </cc:Work>
  </rdf:RDF>
 </metadata>
 <defs>
  <style type="text/css">*{stroke-linejoin: round; stroke-linecap: butt}</style>
 </defs>
 <g id="figure_1">
  <g id="patch_1">
   <path d="M 0 551.255214 
L 552.088787 551.255214 
L 552.088787 0 
L 0 0 
z
" style="fill: #ffffff"/>
  </g>
  <g id="axes_1">
   <g id="line2d_1">
    <path d="M 441.004172 275.627607 
L 440.922159 270.419989 
L 440.676201 265.217536 
L 440.266544 260.025408 
L 439.693592 254.848755 
L 438.957914 249.69271 
L 438.06024 244.562389 
L 437.00146 239.46288 
L 435.782625 234.399239 
L 434.404943 229.376491 
L 432.86978 224.399615 
L 431.178659 219.473549 
L 429.333258 214.603179 
L 427.335407 209.793335 
L 425.187087 205.048787 
L 422.89043 200.374241 
L 420.447712 195.774334 
L 417.861357 191.253628 
L 415.133931 186.816607 
L 412.268137 182.467671 
L 409.266819 178.211135 
L 406.132953 174.051219 
L 402.869648 169.99205 
L 399.480141 166.037654 
L 395.967792 162.191952 
L 392.336086 158.458759 
L 388.588626 154.841779 
L 384.729126 151.344597 
L 380.761417 147.970684 
L 376.689432 144.723384 
L 372.517211 141.60592 
L 368.248892 138.621382 
L 363.888708 135.772732 
L 359.440983 133.062794 
L 354.910131 130.494256 
L 350.300643 128.069667 
L 345.617092 125.79143 
L 340.864123 123.661805 
L 336.046451 121.682905 
L 331.168853 119.856692 
L 326.236168 118.184978 
L 321.253287 116.66942 
L 316.225154 115.311522 
L 311.156754 114.11263 
L 306.053116 113.073935 
L 300.919301 112.196465 
L 295.7604 111.481091 
L 290.581531 110.928523 
L 285.387831 110.539309 
L 280.18445 110.313835 
L 274.976549 110.252324 
L 269.769294 110.354838 
L 264.56785 110.621275 
L 259.377374 111.05137 
L 254.203017 111.644697 
L 249.049909 112.400667 
L 243.923162 113.318531 
L 238.82786 114.397379 
L 233.769057 115.636139 
L 228.751771 117.033585 
L 223.780978 118.588329 
L 218.861608 120.298829 
L 213.99854 122.16339 
L 209.196598 124.180161 
L 204.460544 126.347142 
L 199.795076 128.662185 
L 195.204822 131.122993 
L 190.694333 133.727125 
L 186.268084 136.471998 
L 181.930464 139.35489 
L 177.685776 142.372942 
L 173.53823 145.523161 
L 169.491939 148.80242 
L 165.550917 152.20747 
L 161.719073 155.734931 
L 158.000207 159.381305 
L 154.398007 163.142977 
L 150.916047 167.016214 
L 147.55778 170.997175 
L 144.326536 175.081912 
L 141.225521 179.266374 
L 138.25781 183.54641 
L 135.426347 187.917775 
L 132.73394 192.376133 
L 130.18326 196.917063 
L 127.776836 201.53606 
L 125.517055 206.228544 
L 123.406158 210.989859 
L 121.44624 215.815285 
L 119.639243 220.700034 
L 117.986961 225.639263 
L 116.491031 230.628071 
L 115.152939 235.661511 
L 113.97401 240.734591 
L 112.955415 245.842279 
L 112.098162 250.979509 
L 111.403104 256.141186 
L 110.870929 261.32219 
L 110.502164 266.517383 
L 110.297177 271.721611 
L 110.256169 276.929714 
L 110.379182 282.136525 
L 110.666094 287.33688 
L 111.116619 292.525621 
L 111.730312 297.697603 
L 112.506564 302.847695 
L 113.444604 307.970789 
L 114.543502 313.061804 
L 115.802169 318.115691 
L 117.219356 323.127437 
L 118.793657 328.092071 
L 120.52351 333.004669 
L 122.407202 337.860358 
L 124.442861 342.654323 
L 126.628471 347.381809 
L 128.961863 352.038127 
L 131.440723 356.618659 
L 134.062592 361.11886 
L 136.824869 365.534269 
L 139.724815 369.860506 
L 142.759555 374.09328 
L 145.926077 378.228392 
L 149.221241 382.261741 
L 152.641778 386.189327 
L 156.184298 390.007255 
L 159.845284 393.711737 
L 163.621108 397.2991 
L 167.508023 400.765785 
L 171.502174 404.108354 
L 175.599601 407.323491 
L 179.796238 410.408009 
L 184.087924 413.358847 
L 188.470402 416.173079 
L 192.939325 418.847913 
L 197.490261 421.380697 
L 202.118696 423.768918 
L 206.82004 426.010208 
L 211.589629 428.102344 
L 216.422733 430.043251 
L 221.314559 431.831003 
L 226.260253 433.463827 
L 231.254912 434.940105 
L 236.293581 436.258372 
L 241.371263 437.417319 
L 246.482922 438.415799 
L 251.623487 439.25282 
L 256.78786 439.927552 
L 261.970919 440.439327 
L 267.167523 440.787636 
L 272.372518 440.972134 
L 277.580742 440.992638 
L 282.787028 440.849127 
L 287.986213 440.541745 
L 293.173141 440.070796 
L 298.342667 439.436746 
L 303.489663 438.640226 
L 308.609024 437.682024 
L 313.695674 436.563092 
L 318.744566 435.284539 
L 323.750694 433.847633 
L 328.709092 432.253799 
L 333.614841 430.504619 
L 338.463078 428.601826 
L 343.248992 426.547309 
L 347.967836 424.343105 
L 352.614932 421.9914 
L 357.185669 419.494527 
L 361.675514 416.854962 
L 366.080014 414.075323 
L 370.394801 411.158368 
L 374.615595 408.106988 
L 378.738209 404.924212 
L 382.758554 401.613195 
L 386.672644 398.177221 
L 390.476596 394.619699 
L 394.166637 390.944157 
L 397.739107 387.15424 
L 401.190463 383.253707 
L 404.517282 379.246427 
L 407.716263 375.136375 
L 410.784236 370.927627 
L 413.718155 366.624358 
L 416.515112 362.230835 
L 419.172332 357.751416 
L 421.68718 353.190544 
L 424.057162 348.552742 
L 426.279926 343.842612 
L 428.353269 339.064823 
L 430.275133 334.224115 
L 432.043613 329.32529 
L 433.656955 324.373205 
L 435.113558 319.372773 
L 436.411978 314.328953 
L 437.550927 309.246748 
L 438.529275 304.131199 
L 439.346052 298.987378 
L 440.000448 293.820389 
L 440.491814 288.635355 
L 440.819662 283.43742 
L 440.983667 278.231739 
L 441.004172 275.627607 
L 441.004172 275.627607 
" clip-path="url(#p7a0138c19e)" style="fill: none; stroke: #000000; stroke-width: 1.5; stroke-linecap: square"/>
   </g>
   <g id="line2d_2">
    <path d="M 275.627607 138.799588 
L 263.664698 138.890935 
L 251.570887 139.195167 
L 239.231663 139.796093 
L 226.563765 140.825808 
L 213.530105 142.459085 
L 200.145284 144.888389 
L 186.485101 148.318915 
L 172.683532 152.943635 
L 158.932044 158.932044 
L 145.46971 166.412164 
L 132.572361 175.459246 
L 120.535012 186.084856 
L 109.66317 198.237119 
L 100.249841 211.795321 
L 92.558607 226.574417 
L 86.814315 242.334729 
L 83.191352 258.791616 
L 81.799178 275.627607 
L 82.682039 292.508157 
L 85.817014 309.096336 
L 91.110333 325.068862 
L 98.409748 340.129633 
L 107.509745 354.022254 
L 118.162258 366.540269 
L 130.095813 377.530067 
L 143.020663 386.898046 
L 156.649405 394.605809 
L 170.704375 400.670246 
L 184.932402 405.153784 
L 199.110478 408.159163 
L 213.053649 409.817893 
L 226.617568 410.281583 
L 239.700308 409.710112 
L 252.240714 408.26127 
L 264.214261 406.082752 
L 275.627607 403.30541 
" clip-path="url(#p7a0138c19e)" style="fill: none; stroke: #000000; stroke-linecap: square"/>
   </g>
   <g id="line2d_3">
    <path d="M 275.627607 110.251043 
L 275.627607 138.799588 
" clip-path="url(#p7a0138c19e)" style="fill: none; stroke: #808080; stroke-width: 0.6; stroke-linecap: square"/>
   </g>
   <g id="line2d_4">
    <path d="M 246.910268 112.763484 
L 251.570887 139.195167 
" clip-path="url(#p7a0138c19e)" style="fill: none; stroke: #808080; stroke-width: 0.6; stroke-linecap: square"/>
   </g>
   <g id="line2d_5">
    <path d="M 219.065491 120.22447 
L 226.563765 140.825808 
" clip-path="url(#p7a0138c19e)" style="fill: none; stroke: #808080; stroke-width: 0.6; stroke-linecap: square"/>
   </g>
   <g id="line2d_6">
    <path d="M 192.939325 132.407301 
L 200.145284 144.888389 
" clip-path="url(#p7a0138c19e)" style="fill: none; stroke: #808080; stroke-width: 0.6; stroke-linecap: square"/>
   </g>
   <g id="line2d_7">
    <path d="M 169.325601 148.941809 
L 172.683532 152.943635 
" clip-path="url(#p7a0138c19e)" style="fill: none; stroke: #808080; stroke-width: 0.6; stroke-linecap: square"/>
   </g>
   <g id="line2d_8">
    <path d="M 148.941809 169.325601 
L 145.46971 166.412164 
" clip-path="url(#p7a0138c19e)" style="fill: none; stroke: #808080; stroke-width: 0.6; stroke-linecap: square"/>
   </g>
   <g id="line2d_9">
    <path d="M 132.407301 192.939325 
L 120.535012 186.084856 
" clip-path="url(#p7a0138c19e)" style="fill: none; stroke: #808080; stroke-width: 0.6; stroke-linecap: square"/>
   </g>
   <g id="line2d_10">
    <path d="M 120.22447 219.065491 
L 100.249841 211.795321 
" clip-path="url(#p7a0138c19e)" style="fill: none; stroke: #808080; stroke-width: 0.6; stroke-linecap: square"/>
   </g>
   <g id="line2d_11">
    <path d="M 112.763484 246.910268 
L 86.814315 242.334729 
" clip-path="url(#p7a0138c19e)" style="fill: none; stroke: #808080; stroke-width: 0.6; stroke-linecap: square"/>
   </g>
   <g id="line2d_12">
    <path d="M 110.251043 275.627607 
L 81.799178 275.627607 
" clip-path="url(#p7a0138c19e)" style="fill: none; stroke: #808080; stroke-width: 0.6; stroke-linecap: square"/>
   </g>
   <g id="line2d_13">
    <path d="M 112.763484 304.344946 
L 85.817014 309.096336 
" clip-path="url(#p7a0138c19e)" style="fill: none; stroke: #808080; stroke-width: 0.6; stroke-linecap: square"/>
   </g>
   <g id="line2d_14">
    <path d="M 120.22447 332.189723 
L 98.409748 340.129633 
" clip-path="url(#p7a0138c19e)" style="fill: none; stroke: #808080; stroke-width: 0.6; stroke-linecap: square"/>
   </g>
   <g id="line2d_15">
    <path d="M 132.407301 358.315889 
L 118.162258 366.540269 
" clip-path="url(#p7a0138c19e)" style="fill: none; stroke: #808080; stroke-width: 0.6; stroke-linecap: square"/>
   </g>
   <g id="line2d_16">
    <path d="M 148.941809 381.929614 
L 143.020663 386.898046 
" clip-path="url(#p7a0138c19e)" style="fill: none; stroke: #808080; stroke-width: 0.6; stroke-linecap: square"/>
   </g>
   <g id="line2d_17">
    <path d="M 169.325601 402.313405 
L 170.704375 400.670246 
" clip-path="url(#p7a0138c19e)" style="fill: none; stroke: #808080; stroke-width: 0.6; stroke-linecap: square"/>
   </g>
   <g id="line2d_18">
    <path d="M 192.939325 418.847913 
L 199.110478 408.159163 
" clip-path="url(#p7a0138c19e)" style="fill: none; stroke: #808080; stroke-width: 0.6; stroke-linecap: square"/>
   </g>
   <g id="line2d_19">
    <path d="M 219.065491 431.030744 
L 226.617568 410.281583 
" clip-path="url(#p7a0138c19e)" style="fill: none; stroke: #808080; stroke-width: 0.6; stroke-linecap: square"/>
   </g>
   <g id="line2d_20">
    <path d="M 246.910268 438.49173 
L 252.240714 408.26127 
" clip-path="url(#p7a0138c19e)" style="fill: none; stroke: #808080; stroke-width: 0.6; stroke-linecap: square"/>
   </g>
   <g id="line2d_21">
    <path d="M 275.627607 441.004172 
L 275.627607 403.30541 
" clip-path="url(#p7a0138c19e)" style="fill: none; stroke: #808080; stroke-width: 0.6; stroke-linecap: square"/>
   </g>
   <g id="line2d_22">
    <path d="M 275.627607 77.935621 
L 292.88145 78.415285 
L 310.145083 79.869276 
L 327.419291 82.338411 
L 344.687422 85.887327 
L 361.908066 90.598567 
L 379.011453 96.561534 
L 395.895337 103.867489 
L 412.424035 112.599973 
L 428.432835 122.822379 
L 443.732994 134.570439 
L 458.114158 147.849149 
L 471.358507 162.62232 
L 483.245089 178.813985 
L 493.561963 196.305989 
L 502.113077 214.941009 
L 508.728408 234.525647 
L 513.270332 254.836563 
L 515.638631 275.627607 
L 515.75728 296.636231 
L 513.595887 317.587836 
L 509.181134 338.208086 
L 502.584934 358.233318 
L 493.912619 377.41558 
L 483.30528 395.530367 
L 470.93108 412.380571 
L 456.978363 427.798959 
L 441.650378 441.650378 
L 425.157058 453.829867 
L 407.712602 464.264529 
L 389.529351 472.911215 
L 370.812801 479.752913 
L 351.758011 484.794173 
L 332.549511 488.063046 
L 313.35676 489.600266 
L 294.33588 489.464149 
L 275.627607 487.720564 
" clip-path="url(#p7a0138c19e)" style="fill: none; stroke: #000000; stroke-linecap: square"/>
   </g>
   <g id="line2d_23">
    <path d="M 275.627607 110.251043 
L 275.627607 77.935621 
" clip-path="url(#p7a0138c19e)" style="fill: none; stroke: #808080; stroke-width: 0.6; stroke-linecap: square"/>
   </g>
   <g id="line2d_24">
    <path d="M 304.344946 112.763484 
L 310.145083 79.869276 
" clip-path="url(#p7a0138c19e)" style="fill: none; stroke: #808080; stroke-width: 0.6; stroke-linecap: square"/>
   </g>
   <g id="line2d_25">
    <path d="M 332.189723 120.22447 
L 344.687422 85.887327 
" clip-path="url(#p7a0138c19e)" style="fill: none; stroke: #808080; stroke-width: 0.6; stroke-linecap: square"/>
   </g>
   <g id="line2d_26">
    <path d="M 358.315889 132.407301 
L 379.011453 96.561534 
" clip-path="url(#p7a0138c19e)" style="fill: none; stroke: #808080; stroke-width: 0.6; stroke-linecap: square"/>
   </g>
   <g id="line2d_27">
    <path d="M 381.929614 148.941809 
L 412.424035 112.599973 
" clip-path="url(#p7a0138c19e)" style="fill: none; stroke: #808080; stroke-width: 0.6; stroke-linecap: square"/>
   </g>
   <g id="line2d_28">
    <path d="M 402.313405 169.325601 
L 443.732994 134.570439 
" clip-path="url(#p7a0138c19e)" style="fill: none; stroke: #808080; stroke-width: 0.6; stroke-linecap: square"/>
   </g>
   <g id="line2d_29">
    <path d="M 418.847913 192.939325 
L 471.358507 162.62232 
" clip-path="url(#p7a0138c19e)" style="fill: none; stroke: #808080; stroke-width: 0.6; stroke-linecap: square"/>
   </g>
   <g id="line2d_30">
    <path d="M 431.030744 219.065491 
L 493.561963 196.305989 
" clip-path="url(#p7a0138c19e)" style="fill: none; stroke: #808080; stroke-width: 0.6; stroke-linecap: square"/>
   </g>
   <g id="line2d_31">
    <path d="M 438.49173 246.910268 
L 508.728408 234.525647 
" clip-path="url(#p7a0138c19e)" style="fill: none; stroke: #808080; stroke-width: 0.6; stroke-linecap: square"/>
   </g>
   <g id="line2d_32">
    <path d="M 441.004172 275.627607 
L 515.638631 275.627607 
" clip-path="url(#p7a0138c19e)" style="fill: none; stroke: #808080; stroke-width: 0.6; stroke-linecap: square"/>
   </g>
   <g id="line2d_33">
    <path d="M 438.49173 304.344946 
L 513.595887 317.587836 
" clip-path="url(#p7a0138c19e)" style="fill: none; stroke: #808080; stroke-width: 0.6; stroke-linecap: square"/>
   </g>
   <g id="line2d_34">
    <path d="M 431.030744 332.189723 
L 502.584934 358.233318 
" clip-path="url(#p7a0138c19e)" style="fill: none; stroke: #808080; stroke-width: 0.6; stroke-linecap: square"/>
   </g>
   <g id="line2d_35">
    <path d="M 418.847913 358.315889 
L 483.30528 395.530367 
" clip-path="url(#p7a0138c19e)" style="fill: none; stroke: #808080; stroke-width: 0.6; stroke-linecap: square"/>
   </g>
   <g id="line2d_36">
    <path d="M 402.313405 381.929614 
L 456.978363 427.798959 
" clip-path="url(#p7a0138c19e)" style="fill: none; stroke: #808080; stroke-width: 0.6; stroke-linecap: square"/>
   </g>
   <g id="line2d_37">
    <path d="M 381.929614 402.313405 
L 425.157058 453.829867 
" clip-path="url(#p7a0138c19e)" style="fill: none; stroke: #808080; stroke-width: 0.6; stroke-linecap: square"/>
   </g>
   <g id="line2d_38">
    <path d="M 358.315889 418.847913 
L 389.529351 472.911215 
" clip-path="url(#p7a0138c19e)" style="fill: none; stroke: #808080; stroke-width: 0.6; stroke-linecap: square"/>
   </g>
   <g id="line2d_39">
    <path d="M 332.189723 431.030744 
L 351.758011 484.794173 
" clip-path="url(#p7a0138c19e)" style="fill: none; stroke: #808080; stroke-width: 0.6; stroke-linecap: square"/>
   </g>
   <g id="line2d_40">
    <path d="M 304.344946 438.49173 
L 313.35676 489.600266 
" clip-path="url(#p7a0138c19e)" style="fill: none; stroke: #808080; stroke-width: 0.6; stroke-linecap: square"/>
   </g>
   <g id="line2d_41">
    <path d="M 275.627607 441.004172 
L 275.627607 487.720564 
" clip-path="url(#p7a0138c19e)" style="fill: none; stroke: #808080; stroke-width: 0.6; stroke-linecap: square"/>
   </g>
   <g id="text_1">
    <!-- 174.2 -->
    <g transform="translate(255.377607 154.148911) scale(0.18 -0.18)">
     <defs>
      <path id="TimesNewRomanPSMT-31" d="M 750 3822 
L 1781 4325 
L 1884 4325 
L 1884 747 
Q 1884 391 1914 303 
Q 1944 216 2037 169 
Q 2131 122 2419 116 
L 2419 0 
L 825 0 
L 825 116 
Q 1125 122 1212 167 
Q 1300 213 1334 289 
Q 1369 366 1369 747 
L 1369 3034 
Q 1369 3497 1338 3628 
Q 1316 3728 1258 3775 
Q 1200 3822 1119 3822 
Q 1003 3822 797 3725 
L 750 3822 
z
" transform="scale(0.015625)"/>
      <path id="TimesNewRomanPSMT-37" d="M 644 4238 
L 2916 4238 
L 2916 4119 
L 1503 -88 
L 1153 -88 
L 2419 3728 
L 1253 3728 
Q 900 3728 750 3644 
Q 488 3500 328 3200 
L 238 3234 
L 644 4238 
z
" transform="scale(0.015625)"/>
      <path id="TimesNewRomanPSMT-34" d="M 2978 1563 
L 2978 1119 
L 2409 1119 
L 2409 0 
L 1894 0 
L 1894 1119 
L 100 1119 
L 100 1519 
L 2066 4325 
L 2409 4325 
L 2409 1563 
L 2978 1563 
z
M 1894 1563 
L 1894 3666 
L 406 1563 
L 1894 1563 
z
" transform="scale(0.015625)"/>
      <path id="TimesNewRomanPSMT-2e" d="M 800 606 
Q 947 606 1047 504 
Q 1147 403 1147 259 
Q 1147 116 1045 14 
Q 944 -88 800 -88 
Q 656 -88 554 14 
Q 453 116 453 259 
Q 453 406 554 506 
Q 656 606 800 606 
z
" transform="scale(0.015625)"/>
      <path id="TimesNewRomanPSMT-32" d="M 2934 816 
L 2638 0 
L 138 0 
L 138 116 
Q 1241 1122 1691 1759 
Q 2141 2397 2141 2925 
Q 2141 3328 1894 3587 
Q 1647 3847 1303 3847 
Q 991 3847 742 3664 
Q 494 3481 375 3128 
L 259 3128 
Q 338 3706 661 4015 
Q 984 4325 1469 4325 
Q 1984 4325 2329 3994 
Q 2675 3663 2675 3213 
Q 2675 2891 2525 2569 
Q 2294 2063 1775 1497 
Q 997 647 803 472 
L 1909 472 
Q 2247 472 2383 497 
Q 2519 522 2628 598 
Q 2738 675 2819 816 
L 2934 816 
z
" transform="scale(0.015625)"/>
     </defs>
     <use xlink:href="#TimesNewRomanPSMT-31"/>
     <use xlink:href="#TimesNewRomanPSMT-37" x="50"/>
     <use xlink:href="#TimesNewRomanPSMT-34" x="100"/>
     <use xlink:href="#TimesNewRomanPSMT-2e" x="150"/>
     <use xlink:href="#TimesNewRomanPSMT-32" x="175"/>
    </g>
   </g>
   <g id="text_2">
    <!-- 151.1 -->
    <g transform="translate(221.83517 154.769745) scale(0.18 -0.18)">
     <defs>
      <path id="TimesNewRomanPSMT-35" d="M 2778 4238 
L 2534 3706 
L 1259 3706 
L 981 3138 
Q 1809 3016 2294 2522 
Q 2709 2097 2709 1522 
Q 2709 1188 2573 903 
Q 2438 619 2231 419 
Q 2025 219 1772 97 
Q 1413 -75 1034 -75 
Q 653 -75 479 54 
Q 306 184 306 341 
Q 306 428 378 495 
Q 450 563 559 563 
Q 641 563 702 538 
Q 763 513 909 409 
Q 1144 247 1384 247 
Q 1750 247 2026 523 
Q 2303 800 2303 1197 
Q 2303 1581 2056 1914 
Q 1809 2247 1375 2428 
Q 1034 2569 447 2591 
L 1259 4238 
L 2778 4238 
z
" transform="scale(0.015625)"/>
     </defs>
     <use xlink:href="#TimesNewRomanPSMT-31"/>
     <use xlink:href="#TimesNewRomanPSMT-35" x="50"/>
     <use xlink:href="#TimesNewRomanPSMT-31" x="100"/>
     <use xlink:href="#TimesNewRomanPSMT-2e" x="150"/>
     <use xlink:href="#TimesNewRomanPSMT-31" x="175"/>
    </g>
   </g>
   <g id="text_3">
    <!-- 88.0 -->
    <g transform="translate(189.907837 158.760628) scale(0.18 -0.18)">
     <defs>
      <path id="TimesNewRomanPSMT-38" d="M 1228 2134 
Q 725 2547 579 2797 
Q 434 3047 434 3316 
Q 434 3728 753 4026 
Q 1072 4325 1600 4325 
Q 2113 4325 2425 4047 
Q 2738 3769 2738 3413 
Q 2738 3175 2569 2928 
Q 2400 2681 1866 2347 
Q 2416 1922 2594 1678 
Q 2831 1359 2831 1006 
Q 2831 559 2490 242 
Q 2150 -75 1597 -75 
Q 994 -75 656 303 
Q 388 606 388 966 
Q 388 1247 577 1523 
Q 766 1800 1228 2134 
z
M 1719 2469 
Q 2094 2806 2194 3001 
Q 2294 3197 2294 3444 
Q 2294 3772 2109 3958 
Q 1925 4144 1606 4144 
Q 1288 4144 1088 3959 
Q 888 3775 888 3528 
Q 888 3366 970 3203 
Q 1053 3041 1206 2894 
L 1719 2469 
z
M 1375 2016 
Q 1116 1797 991 1539 
Q 866 1281 866 981 
Q 866 578 1086 336 
Q 1306 94 1647 94 
Q 1984 94 2187 284 
Q 2391 475 2391 747 
Q 2391 972 2272 1150 
Q 2050 1481 1375 2016 
z
" transform="scale(0.015625)"/>
      <path id="TimesNewRomanPSMT-30" d="M 231 2094 
Q 231 2819 450 3342 
Q 669 3866 1031 4122 
Q 1313 4325 1613 4325 
Q 2100 4325 2488 3828 
Q 2972 3213 2972 2159 
Q 2972 1422 2759 906 
Q 2547 391 2217 158 
Q 1888 -75 1581 -75 
Q 975 -75 572 641 
Q 231 1244 231 2094 
z
M 844 2016 
Q 844 1141 1059 588 
Q 1238 122 1591 122 
Q 1759 122 1940 273 
Q 2122 425 2216 781 
Q 2359 1319 2359 2297 
Q 2359 3022 2209 3506 
Q 2097 3866 1919 4016 
Q 1791 4119 1609 4119 
Q 1397 4119 1231 3928 
Q 1006 3669 925 3112 
Q 844 2556 844 2016 
z
" transform="scale(0.015625)"/>
     </defs>
     <use xlink:href="#TimesNewRomanPSMT-38"/>
     <use xlink:href="#TimesNewRomanPSMT-38" x="50"/>
     <use xlink:href="#TimesNewRomanPSMT-2e" x="100"/>
     <use xlink:href="#TimesNewRomanPSMT-30" x="125"/>
    </g>
   </g>
   <g id="text_4">
    <!-- 2.1 -->
    <g transform="translate(155.47797 171.052189) scale(0.18 -0.18)">
     <use xlink:href="#TimesNewRomanPSMT-32"/>
     <use xlink:href="#TimesNewRomanPSMT-2e" x="50"/>
     <use xlink:href="#TimesNewRomanPSMT-31" x="75"/>
    </g>
   </g>
   <g id="text_5">
    <!-- -83.7 -->
    <g transform="translate(92.240273 184.896522) scale(0.18 -0.18)">
     <defs>
      <path id="TimesNewRomanPSMT-2d" d="M 259 1672 
L 1875 1672 
L 1875 1200 
L 259 1200 
L 259 1672 
z
" transform="scale(0.015625)"/>
      <path id="TimesNewRomanPSMT-33" d="M 325 3431 
Q 506 3859 782 4092 
Q 1059 4325 1472 4325 
Q 1981 4325 2253 3994 
Q 2459 3747 2459 3466 
Q 2459 3003 1878 2509 
Q 2269 2356 2469 2072 
Q 2669 1788 2669 1403 
Q 2669 853 2319 450 
Q 1863 -75 997 -75 
Q 569 -75 414 31 
Q 259 138 259 259 
Q 259 350 332 419 
Q 406 488 509 488 
Q 588 488 669 463 
Q 722 447 909 348 
Q 1097 250 1169 231 
Q 1284 197 1416 197 
Q 1734 197 1970 444 
Q 2206 691 2206 1028 
Q 2206 1275 2097 1509 
Q 2016 1684 1919 1775 
Q 1784 1900 1550 2001 
Q 1316 2103 1072 2103 
L 972 2103 
L 972 2197 
Q 1219 2228 1467 2375 
Q 1716 2522 1828 2728 
Q 1941 2934 1941 3181 
Q 1941 3503 1739 3701 
Q 1538 3900 1238 3900 
Q 753 3900 428 3381 
L 325 3431 
z
" transform="scale(0.015625)"/>
     </defs>
     <use xlink:href="#TimesNewRomanPSMT-2d"/>
     <use xlink:href="#TimesNewRomanPSMT-38" x="33.300781"/>
     <use xlink:href="#TimesNewRomanPSMT-33" x="83.300781"/>
     <use xlink:href="#TimesNewRomanPSMT-2e" x="133.300781"/>
     <use xlink:href="#TimesNewRomanPSMT-37" x="158.300781"/>
    </g>
   </g>
   <g id="text_6">
    <!-- -147.4 -->
    <g transform="translate(58.662456 228.045128) scale(0.18 -0.18)">
     <use xlink:href="#TimesNewRomanPSMT-2d"/>
     <use xlink:href="#TimesNewRomanPSMT-31" x="33.300781"/>
     <use xlink:href="#TimesNewRomanPSMT-34" x="83.300781"/>
     <use xlink:href="#TimesNewRomanPSMT-37" x="133.300781"/>
     <use xlink:href="#TimesNewRomanPSMT-2e" x="183.300781"/>
     <use xlink:href="#TimesNewRomanPSMT-34" x="208.300781"/>
    </g>
   </g>
   <g id="text_7">
    <!-- -173.6 -->
    <g transform="translate(47.527355 279.951826) scale(0.18 -0.18)">
     <defs>
      <path id="TimesNewRomanPSMT-36" d="M 2869 4325 
L 2869 4209 
Q 2456 4169 2195 4045 
Q 1934 3922 1679 3669 
Q 1425 3416 1258 3105 
Q 1091 2794 978 2366 
Q 1428 2675 1881 2675 
Q 2316 2675 2634 2325 
Q 2953 1975 2953 1425 
Q 2953 894 2631 456 
Q 2244 -75 1606 -75 
Q 1172 -75 869 213 
Q 275 772 275 1663 
Q 275 2231 503 2743 
Q 731 3256 1154 3653 
Q 1578 4050 1965 4187 
Q 2353 4325 2688 4325 
L 2869 4325 
z
M 925 2138 
Q 869 1716 869 1456 
Q 869 1156 980 804 
Q 1091 453 1309 247 
Q 1469 100 1697 100 
Q 1969 100 2183 356 
Q 2397 613 2397 1088 
Q 2397 1622 2184 2012 
Q 1972 2403 1581 2403 
Q 1463 2403 1327 2353 
Q 1191 2303 925 2138 
z
" transform="scale(0.015625)"/>
     </defs>
     <use xlink:href="#TimesNewRomanPSMT-2d"/>
     <use xlink:href="#TimesNewRomanPSMT-31" x="33.300781"/>
     <use xlink:href="#TimesNewRomanPSMT-37" x="83.300781"/>
     <use xlink:href="#TimesNewRomanPSMT-33" x="133.300781"/>
     <use xlink:href="#TimesNewRomanPSMT-2e" x="183.300781"/>
     <use xlink:href="#TimesNewRomanPSMT-36" x="208.300781"/>
    </g>
   </g>
   <g id="text_8">
    <!-- -156.5 -->
    <g transform="translate(57.214181 332.246588) scale(0.18 -0.18)">
     <use xlink:href="#TimesNewRomanPSMT-2d"/>
     <use xlink:href="#TimesNewRomanPSMT-31" x="33.300781"/>
     <use xlink:href="#TimesNewRomanPSMT-35" x="83.300781"/>
     <use xlink:href="#TimesNewRomanPSMT-36" x="133.300781"/>
     <use xlink:href="#TimesNewRomanPSMT-2e" x="183.300781"/>
     <use xlink:href="#TimesNewRomanPSMT-35" x="208.300781"/>
    </g>
   </g>
   <g id="text_9">
    <!-- -100.4 -->
    <g transform="translate(85.367518 376.37704) scale(0.18 -0.18)">
     <use xlink:href="#TimesNewRomanPSMT-2d"/>
     <use xlink:href="#TimesNewRomanPSMT-31" x="33.300781"/>
     <use xlink:href="#TimesNewRomanPSMT-30" x="83.300781"/>
     <use xlink:href="#TimesNewRomanPSMT-30" x="133.300781"/>
     <use xlink:href="#TimesNewRomanPSMT-2e" x="183.300781"/>
     <use xlink:href="#TimesNewRomanPSMT-34" x="208.300781"/>
    </g>
   </g>
   <g id="text_10">
    <!-- -17.6 -->
    <g transform="translate(130.106761 406.725954) scale(0.18 -0.18)">
     <use xlink:href="#TimesNewRomanPSMT-2d"/>
     <use xlink:href="#TimesNewRomanPSMT-31" x="33.300781"/>
     <use xlink:href="#TimesNewRomanPSMT-37" x="83.300781"/>
     <use xlink:href="#TimesNewRomanPSMT-2e" x="133.300781"/>
     <use xlink:href="#TimesNewRomanPSMT-36" x="158.300781"/>
    </g>
   </g>
   <g id="text_11">
    <!-- 75.3 -->
    <g transform="translate(188.87303 402.935362) scale(0.18 -0.18)">
     <use xlink:href="#TimesNewRomanPSMT-37"/>
     <use xlink:href="#TimesNewRomanPSMT-35" x="50"/>
     <use xlink:href="#TimesNewRomanPSMT-2e" x="100"/>
     <use xlink:href="#TimesNewRomanPSMT-33" x="125"/>
    </g>
   </g>
   <g id="text_12">
    <!-- 162.1 -->
    <g transform="translate(222.303815 403.384898) scale(0.18 -0.18)">
     <use xlink:href="#TimesNewRomanPSMT-31"/>
     <use xlink:href="#TimesNewRomanPSMT-36" x="50"/>
     <use xlink:href="#TimesNewRomanPSMT-32" x="100"/>
     <use xlink:href="#TimesNewRomanPSMT-2e" x="150"/>
     <use xlink:href="#TimesNewRomanPSMT-31" x="175"/>
    </g>
   </g>
   <g id="text_13">
    <!-- 230.1 -->
    <g transform="translate(255.377607 396.604525) scale(0.18 -0.18)">
     <use xlink:href="#TimesNewRomanPSMT-32"/>
     <use xlink:href="#TimesNewRomanPSMT-33" x="50"/>
     <use xlink:href="#TimesNewRomanPSMT-30" x="100"/>
     <use xlink:href="#TimesNewRomanPSMT-2e" x="150"/>
     <use xlink:href="#TimesNewRomanPSMT-31" x="175"/>
    </g>
   </g>
   <g id="text_14">
    <!-- 308.2 -->
    <g transform="translate(255.377607 65.722183) scale(0.18 -0.18)">
     <use xlink:href="#TimesNewRomanPSMT-33"/>
     <use xlink:href="#TimesNewRomanPSMT-30" x="50"/>
     <use xlink:href="#TimesNewRomanPSMT-38" x="100"/>
     <use xlink:href="#TimesNewRomanPSMT-2e" x="150"/>
     <use xlink:href="#TimesNewRomanPSMT-32" x="175"/>
    </g>
   </g>
   <g id="text_15">
    <!-- 331.2 -->
    <g transform="translate(311.449552 70.688481) scale(0.18 -0.18)">
     <use xlink:href="#TimesNewRomanPSMT-33"/>
     <use xlink:href="#TimesNewRomanPSMT-33" x="50"/>
     <use xlink:href="#TimesNewRomanPSMT-31" x="100"/>
     <use xlink:href="#TimesNewRomanPSMT-2e" x="150"/>
     <use xlink:href="#TimesNewRomanPSMT-32" x="175"/>
    </g>
   </g>
   <g id="text_16">
    <!-- 394.8 -->
    <g transform="translate(367.030281 86.563723) scale(0.18 -0.18)">
     <defs>
      <path id="TimesNewRomanPSMT-39" d="M 338 -88 
L 338 28 
Q 744 34 1094 217 
Q 1444 400 1770 856 
Q 2097 1313 2225 1859 
Q 1734 1544 1338 1544 
Q 891 1544 572 1889 
Q 253 2234 253 2806 
Q 253 3363 572 3797 
Q 956 4325 1575 4325 
Q 2097 4325 2469 3894 
Q 2925 3359 2925 2575 
Q 2925 1869 2578 1258 
Q 2231 647 1613 244 
Q 1109 -88 516 -88 
L 338 -88 
z
M 2275 2091 
Q 2331 2497 2331 2741 
Q 2331 3044 2228 3395 
Q 2125 3747 1936 3934 
Q 1747 4122 1506 4122 
Q 1228 4122 1018 3872 
Q 809 3622 809 3128 
Q 809 2469 1088 2097 
Q 1291 1828 1588 1828 
Q 1731 1828 1928 1897 
Q 2125 1966 2275 2091 
z
" transform="scale(0.015625)"/>
     </defs>
     <use xlink:href="#TimesNewRomanPSMT-33"/>
     <use xlink:href="#TimesNewRomanPSMT-39" x="50"/>
     <use xlink:href="#TimesNewRomanPSMT-34" x="100"/>
     <use xlink:href="#TimesNewRomanPSMT-2e" x="150"/>
     <use xlink:href="#TimesNewRomanPSMT-38" x="175"/>
    </g>
   </g>
   <g id="text_17">
    <!-- 483.8 -->
    <g transform="translate(419.876724 115.452709) scale(0.18 -0.18)">
     <use xlink:href="#TimesNewRomanPSMT-34"/>
     <use xlink:href="#TimesNewRomanPSMT-38" x="50"/>
     <use xlink:href="#TimesNewRomanPSMT-33" x="100"/>
     <use xlink:href="#TimesNewRomanPSMT-2e" x="150"/>
     <use xlink:href="#TimesNewRomanPSMT-38" x="175"/>
    </g>
   </g>
   <g id="text_18">
    <!-- 578.3 -->
    <g transform="translate(465.430537 158.67771) scale(0.18 -0.18)">
     <use xlink:href="#TimesNewRomanPSMT-35"/>
     <use xlink:href="#TimesNewRomanPSMT-37" x="50"/>
     <use xlink:href="#TimesNewRomanPSMT-38" x="100"/>
     <use xlink:href="#TimesNewRomanPSMT-2e" x="150"/>
     <use xlink:href="#TimesNewRomanPSMT-33" x="175"/>
    </g>
   </g>
   <g id="text_19">
    <!-- 659.0 -->
    <g transform="translate(497.837226 214.984967) scale(0.18 -0.18)">
     <use xlink:href="#TimesNewRomanPSMT-36"/>
     <use xlink:href="#TimesNewRomanPSMT-35" x="50"/>
     <use xlink:href="#TimesNewRomanPSMT-39" x="100"/>
     <use xlink:href="#TimesNewRomanPSMT-2e" x="150"/>
     <use xlink:href="#TimesNewRomanPSMT-30" x="175"/>
    </g>
   </g>
   <g id="text_20">
    <!-- 711.8 -->
    <g transform="translate(512.263787 279.951826) scale(0.18 -0.18)">
     <use xlink:href="#TimesNewRomanPSMT-37"/>
     <use xlink:href="#TimesNewRomanPSMT-31" x="50"/>
     <use xlink:href="#TimesNewRomanPSMT-31" x="96.25"/>
     <use xlink:href="#TimesNewRomanPSMT-2e" x="146.25"/>
     <use xlink:href="#TimesNewRomanPSMT-38" x="171.25"/>
    </g>
   </g>
   <g id="text_21">
    <!-- 728.8 -->
    <g transform="translate(504.905284 346.812565) scale(0.18 -0.18)">
     <use xlink:href="#TimesNewRomanPSMT-37"/>
     <use xlink:href="#TimesNewRomanPSMT-32" x="50"/>
     <use xlink:href="#TimesNewRomanPSMT-38" x="100"/>
     <use xlink:href="#TimesNewRomanPSMT-2e" x="150"/>
     <use xlink:href="#TimesNewRomanPSMT-38" x="175"/>
    </g>
   </g>
   <g id="text_22">
    <!-- 709.9 -->
    <g transform="translate(477.37731 408.123414) scale(0.18 -0.18)">
     <use xlink:href="#TimesNewRomanPSMT-37"/>
     <use xlink:href="#TimesNewRomanPSMT-30" x="50"/>
     <use xlink:href="#TimesNewRomanPSMT-39" x="100"/>
     <use xlink:href="#TimesNewRomanPSMT-2e" x="150"/>
     <use xlink:href="#TimesNewRomanPSMT-39" x="175"/>
    </g>
   </g>
   <g id="text_23">
    <!-- 662.0 -->
    <g transform="translate(433.094267 457.668486) scale(0.18 -0.18)">
     <use xlink:href="#TimesNewRomanPSMT-36"/>
     <use xlink:href="#TimesNewRomanPSMT-36" x="50"/>
     <use xlink:href="#TimesNewRomanPSMT-32" x="100"/>
     <use xlink:href="#TimesNewRomanPSMT-2e" x="150"/>
     <use xlink:href="#TimesNewRomanPSMT-30" x="175"/>
    </g>
   </g>
   <g id="text_24">
    <!-- 595.4 -->
    <g transform="translate(377.548179 491.557464) scale(0.18 -0.18)">
     <use xlink:href="#TimesNewRomanPSMT-35"/>
     <use xlink:href="#TimesNewRomanPSMT-39" x="50"/>
     <use xlink:href="#TimesNewRomanPSMT-35" x="100"/>
     <use xlink:href="#TimesNewRomanPSMT-2e" x="150"/>
     <use xlink:href="#TimesNewRomanPSMT-34" x="175"/>
    </g>
   </g>
   <g id="text_25">
    <!-- 520.3 -->
    <g transform="translate(316.579772 508.361414) scale(0.18 -0.18)">
     <use xlink:href="#TimesNewRomanPSMT-35"/>
     <use xlink:href="#TimesNewRomanPSMT-32" x="50"/>
     <use xlink:href="#TimesNewRomanPSMT-30" x="100"/>
     <use xlink:href="#TimesNewRomanPSMT-2e" x="150"/>
     <use xlink:href="#TimesNewRomanPSMT-33" x="175"/>
    </g>
   </g>
   <g id="text_26">
    <!-- 445.6 -->
    <g transform="translate(255.377607 508.582439) scale(0.18 -0.18)">
     <use xlink:href="#TimesNewRomanPSMT-34"/>
     <use xlink:href="#TimesNewRomanPSMT-34" x="50"/>
     <use xlink:href="#TimesNewRomanPSMT-35" x="100"/>
     <use xlink:href="#TimesNewRomanPSMT-2e" x="150"/>
     <use xlink:href="#TimesNewRomanPSMT-36" x="175"/>
    </g>
   </g>
   <g id="text_27">
    <!-- kN·m -->
    <g transform="translate(208.62081 280.912763) scale(0.22 -0.22)">
     <defs>
      <path id="TimesNewRomanPSMT-6b" d="M 1047 4444 
L 1047 1597 
L 1775 2259 
Q 2006 2472 2044 2528 
Q 2069 2566 2069 2603 
Q 2069 2666 2017 2711 
Q 1966 2756 1847 2763 
L 1847 2863 
L 3091 2863 
L 3091 2763 
Q 2834 2756 2664 2684 
Q 2494 2613 2291 2428 
L 1556 1750 
L 2291 822 
Q 2597 438 2703 334 
Q 2853 188 2966 144 
Q 3044 113 3238 113 
L 3238 0 
L 1847 0 
L 1847 113 
Q 1966 116 2008 148 
Q 2050 181 2050 241 
Q 2050 313 1925 472 
L 1047 1594 
L 1047 644 
Q 1047 366 1086 278 
Q 1125 191 1197 153 
Q 1269 116 1509 113 
L 1509 0 
L 53 0 
L 53 113 
Q 272 113 381 166 
Q 447 200 481 272 
Q 528 375 528 628 
L 528 3234 
Q 528 3731 506 3842 
Q 484 3953 434 3995 
Q 384 4038 303 4038 
Q 238 4038 106 3984 
L 53 4094 
L 903 4444 
L 1047 4444 
z
" transform="scale(0.015625)"/>
      <path id="TimesNewRomanPSMT-4e" d="M -84 4238 
L 1066 4238 
L 3656 1059 
L 3656 3503 
Q 3656 3894 3569 3991 
Q 3453 4122 3203 4122 
L 3056 4122 
L 3056 4238 
L 4531 4238 
L 4531 4122 
L 4381 4122 
Q 4113 4122 4000 3959 
Q 3931 3859 3931 3503 
L 3931 -69 
L 3819 -69 
L 1025 3344 
L 1025 734 
Q 1025 344 1109 247 
Q 1228 116 1475 116 
L 1625 116 
L 1625 0 
L 150 0 
L 150 116 
L 297 116 
Q 569 116 681 278 
Q 750 378 750 734 
L 750 3681 
Q 566 3897 470 3965 
Q 375 4034 191 4094 
Q 100 4122 -84 4122 
L -84 4238 
z
" transform="scale(0.015625)"/>
      <path id="TimesNewRomanPSMT-b7" d="M 1066 2525 
Q 1203 2525 1298 2429 
Q 1394 2334 1394 2197 
Q 1394 2063 1297 1966 
Q 1200 1869 1066 1869 
Q 931 1869 834 1966 
Q 738 2063 738 2197 
Q 738 2334 833 2429 
Q 928 2525 1066 2525 
z
" transform="scale(0.015625)"/>
      <path id="TimesNewRomanPSMT-6d" d="M 1050 2338 
Q 1363 2650 1419 2697 
Q 1559 2816 1721 2881 
Q 1884 2947 2044 2947 
Q 2313 2947 2506 2790 
Q 2700 2634 2766 2338 
Q 3088 2713 3309 2830 
Q 3531 2947 3766 2947 
Q 3994 2947 4170 2830 
Q 4347 2713 4450 2447 
Q 4519 2266 4519 1878 
L 4519 647 
Q 4519 378 4559 278 
Q 4591 209 4675 161 
Q 4759 113 4950 113 
L 4950 0 
L 3538 0 
L 3538 113 
L 3597 113 
Q 3781 113 3884 184 
Q 3956 234 3988 344 
Q 4000 397 4000 647 
L 4000 1878 
Q 4000 2228 3916 2372 
Q 3794 2572 3525 2572 
Q 3359 2572 3192 2489 
Q 3025 2406 2788 2181 
L 2781 2147 
L 2788 2013 
L 2788 647 
Q 2788 353 2820 281 
Q 2853 209 2943 161 
Q 3034 113 3253 113 
L 3253 0 
L 1806 0 
L 1806 113 
Q 2044 113 2133 169 
Q 2222 225 2256 338 
Q 2272 391 2272 647 
L 2272 1878 
Q 2272 2228 2169 2381 
Q 2031 2581 1784 2581 
Q 1616 2581 1450 2491 
Q 1191 2353 1050 2181 
L 1050 647 
Q 1050 366 1089 281 
Q 1128 197 1204 155 
Q 1281 113 1516 113 
L 1516 0 
L 100 0 
L 100 113 
Q 297 113 375 155 
Q 453 197 493 289 
Q 534 381 534 647 
L 534 1741 
Q 534 2213 506 2350 
Q 484 2453 437 2492 
Q 391 2531 309 2531 
Q 222 2531 100 2484 
L 53 2597 
L 916 2947 
L 1050 2947 
L 1050 2338 
z
" transform="scale(0.015625)"/>
     </defs>
     <use xlink:href="#TimesNewRomanPSMT-6b"/>
     <use xlink:href="#TimesNewRomanPSMT-4e" x="50"/>
     <use xlink:href="#TimesNewRomanPSMT-b7" x="122.216797"/>
     <use xlink:href="#TimesNewRomanPSMT-6d" x="155.517578"/>
    </g>
   </g>
   <g id="text_28">
    <!-- kN -->
    <g transform="translate(303.527686 280.912763) scale(0.22 -0.22)">
     <use xlink:href="#TimesNewRomanPSMT-6b"/>
     <use xlink:href="#TimesNewRomanPSMT-4e" x="50"/>
    </g>
   </g>
  </g>
 </g>
 <defs>
  <clipPath id="p7a0138c19e">
   <rect x="0" y="0" width="551.255214" height="551.255214"/>
  </clipPath>
 </defs>
</svg>
