<?xml version="1.0" encoding="utf-8" standalone="no"?>
<!DOCTYPE svg PUBLIC "-//W3C//DTD SVG 1.1//EN"
  "http://www.w3.org/Graphics/SVG/1.1/DTD/svg11.dtd">
<svg xmlns:xlink="http://www.w3.org/1999/xlink" width="554.4pt" height="554.4pt" viewBox="0 0 554.4 554.4" xmlns="http://www.w3.org/2000/svg" version="1.1">
 <metadata>
  <rdf:RDF xmlns:dc="http://purl.org/dc/elements/1.1/" xmlns:cc="http://creativecommons.org/ns#" xmlns:rdf="http://www.w3.org/1999/02/22-rdf-syntax-ns#">
   <cc:Work>
    <dc:type rdf:resource="http://purl.org/dc/dcmitype/StillImage"/>
    <dc:date>2026-05-30T14:44:58.225503</dc:date>
    <dc:format>image/svg+xml</dc:format>
    <dc:creator>
     <cc:Agent>
      <dc:title>Matplotlib v3.8.4, https://matplotlib.org/</dc:title>
     </cc:Agent>
    </dc:creator>
   </cc:Work>
  </rdf:RDF>
 </metadata>
 <defs>
  <style type="text/css">*{stroke-linejoin: round; stroke-linecap: butt}</style>
 </defs>
 <g id="figure_1">
  <g id="patch_1">
   <path d="M 0 554.4 
L 554.4 554.4 
L 554.4 0 
L 0 0 
z
" style="fill: #ffffff"/>
  </g>
  <g id="axes_1">
   <g id="line2d_1">
    <path d="M 431.2 277.2 
L 431.123629 272.350624 
L 430.894592 267.506057 
L 430.513115 262.671105 
L 429.979578 257.850564 
L 429.294508 253.049213 
L 428.458587 248.271817 
L 427.472643 243.523112 
L 426.337653 238.807809 
L 425.054744 234.130585 
L 423.625188 229.496078 
L 422.050403 224.908885 
L 420.331951 220.373557 
L 418.471536 215.894591 
L 416.471003 211.476429 
L 414.332336 207.123454 
L 412.057658 202.839983 
L 409.649223 198.630265 
L 407.109421 194.498475 
L 404.440771 190.448711 
L 401.64592 186.48499 
L 398.727638 182.611242 
L 395.688822 178.831311 
L 392.532485 175.148945 
L 389.261758 171.567796 
L 385.879884 168.091417 
L 382.390218 164.723255 
L 378.796221 161.466652 
L 375.101457 158.324836 
L 371.309592 155.300924 
L 367.424386 152.397916 
L 363.449692 149.61869 
L 359.389454 146.966004 
L 355.247697 144.442488 
L 351.02853 142.050645 
L 346.736137 139.792847 
L 342.374777 137.671334 
L 337.948773 135.688211 
L 333.462518 133.845443 
L 328.920459 132.144858 
L 324.327103 130.588144 
L 319.687004 129.176845 
L 315.004765 127.912359 
L 310.28503 126.795942 
L 305.532481 125.8287 
L 300.75183 125.011593 
L 295.94782 124.345431 
L 291.125216 123.830875 
L 286.288799 123.468436 
L 281.443369 123.258473 
L 276.593729 123.201193 
L 271.744691 123.296655 
L 266.901064 123.544763 
L 262.067651 123.945271 
L 257.249247 124.497782 
L 252.450631 125.201748 
L 247.676563 126.05647 
L 242.931776 127.061102 
L 238.220978 128.214646 
L 233.54884 129.515958 
L 228.919997 130.963748 
L 224.33904 132.55658 
L 219.810512 134.292874 
L 215.338905 136.170908 
L 210.928653 138.188819 
L 206.584131 140.344605 
L 202.309649 142.636129 
L 198.109445 145.061118 
L 193.987686 147.617166 
L 189.948459 150.301739 
L 185.995771 153.112174 
L 182.133542 156.045682 
L 178.365604 159.099356 
L 174.695692 162.270165 
L 171.127448 165.554966 
L 167.664409 168.950499 
L 164.310012 172.453398 
L 161.067582 176.060188 
L 157.940336 179.767292 
L 154.931376 183.571032 
L 152.043686 187.467637 
L 149.280129 191.453241 
L 146.643448 195.523891 
L 144.136257 199.675551 
L 141.761042 203.904101 
L 139.520161 208.205349 
L 137.415834 212.575028 
L 135.45015 217.008804 
L 133.625058 221.50228 
L 131.942368 226.050998 
L 130.403749 230.650448 
L 129.010728 235.296066 
L 127.764685 239.983247 
L 126.666857 244.70734 
L 125.718333 249.463661 
L 124.920053 254.247491 
L 124.272809 259.054086 
L 123.777243 263.878679 
L 123.433846 268.716485 
L 123.24296 273.562705 
L 123.204774 278.412532 
L 123.319324 283.261157 
L 123.586499 288.10377 
L 124.006032 292.935568 
L 124.577508 297.751759 
L 125.300359 302.547567 
L 126.17387 307.318234 
L 127.197173 312.059029 
L 128.369254 316.765249 
L 129.688949 321.432227 
L 131.154951 326.055335 
L 132.765805 330.629986 
L 134.519914 335.151643 
L 136.415537 339.615823 
L 138.450794 344.018096 
L 140.623668 348.354097 
L 142.932002 352.619525 
L 145.373508 356.810149 
L 147.945763 360.921814 
L 150.646216 364.950441 
L 153.47219 368.892034 
L 156.420881 372.742684 
L 159.489365 376.498572 
L 162.674597 380.155972 
L 165.97342 383.711257 
L 169.382561 387.160901 
L 172.898638 390.501482 
L 176.518165 393.729687 
L 180.237551 396.842315 
L 184.053108 399.836277 
L 187.961051 402.708605 
L 191.957503 405.456449 
L 196.038502 408.077085 
L 200.2 410.567912 
L 204.437869 412.926461 
L 208.747905 415.150392 
L 213.125834 417.2375 
L 217.567315 419.185713 
L 222.06794 420.993101 
L 226.623248 422.657871 
L 231.228719 424.17837 
L 235.879786 425.553092 
L 240.571836 426.780672 
L 245.300214 427.859894 
L 250.060232 428.789686 
L 254.847168 429.569127 
L 259.656274 430.197443 
L 264.482781 430.674012 
L 269.321901 430.99836 
L 274.168834 431.170166 
L 279.018775 431.18926 
L 283.866911 431.055622 
L 288.708434 430.769385 
L 293.538544 430.330833 
L 298.352448 429.740401 
L 303.145372 428.998675 
L 307.912564 428.10639 
L 312.649293 427.064431 
L 317.350863 425.873832 
L 322.012609 424.535773 
L 326.629909 423.051582 
L 331.198183 421.422731 
L 335.7129 419.650835 
L 340.169582 417.737652 
L 344.563809 415.685079 
L 348.891222 413.495153 
L 353.14753 411.170044 
L 357.32851 408.71206 
L 361.430016 406.123638 
L 365.447981 403.407345 
L 369.378418 400.565876 
L 373.217429 397.602048 
L 376.961208 394.518802 
L 380.60604 391.319196 
L 384.148311 388.006402 
L 387.584507 384.583707 
L 390.91122 381.054506 
L 394.125151 377.422298 
L 397.223112 373.690687 
L 400.20203 369.863373 
L 403.05895 365.944153 
L 405.79104 361.936913 
L 408.395589 357.845629 
L 410.870014 353.674357 
L 413.211861 349.427236 
L 415.418807 345.108478 
L 417.488663 340.722366 
L 419.419377 336.273251 
L 421.209032 331.765544 
L 422.855855 327.203718 
L 424.358212 322.592297 
L 425.714613 317.935854 
L 426.923712 313.239008 
L 427.98431 308.506417 
L 428.895356 303.742776 
L 429.655946 298.952809 
L 430.265324 294.141266 
L 430.722888 289.312921 
L 431.028183 284.472561 
L 431.180906 279.624989 
L 431.2 277.2 
L 431.2 277.2 
" clip-path="url(#p40d214b012)" style="fill: none; stroke: #000000; stroke-width: 2; stroke-linecap: square"/>
   </g>
   <g id="line2d_2">
    <path d="M 277.2 101.608716 
L 261.924658 102.602046 
L 246.933702 105.551297 
L 232.497482 110.367933 
L 218.859575 116.911001 
L 206.225638 124.99499 
L 194.755903 134.402636 
L 184.557702 144.893087 
L 175.68534 156.21954 
L 168.14214 168.14214 
L 161.883021 180.437566 
L 156.824081 192.911874 
L 152.853667 205.408611 
L 149.839338 217.810748 
L 147.645805 230.046129 
L 146.140757 242.082782 
L 145.207559 253.926171 
L 144.75722 265.612758 
L 144.728853 277.2 
L 145.097648 288.757458 
L 145.874159 300.356289 
L 147.106675 312.058401 
L 148.873674 323.906963 
L 151.276713 335.918993 
L 154.433937 348.079019 
L 158.472241 360.334072 
L 163.510748 372.59661 
L 169.657025 384.742975 
L 176.995547 396.619017 
L 185.581085 408.04537 
L 195.433335 418.824018 
L 206.530217 428.751839 
L 218.810876 437.622799 
L 232.173465 445.241316 
L 246.478569 451.429893 
L 261.55351 456.040204 
L 277.2 458.951147 
" clip-path="url(#p40d214b012)" style="fill: none; stroke: #000000; stroke-width: 1.5; stroke-linecap: square"/>
   </g>
   <g id="line2d_3">
    <path d="M 277.2 123.2 
L 277.2 101.608716 
" clip-path="url(#p40d214b012)" style="fill: none; stroke: #808080; stroke-width: 0.6; stroke-linecap: square"/>
   </g>
   <g id="line2d_4">
    <path d="M 250.458181 125.539606 
L 246.933702 105.551297 
" clip-path="url(#p40d214b012)" style="fill: none; stroke: #808080; stroke-width: 0.6; stroke-linecap: square"/>
   </g>
   <g id="line2d_5">
    <path d="M 224.528898 132.487336 
L 218.859575 116.911001 
" clip-path="url(#p40d214b012)" style="fill: none; stroke: #808080; stroke-width: 0.6; stroke-linecap: square"/>
   </g>
   <g id="line2d_6">
    <path d="M 200.2 143.832088 
L 194.755903 134.402636 
" clip-path="url(#p40d214b012)" style="fill: none; stroke: #808080; stroke-width: 0.6; stroke-linecap: square"/>
   </g>
   <g id="line2d_7">
    <path d="M 178.210708 159.229156 
L 175.68534 156.21954 
" clip-path="url(#p40d214b012)" style="fill: none; stroke: #808080; stroke-width: 0.6; stroke-linecap: square"/>
   </g>
   <g id="line2d_8">
    <path d="M 159.229156 178.210708 
L 161.883021 180.437566 
" clip-path="url(#p40d214b012)" style="fill: none; stroke: #808080; stroke-width: 0.6; stroke-linecap: square"/>
   </g>
   <g id="line2d_9">
    <path d="M 143.832088 200.2 
L 152.853667 205.408611 
" clip-path="url(#p40d214b012)" style="fill: none; stroke: #808080; stroke-width: 0.6; stroke-linecap: square"/>
   </g>
   <g id="line2d_10">
    <path d="M 132.487336 224.528898 
L 147.645805 230.046129 
" clip-path="url(#p40d214b012)" style="fill: none; stroke: #808080; stroke-width: 0.6; stroke-linecap: square"/>
   </g>
   <g id="line2d_11">
    <path d="M 125.539606 250.458181 
L 145.207559 253.926171 
" clip-path="url(#p40d214b012)" style="fill: none; stroke: #808080; stroke-width: 0.6; stroke-linecap: square"/>
   </g>
   <g id="line2d_12">
    <path d="M 123.2 277.2 
L 144.728853 277.2 
" clip-path="url(#p40d214b012)" style="fill: none; stroke: #808080; stroke-width: 0.6; stroke-linecap: square"/>
   </g>
   <g id="line2d_13">
    <path d="M 125.539606 303.941819 
L 145.874159 300.356289 
" clip-path="url(#p40d214b012)" style="fill: none; stroke: #808080; stroke-width: 0.6; stroke-linecap: square"/>
   </g>
   <g id="line2d_14">
    <path d="M 132.487336 329.871102 
L 148.873674 323.906963 
" clip-path="url(#p40d214b012)" style="fill: none; stroke: #808080; stroke-width: 0.6; stroke-linecap: square"/>
   </g>
   <g id="line2d_15">
    <path d="M 143.832088 354.2 
L 154.433937 348.079019 
" clip-path="url(#p40d214b012)" style="fill: none; stroke: #808080; stroke-width: 0.6; stroke-linecap: square"/>
   </g>
   <g id="line2d_16">
    <path d="M 159.229156 376.189292 
L 163.510748 372.59661 
" clip-path="url(#p40d214b012)" style="fill: none; stroke: #808080; stroke-width: 0.6; stroke-linecap: square"/>
   </g>
   <g id="line2d_17">
    <path d="M 178.210708 395.170844 
L 176.995547 396.619017 
" clip-path="url(#p40d214b012)" style="fill: none; stroke: #808080; stroke-width: 0.6; stroke-linecap: square"/>
   </g>
   <g id="line2d_18">
    <path d="M 200.2 410.567912 
L 195.433335 418.824018 
" clip-path="url(#p40d214b012)" style="fill: none; stroke: #808080; stroke-width: 0.6; stroke-linecap: square"/>
   </g>
   <g id="line2d_19">
    <path d="M 224.528898 421.912664 
L 218.810876 437.622799 
" clip-path="url(#p40d214b012)" style="fill: none; stroke: #808080; stroke-width: 0.6; stroke-linecap: square"/>
   </g>
   <g id="line2d_20">
    <path d="M 250.458181 428.860394 
L 246.478569 451.429893 
" clip-path="url(#p40d214b012)" style="fill: none; stroke: #808080; stroke-width: 0.6; stroke-linecap: square"/>
   </g>
   <g id="line2d_21">
    <path d="M 277.2 431.2 
L 277.2 458.951147 
" clip-path="url(#p40d214b012)" style="fill: none; stroke: #808080; stroke-width: 0.6; stroke-linecap: square"/>
   </g>
   <g id="line2d_22">
    <path d="M 277.2 456.33328 
L 292.839697 455.962556 
L 308.521448 454.832757 
L 324.276589 452.892224 
L 340.116236 450.060937 
L 356.022348 446.235071 
L 371.942808 441.299357 
L 387.786777 435.134285 
L 403.425421 427.629599 
L 418.694291 418.694291 
L 433.396366 408.264313 
L 447.313642 396.314855 
L 460.212106 382.862089 
L 471.855182 367.969202 
L 482.012837 351.745776 
L 490.473431 334.346444 
L 497.051013 315.965665 
L 501.596727 296.83217 
L 504.000298 277.2 
L 504.184204 257.341455 
L 502.116301 237.541188 
L 497.830286 218.082293 
L 491.404482 199.235945 
L 482.957593 181.253659 
L 472.647019 164.358611 
L 460.654259 148.743945 
L 447.18377 134.566681 
L 432.451125 121.948875 
L 416.678709 110.975747 
L 400.087515 101.69844 
L 382.890463 94.138748 
L 365.290465 88.289388 
L 347.475726 84.119029 
L 329.616428 81.579227 
L 311.864353 80.608686 
L 294.35365 81.132879 
L 277.2 83.076241 
" clip-path="url(#p40d214b012)" style="fill: none; stroke: #000000; stroke-width: 1.5; stroke-linecap: square"/>
   </g>
   <g id="line2d_23">
    <path d="M 277.2 431.2 
L 277.2 456.33328 
" clip-path="url(#p40d214b012)" style="fill: none; stroke: #808080; stroke-width: 0.6; stroke-linecap: square"/>
   </g>
   <g id="line2d_24">
    <path d="M 303.941819 428.860394 
L 308.521448 454.832757 
" clip-path="url(#p40d214b012)" style="fill: none; stroke: #808080; stroke-width: 0.6; stroke-linecap: square"/>
   </g>
   <g id="line2d_25">
    <path d="M 329.871102 421.912664 
L 340.116236 450.060937 
" clip-path="url(#p40d214b012)" style="fill: none; stroke: #808080; stroke-width: 0.6; stroke-linecap: square"/>
   </g>
   <g id="line2d_26">
    <path d="M 354.2 410.567912 
L 371.942808 441.299357 
" clip-path="url(#p40d214b012)" style="fill: none; stroke: #808080; stroke-width: 0.6; stroke-linecap: square"/>
   </g>
   <g id="line2d_27">
    <path d="M 376.189292 395.170844 
L 403.425421 427.629599 
" clip-path="url(#p40d214b012)" style="fill: none; stroke: #808080; stroke-width: 0.6; stroke-linecap: square"/>
   </g>
   <g id="line2d_28">
    <path d="M 395.170844 376.189292 
L 433.396366 408.264313 
" clip-path="url(#p40d214b012)" style="fill: none; stroke: #808080; stroke-width: 0.6; stroke-linecap: square"/>
   </g>
   <g id="line2d_29">
    <path d="M 410.567912 354.2 
L 460.212106 382.862089 
" clip-path="url(#p40d214b012)" style="fill: none; stroke: #808080; stroke-width: 0.6; stroke-linecap: square"/>
   </g>
   <g id="line2d_30">
    <path d="M 421.912664 329.871102 
L 482.012837 351.745776 
" clip-path="url(#p40d214b012)" style="fill: none; stroke: #808080; stroke-width: 0.6; stroke-linecap: square"/>
   </g>
   <g id="line2d_31">
    <path d="M 428.860394 303.941819 
L 497.051013 315.965665 
" clip-path="url(#p40d214b012)" style="fill: none; stroke: #808080; stroke-width: 0.6; stroke-linecap: square"/>
   </g>
   <g id="line2d_32">
    <path d="M 431.2 277.2 
L 504.000298 277.2 
" clip-path="url(#p40d214b012)" style="fill: none; stroke: #808080; stroke-width: 0.6; stroke-linecap: square"/>
   </g>
   <g id="line2d_33">
    <path d="M 428.860394 250.458181 
L 502.116301 237.541188 
" clip-path="url(#p40d214b012)" style="fill: none; stroke: #808080; stroke-width: 0.6; stroke-linecap: square"/>
   </g>
   <g id="line2d_34">
    <path d="M 421.912664 224.528898 
L 491.404482 199.235945 
" clip-path="url(#p40d214b012)" style="fill: none; stroke: #808080; stroke-width: 0.6; stroke-linecap: square"/>
   </g>
   <g id="line2d_35">
    <path d="M 410.567912 200.2 
L 472.647019 164.358611 
" clip-path="url(#p40d214b012)" style="fill: none; stroke: #808080; stroke-width: 0.6; stroke-linecap: square"/>
   </g>
   <g id="line2d_36">
    <path d="M 395.170844 178.210708 
L 447.18377 134.566681 
" clip-path="url(#p40d214b012)" style="fill: none; stroke: #808080; stroke-width: 0.6; stroke-linecap: square"/>
   </g>
   <g id="line2d_37">
    <path d="M 376.189292 159.229156 
L 416.678709 110.975747 
" clip-path="url(#p40d214b012)" style="fill: none; stroke: #808080; stroke-width: 0.6; stroke-linecap: square"/>
   </g>
   <g id="line2d_38">
    <path d="M 354.2 143.832088 
L 382.890463 94.138748 
" clip-path="url(#p40d214b012)" style="fill: none; stroke: #808080; stroke-width: 0.6; stroke-linecap: square"/>
   </g>
   <g id="line2d_39">
    <path d="M 329.871102 132.487336 
L 347.475726 84.119029 
" clip-path="url(#p40d214b012)" style="fill: none; stroke: #808080; stroke-width: 0.6; stroke-linecap: square"/>
   </g>
   <g id="line2d_40">
    <path d="M 303.941819 125.539606 
L 311.864353 80.608686 
" clip-path="url(#p40d214b012)" style="fill: none; stroke: #808080; stroke-width: 0.6; stroke-linecap: square"/>
   </g>
   <g id="line2d_41">
    <path d="M 277.2 123.2 
L 277.2 83.076241 
" clip-path="url(#p40d214b012)" style="fill: none; stroke: #808080; stroke-width: 0.6; stroke-linecap: square"/>
   </g>
   <g id="text_1">
    <!-- 197.1 -->
    <g transform="translate(256.95 93.612935) scale(0.18 -0.18)">
     <defs>
      <path id="TimesNewRomanPSMT-31" d="M 750 3822 
L 1781 4325 
L 1884 4325 
L 1884 747 
Q 1884 391 1914 303 
Q 1944 216 2037 169 
Q 2131 122 2419 116 
L 2419 0 
L 825 0 
L 825 116 
Q 1125 122 1212 167 
Q 1300 213 1334 289 
Q 1369 366 1369 747 
L 1369 3034 
Q 1369 3497 1338 3628 
Q 1316 3728 1258 3775 
Q 1200 3822 1119 3822 
Q 1003 3822 797 3725 
L 750 3822 
z
" transform="scale(0.015625)"/>
      <path id="TimesNewRomanPSMT-39" d="M 338 -88 
L 338 28 
Q 744 34 1094 217 
Q 1444 400 1770 856 
Q 2097 1313 2225 1859 
Q 1734 1544 1338 1544 
Q 891 1544 572 1889 
Q 253 2234 253 2806 
Q 253 3363 572 3797 
Q 956 4325 1575 4325 
Q 2097 4325 2469 3894 
Q 2925 3359 2925 2575 
Q 2925 1869 2578 1258 
Q 2231 647 1613 244 
Q 1109 -88 516 -88 
L 338 -88 
z
M 2275 2091 
Q 2331 2497 2331 2741 
Q 2331 3044 2228 3395 
Q 2125 3747 1936 3934 
Q 1747 4122 1506 4122 
Q 1228 4122 1018 3872 
Q 809 3622 809 3128 
Q 809 2469 1088 2097 
Q 1291 1828 1588 1828 
Q 1731 1828 1928 1897 
Q 2125 1966 2275 2091 
z
" transform="scale(0.015625)"/>
      <path id="TimesNewRomanPSMT-37" d="M 644 4238 
L 2916 4238 
L 2916 4119 
L 1503 -88 
L 1153 -88 
L 2419 3728 
L 1253 3728 
Q 900 3728 750 3644 
Q 488 3500 328 3200 
L 238 3234 
L 644 4238 
z
" transform="scale(0.015625)"/>
      <path id="TimesNewRomanPSMT-2e" d="M 800 606 
Q 947 606 1047 504 
Q 1147 403 1147 259 
Q 1147 116 1045 14 
Q 944 -88 800 -88 
Q 656 -88 554 14 
Q 453 116 453 259 
Q 453 406 554 506 
Q 656 606 800 606 
z
" transform="scale(0.015625)"/>
     </defs>
     <use xlink:href="#TimesNewRomanPSMT-31"/>
     <use xlink:href="#TimesNewRomanPSMT-39" x="50"/>
     <use xlink:href="#TimesNewRomanPSMT-37" x="100"/>
     <use xlink:href="#TimesNewRomanPSMT-2e" x="150"/>
     <use xlink:href="#TimesNewRomanPSMT-31" x="175"/>
    </g>
   </g>
   <g id="text_2">
    <!-- 170.9 -->
    <g transform="translate(209.058832 102.791945) scale(0.18 -0.18)">
     <defs>
      <path id="TimesNewRomanPSMT-30" d="M 231 2094 
Q 231 2819 450 3342 
Q 669 3866 1031 4122 
Q 1313 4325 1613 4325 
Q 2100 4325 2488 3828 
Q 2972 3213 2972 2159 
Q 2972 1422 2759 906 
Q 2547 391 2217 158 
Q 1888 -75 1581 -75 
Q 975 -75 572 641 
Q 231 1244 231 2094 
z
M 844 2016 
Q 844 1141 1059 588 
Q 1238 122 1591 122 
Q 1759 122 1940 273 
Q 2122 425 2216 781 
Q 2359 1319 2359 2297 
Q 2359 3022 2209 3506 
Q 2097 3866 1919 4016 
Q 1791 4119 1609 4119 
Q 1397 4119 1231 3928 
Q 1006 3669 925 3112 
Q 844 2556 844 2016 
z
" transform="scale(0.015625)"/>
     </defs>
     <use xlink:href="#TimesNewRomanPSMT-31"/>
     <use xlink:href="#TimesNewRomanPSMT-37" x="50"/>
     <use xlink:href="#TimesNewRomanPSMT-30" x="100"/>
     <use xlink:href="#TimesNewRomanPSMT-2e" x="150"/>
     <use xlink:href="#TimesNewRomanPSMT-39" x="175"/>
    </g>
   </g>
   <g id="text_3">
    <!-- 99.4 -->
    <g transform="translate(172.845903 128.057422) scale(0.18 -0.18)">
     <defs>
      <path id="TimesNewRomanPSMT-34" d="M 2978 1563 
L 2978 1119 
L 2409 1119 
L 2409 0 
L 1894 0 
L 1894 1119 
L 100 1119 
L 100 1519 
L 2066 4325 
L 2409 4325 
L 2409 1563 
L 2978 1563 
z
M 1894 1563 
L 1894 3666 
L 406 1563 
L 1894 1563 
z
" transform="scale(0.015625)"/>
     </defs>
     <use xlink:href="#TimesNewRomanPSMT-39"/>
     <use xlink:href="#TimesNewRomanPSMT-39" x="50"/>
     <use xlink:href="#TimesNewRomanPSMT-2e" x="100"/>
     <use xlink:href="#TimesNewRomanPSMT-34" x="125"/>
    </g>
   </g>
   <g id="text_4">
    <!-- 2.1 -->
    <g transform="translate(148.180585 163.754803) scale(0.18 -0.18)">
     <defs>
      <path id="TimesNewRomanPSMT-32" d="M 2934 816 
L 2638 0 
L 138 0 
L 138 116 
Q 1241 1122 1691 1759 
Q 2141 2397 2141 2925 
Q 2141 3328 1894 3587 
Q 1647 3847 1303 3847 
Q 991 3847 742 3664 
Q 494 3481 375 3128 
L 259 3128 
Q 338 3706 661 4015 
Q 984 4325 1469 4325 
Q 1984 4325 2329 3994 
Q 2675 3663 2675 3213 
Q 2675 2891 2525 2569 
Q 2294 2063 1775 1497 
Q 997 647 803 472 
L 1909 472 
Q 2247 472 2383 497 
Q 2519 522 2628 598 
Q 2738 675 2819 816 
L 2934 816 
z
" transform="scale(0.015625)"/>
     </defs>
     <use xlink:href="#TimesNewRomanPSMT-32"/>
     <use xlink:href="#TimesNewRomanPSMT-2e" x="50"/>
     <use xlink:href="#TimesNewRomanPSMT-31" x="75"/>
    </g>
   </g>
   <g id="text_5">
    <!-- -95.1 -->
    <g transform="translate(144.776381 215.89283) scale(0.18 -0.18)">
     <defs>
      <path id="TimesNewRomanPSMT-2d" d="M 259 1672 
L 1875 1672 
L 1875 1200 
L 259 1200 
L 259 1672 
z
" transform="scale(0.015625)"/>
      <path id="TimesNewRomanPSMT-35" d="M 2778 4238 
L 2534 3706 
L 1259 3706 
L 981 3138 
Q 1809 3016 2294 2522 
Q 2709 2097 2709 1522 
Q 2709 1188 2573 903 
Q 2438 619 2231 419 
Q 2025 219 1772 97 
Q 1413 -75 1034 -75 
Q 653 -75 479 54 
Q 306 184 306 341 
Q 306 428 378 495 
Q 450 563 559 563 
Q 641 563 702 538 
Q 763 513 909 409 
Q 1144 247 1384 247 
Q 1750 247 2026 523 
Q 2303 800 2303 1197 
Q 2303 1581 2056 1914 
Q 1809 2247 1375 2428 
Q 1034 2569 447 2591 
L 1259 4238 
L 2778 4238 
z
" transform="scale(0.015625)"/>
     </defs>
     <use xlink:href="#TimesNewRomanPSMT-2d"/>
     <use xlink:href="#TimesNewRomanPSMT-39" x="33.300781"/>
     <use xlink:href="#TimesNewRomanPSMT-35" x="83.300781"/>
     <use xlink:href="#TimesNewRomanPSMT-2e" x="133.300781"/>
     <use xlink:href="#TimesNewRomanPSMT-31" x="158.300781"/>
    </g>
   </g>
   <g id="text_6">
    <!-- -167.2 -->
    <g transform="translate(134.794245 249.595651) scale(0.18 -0.18)">
     <defs>
      <path id="TimesNewRomanPSMT-36" d="M 2869 4325 
L 2869 4209 
Q 2456 4169 2195 4045 
Q 1934 3922 1679 3669 
Q 1425 3416 1258 3105 
Q 1091 2794 978 2366 
Q 1428 2675 1881 2675 
Q 2316 2675 2634 2325 
Q 2953 1975 2953 1425 
Q 2953 894 2631 456 
Q 2244 -75 1606 -75 
Q 1172 -75 869 213 
Q 275 772 275 1663 
Q 275 2231 503 2743 
Q 731 3256 1154 3653 
Q 1578 4050 1965 4187 
Q 2353 4325 2688 4325 
L 2869 4325 
z
M 925 2138 
Q 869 1716 869 1456 
Q 869 1156 980 804 
Q 1091 453 1309 247 
Q 1469 100 1697 100 
Q 1969 100 2183 356 
Q 2397 613 2397 1088 
Q 2397 1622 2184 2012 
Q 1972 2403 1581 2403 
Q 1463 2403 1327 2353 
Q 1191 2303 925 2138 
z
" transform="scale(0.015625)"/>
     </defs>
     <use xlink:href="#TimesNewRomanPSMT-2d"/>
     <use xlink:href="#TimesNewRomanPSMT-31" x="33.300781"/>
     <use xlink:href="#TimesNewRomanPSMT-36" x="83.300781"/>
     <use xlink:href="#TimesNewRomanPSMT-37" x="133.300781"/>
     <use xlink:href="#TimesNewRomanPSMT-2e" x="183.300781"/>
     <use xlink:href="#TimesNewRomanPSMT-32" x="208.300781"/>
    </g>
   </g>
   <g id="text_7">
    <!-- -196.6 -->
    <g transform="translate(133.802134 281.524219) scale(0.18 -0.18)">
     <use xlink:href="#TimesNewRomanPSMT-2d"/>
     <use xlink:href="#TimesNewRomanPSMT-31" x="33.300781"/>
     <use xlink:href="#TimesNewRomanPSMT-39" x="83.300781"/>
     <use xlink:href="#TimesNewRomanPSMT-36" x="133.300781"/>
     <use xlink:href="#TimesNewRomanPSMT-2e" x="183.300781"/>
     <use xlink:href="#TimesNewRomanPSMT-36" x="208.300781"/>
    </g>
   </g>
   <g id="text_8">
    <!-- -176.4 -->
    <g transform="translate(135.760163 313.193969) scale(0.18 -0.18)">
     <use xlink:href="#TimesNewRomanPSMT-2d"/>
     <use xlink:href="#TimesNewRomanPSMT-31" x="33.300781"/>
     <use xlink:href="#TimesNewRomanPSMT-37" x="83.300781"/>
     <use xlink:href="#TimesNewRomanPSMT-36" x="133.300781"/>
     <use xlink:href="#TimesNewRomanPSMT-2e" x="183.300781"/>
     <use xlink:href="#TimesNewRomanPSMT-34" x="208.300781"/>
    </g>
   </g>
   <g id="text_9">
    <!-- -111.8 -->
    <g transform="translate(142.531651 346.243238) scale(0.18 -0.18)">
     <defs>
      <path id="TimesNewRomanPSMT-38" d="M 1228 2134 
Q 725 2547 579 2797 
Q 434 3047 434 3316 
Q 434 3728 753 4026 
Q 1072 4325 1600 4325 
Q 2113 4325 2425 4047 
Q 2738 3769 2738 3413 
Q 2738 3175 2569 2928 
Q 2400 2681 1866 2347 
Q 2416 1922 2594 1678 
Q 2831 1359 2831 1006 
Q 2831 559 2490 242 
Q 2150 -75 1597 -75 
Q 994 -75 656 303 
Q 388 606 388 966 
Q 388 1247 577 1523 
Q 766 1800 1228 2134 
z
M 1719 2469 
Q 2094 2806 2194 3001 
Q 2294 3197 2294 3444 
Q 2294 3772 2109 3958 
Q 1925 4144 1606 4144 
Q 1288 4144 1088 3959 
Q 888 3775 888 3528 
Q 888 3366 970 3203 
Q 1053 3041 1206 2894 
L 1719 2469 
z
M 1375 2016 
Q 1116 1797 991 1539 
Q 866 1281 866 981 
Q 866 578 1086 336 
Q 1306 94 1647 94 
Q 1984 94 2187 284 
Q 2391 475 2391 747 
Q 2391 972 2272 1150 
Q 2050 1481 1375 2016 
z
" transform="scale(0.015625)"/>
     </defs>
     <use xlink:href="#TimesNewRomanPSMT-2d"/>
     <use xlink:href="#TimesNewRomanPSMT-31" x="33.300781"/>
     <use xlink:href="#TimesNewRomanPSMT-31" x="79.550781"/>
     <use xlink:href="#TimesNewRomanPSMT-31" x="125.800781"/>
     <use xlink:href="#TimesNewRomanPSMT-2e" x="175.800781"/>
     <use xlink:href="#TimesNewRomanPSMT-38" x="200.800781"/>
    </g>
   </g>
   <g id="text_10">
    <!-- -17.4 -->
    <g transform="translate(159.621862 380.355638) scale(0.18 -0.18)">
     <use xlink:href="#TimesNewRomanPSMT-2d"/>
     <use xlink:href="#TimesNewRomanPSMT-31" x="33.300781"/>
     <use xlink:href="#TimesNewRomanPSMT-37" x="83.300781"/>
     <use xlink:href="#TimesNewRomanPSMT-2e" x="133.300781"/>
     <use xlink:href="#TimesNewRomanPSMT-34" x="158.300781"/>
    </g>
   </g>
   <g id="text_11">
    <!-- 87.0 -->
    <g transform="translate(173.523335 433.81767) scale(0.18 -0.18)">
     <use xlink:href="#TimesNewRomanPSMT-38"/>
     <use xlink:href="#TimesNewRomanPSMT-37" x="50"/>
     <use xlink:href="#TimesNewRomanPSMT-2e" x="100"/>
     <use xlink:href="#TimesNewRomanPSMT-30" x="125"/>
    </g>
   </g>
   <g id="text_12">
    <!-- 182.3 -->
    <g transform="translate(208.734814 461.465741) scale(0.18 -0.18)">
     <defs>
      <path id="TimesNewRomanPSMT-33" d="M 325 3431 
Q 506 3859 782 4092 
Q 1059 4325 1472 4325 
Q 1981 4325 2253 3994 
Q 2459 3747 2459 3466 
Q 2459 3003 1878 2509 
Q 2269 2356 2469 2072 
Q 2669 1788 2669 1403 
Q 2669 853 2319 450 
Q 1863 -75 997 -75 
Q 569 -75 414 31 
Q 259 138 259 259 
Q 259 350 332 419 
Q 406 488 509 488 
Q 588 488 669 463 
Q 722 447 909 348 
Q 1097 250 1169 231 
Q 1284 197 1416 197 
Q 1734 197 1970 444 
Q 2206 691 2206 1028 
Q 2206 1275 2097 1509 
Q 2016 1684 1919 1775 
Q 1784 1900 1550 2001 
Q 1316 2103 1072 2103 
L 972 2103 
L 972 2197 
Q 1219 2228 1467 2375 
Q 1716 2522 1828 2728 
Q 1941 2934 1941 3181 
Q 1941 3503 1739 3701 
Q 1538 3900 1238 3900 
Q 753 3900 428 3381 
L 325 3431 
z
" transform="scale(0.015625)"/>
     </defs>
     <use xlink:href="#TimesNewRomanPSMT-31"/>
     <use xlink:href="#TimesNewRomanPSMT-38" x="50"/>
     <use xlink:href="#TimesNewRomanPSMT-32" x="100"/>
     <use xlink:href="#TimesNewRomanPSMT-2e" x="150"/>
     <use xlink:href="#TimesNewRomanPSMT-33" x="175"/>
    </g>
   </g>
   <g id="text_13">
    <!-- 253.4 -->
    <g transform="translate(256.95 475.595366) scale(0.18 -0.18)">
     <use xlink:href="#TimesNewRomanPSMT-32"/>
     <use xlink:href="#TimesNewRomanPSMT-35" x="50"/>
     <use xlink:href="#TimesNewRomanPSMT-33" x="100"/>
     <use xlink:href="#TimesNewRomanPSMT-2e" x="150"/>
     <use xlink:href="#TimesNewRomanPSMT-34" x="175"/>
    </g>
   </g>
   <g id="text_14">
    <!-- 230.3 -->
    <g transform="translate(256.95 479.137499) scale(0.18 -0.18)">
     <use xlink:href="#TimesNewRomanPSMT-32"/>
     <use xlink:href="#TimesNewRomanPSMT-33" x="50"/>
     <use xlink:href="#TimesNewRomanPSMT-30" x="100"/>
     <use xlink:href="#TimesNewRomanPSMT-2e" x="150"/>
     <use xlink:href="#TimesNewRomanPSMT-33" x="175"/>
    </g>
   </g>
   <g id="text_15">
    <!-- 255.6 -->
    <g transform="translate(308.809565 475.066752) scale(0.18 -0.18)">
     <use xlink:href="#TimesNewRomanPSMT-32"/>
     <use xlink:href="#TimesNewRomanPSMT-35" x="50"/>
     <use xlink:href="#TimesNewRomanPSMT-35" x="100"/>
     <use xlink:href="#TimesNewRomanPSMT-2e" x="150"/>
     <use xlink:href="#TimesNewRomanPSMT-36" x="175"/>
    </g>
   </g>
   <g id="text_16">
    <!-- 325.2 -->
    <g transform="translate(360.932808 461.627725) scale(0.18 -0.18)">
     <use xlink:href="#TimesNewRomanPSMT-33"/>
     <use xlink:href="#TimesNewRomanPSMT-32" x="50"/>
     <use xlink:href="#TimesNewRomanPSMT-35" x="100"/>
     <use xlink:href="#TimesNewRomanPSMT-2e" x="150"/>
     <use xlink:href="#TimesNewRomanPSMT-32" x="175"/>
    </g>
   </g>
   <g id="text_17">
    <!-- 422.4 -->
    <g transform="translate(411.511624 436.085843) scale(0.18 -0.18)">
     <use xlink:href="#TimesNewRomanPSMT-34"/>
     <use xlink:href="#TimesNewRomanPSMT-32" x="50"/>
     <use xlink:href="#TimesNewRomanPSMT-32" x="100"/>
     <use xlink:href="#TimesNewRomanPSMT-2e" x="150"/>
     <use xlink:href="#TimesNewRomanPSMT-34" x="175"/>
    </g>
   </g>
   <g id="text_18">
    <!-- 525.3 -->
    <g transform="translate(455.966256 396.426308) scale(0.18 -0.18)">
     <use xlink:href="#TimesNewRomanPSMT-35"/>
     <use xlink:href="#TimesNewRomanPSMT-32" x="50"/>
     <use xlink:href="#TimesNewRomanPSMT-35" x="100"/>
     <use xlink:href="#TimesNewRomanPSMT-2e" x="150"/>
     <use xlink:href="#TimesNewRomanPSMT-33" x="175"/>
    </g>
   </g>
   <g id="text_19">
    <!-- 612.1 -->
    <g transform="translate(488.07374 343.453638) scale(0.18 -0.18)">
     <use xlink:href="#TimesNewRomanPSMT-36"/>
     <use xlink:href="#TimesNewRomanPSMT-31" x="50"/>
     <use xlink:href="#TimesNewRomanPSMT-32" x="100"/>
     <use xlink:href="#TimesNewRomanPSMT-2e" x="150"/>
     <use xlink:href="#TimesNewRomanPSMT-31" x="175"/>
    </g>
   </g>
   <g id="text_20">
    <!-- 667.1 -->
    <g transform="translate(502.230298 281.524219) scale(0.18 -0.18)">
     <use xlink:href="#TimesNewRomanPSMT-36"/>
     <use xlink:href="#TimesNewRomanPSMT-36" x="50"/>
     <use xlink:href="#TimesNewRomanPSMT-37" x="100"/>
     <use xlink:href="#TimesNewRomanPSMT-2e" x="150"/>
     <use xlink:href="#TimesNewRomanPSMT-31" x="175"/>
    </g>
   </g>
   <g id="text_21">
    <!-- 681.9 -->
    <g transform="translate(495.430596 217.623536) scale(0.18 -0.18)">
     <use xlink:href="#TimesNewRomanPSMT-36"/>
     <use xlink:href="#TimesNewRomanPSMT-38" x="50"/>
     <use xlink:href="#TimesNewRomanPSMT-31" x="100"/>
     <use xlink:href="#TimesNewRomanPSMT-2e" x="150"/>
     <use xlink:href="#TimesNewRomanPSMT-39" x="175"/>
    </g>
   </g>
   <g id="text_22">
    <!-- 656.8 -->
    <g transform="translate(468.401168 159.44283) scale(0.18 -0.18)">
     <use xlink:href="#TimesNewRomanPSMT-36"/>
     <use xlink:href="#TimesNewRomanPSMT-35" x="50"/>
     <use xlink:href="#TimesNewRomanPSMT-36" x="100"/>
     <use xlink:href="#TimesNewRomanPSMT-2e" x="150"/>
     <use xlink:href="#TimesNewRomanPSMT-38" x="175"/>
    </g>
   </g>
   <g id="text_23">
    <!-- 600.7 -->
    <g transform="translate(425.268458 113.205761) scale(0.18 -0.18)">
     <use xlink:href="#TimesNewRomanPSMT-36"/>
     <use xlink:href="#TimesNewRomanPSMT-30" x="50"/>
     <use xlink:href="#TimesNewRomanPSMT-30" x="100"/>
     <use xlink:href="#TimesNewRomanPSMT-2e" x="150"/>
     <use xlink:href="#TimesNewRomanPSMT-37" x="175"/>
    </g>
   </g>
   <g id="text_24">
    <!-- 525.8 -->
    <g transform="translate(371.880463 82.458817) scale(0.18 -0.18)">
     <use xlink:href="#TimesNewRomanPSMT-35"/>
     <use xlink:href="#TimesNewRomanPSMT-32" x="50"/>
     <use xlink:href="#TimesNewRomanPSMT-35" x="100"/>
     <use xlink:href="#TimesNewRomanPSMT-2e" x="150"/>
     <use xlink:href="#TimesNewRomanPSMT-38" x="175"/>
    </g>
   </g>
   <g id="text_25">
    <!-- 444.6 -->
    <g transform="translate(314.149404 68.053136) scale(0.18 -0.18)">
     <use xlink:href="#TimesNewRomanPSMT-34"/>
     <use xlink:href="#TimesNewRomanPSMT-34" x="50"/>
     <use xlink:href="#TimesNewRomanPSMT-34" x="100"/>
     <use xlink:href="#TimesNewRomanPSMT-2e" x="150"/>
     <use xlink:href="#TimesNewRomanPSMT-36" x="175"/>
    </g>
   </g>
   <g id="text_26">
    <!-- 367.7 -->
    <g transform="translate(256.95 68.920459) scale(0.18 -0.18)">
     <use xlink:href="#TimesNewRomanPSMT-33"/>
     <use xlink:href="#TimesNewRomanPSMT-36" x="50"/>
     <use xlink:href="#TimesNewRomanPSMT-37" x="100"/>
     <use xlink:href="#TimesNewRomanPSMT-2e" x="150"/>
     <use xlink:href="#TimesNewRomanPSMT-37" x="175"/>
    </g>
   </g>
   <g id="text_27">
    <!-- kN·m -->
    <g transform="translate(213.037344 282.485156) scale(0.22 -0.22)">
     <defs>
      <path id="TimesNewRomanPSMT-6b" d="M 1047 4444 
L 1047 1597 
L 1775 2259 
Q 2006 2472 2044 2528 
Q 2069 2566 2069 2603 
Q 2069 2666 2017 2711 
Q 1966 2756 1847 2763 
L 1847 2863 
L 3091 2863 
L 3091 2763 
Q 2834 2756 2664 2684 
Q 2494 2613 2291 2428 
L 1556 1750 
L 2291 822 
Q 2597 438 2703 334 
Q 2853 188 2966 144 
Q 3044 113 3238 113 
L 3238 0 
L 1847 0 
L 1847 113 
Q 1966 116 2008 148 
Q 2050 181 2050 241 
Q 2050 313 1925 472 
L 1047 1594 
L 1047 644 
Q 1047 366 1086 278 
Q 1125 191 1197 153 
Q 1269 116 1509 113 
L 1509 0 
L 53 0 
L 53 113 
Q 272 113 381 166 
Q 447 200 481 272 
Q 528 375 528 628 
L 528 3234 
Q 528 3731 506 3842 
Q 484 3953 434 3995 
Q 384 4038 303 4038 
Q 238 4038 106 3984 
L 53 4094 
L 903 4444 
L 1047 4444 
z
" transform="scale(0.015625)"/>
      <path id="TimesNewRomanPSMT-4e" d="M -84 4238 
L 1066 4238 
L 3656 1059 
L 3656 3503 
Q 3656 3894 3569 3991 
Q 3453 4122 3203 4122 
L 3056 4122 
L 3056 4238 
L 4531 4238 
L 4531 4122 
L 4381 4122 
Q 4113 4122 4000 3959 
Q 3931 3859 3931 3503 
L 3931 -69 
L 3819 -69 
L 1025 3344 
L 1025 734 
Q 1025 344 1109 247 
Q 1228 116 1475 116 
L 1625 116 
L 1625 0 
L 150 0 
L 150 116 
L 297 116 
Q 569 116 681 278 
Q 750 378 750 734 
L 750 3681 
Q 566 3897 470 3965 
Q 375 4034 191 4094 
Q 100 4122 -84 4122 
L -84 4238 
z
" transform="scale(0.015625)"/>
      <path id="TimesNewRomanPSMT-b7" d="M 1066 2525 
Q 1203 2525 1298 2429 
Q 1394 2334 1394 2197 
Q 1394 2063 1297 1966 
Q 1200 1869 1066 1869 
Q 931 1869 834 1966 
Q 738 2063 738 2197 
Q 738 2334 833 2429 
Q 928 2525 1066 2525 
z
" transform="scale(0.015625)"/>
      <path id="TimesNewRomanPSMT-6d" d="M 1050 2338 
Q 1363 2650 1419 2697 
Q 1559 2816 1721 2881 
Q 1884 2947 2044 2947 
Q 2313 2947 2506 2790 
Q 2700 2634 2766 2338 
Q 3088 2713 3309 2830 
Q 3531 2947 3766 2947 
Q 3994 2947 4170 2830 
Q 4347 2713 4450 2447 
Q 4519 2266 4519 1878 
L 4519 647 
Q 4519 378 4559 278 
Q 4591 209 4675 161 
Q 4759 113 4950 113 
L 4950 0 
L 3538 0 
L 3538 113 
L 3597 113 
Q 3781 113 3884 184 
Q 3956 234 3988 344 
Q 4000 397 4000 647 
L 4000 1878 
Q 4000 2228 3916 2372 
Q 3794 2572 3525 2572 
Q 3359 2572 3192 2489 
Q 3025 2406 2788 2181 
L 2781 2147 
L 2788 2013 
L 2788 647 
Q 2788 353 2820 281 
Q 2853 209 2943 161 
Q 3034 113 3253 113 
L 3253 0 
L 1806 0 
L 1806 113 
Q 2044 113 2133 169 
Q 2222 225 2256 338 
Q 2272 391 2272 647 
L 2272 1878 
Q 2272 2228 2169 2381 
Q 2031 2581 1784 2581 
Q 1616 2581 1450 2491 
Q 1191 2353 1050 2181 
L 1050 647 
Q 1050 366 1089 281 
Q 1128 197 1204 155 
Q 1281 113 1516 113 
L 1516 0 
L 100 0 
L 100 113 
Q 297 113 375 155 
Q 453 197 493 289 
Q 534 381 534 647 
L 534 1741 
Q 534 2213 506 2350 
Q 484 2453 437 2492 
Q 391 2531 309 2531 
Q 222 2531 100 2484 
L 53 2597 
L 916 2947 
L 1050 2947 
L 1050 2338 
z
" transform="scale(0.015625)"/>
     </defs>
     <use xlink:href="#TimesNewRomanPSMT-6b"/>
     <use xlink:href="#TimesNewRomanPSMT-4e" x="50"/>
     <use xlink:href="#TimesNewRomanPSMT-b7" x="122.216797"/>
     <use xlink:href="#TimesNewRomanPSMT-6d" x="155.517578"/>
    </g>
   </g>
   <g id="text_28">
    <!-- kN -->
    <g transform="translate(302.255938 282.485156) scale(0.22 -0.22)">
     <use xlink:href="#TimesNewRomanPSMT-6b"/>
     <use xlink:href="#TimesNewRomanPSMT-4e" x="50"/>
    </g>
   </g>
  </g>
 </g>
 <defs>
  <clipPath id="p40d214b012">
   <rect x="0" y="0" width="554.4" height="554.4"/>
  </clipPath>
 </defs>
</svg>
