<?xml version="1.0" encoding="utf-8" standalone="no"?>
<!DOCTYPE svg PUBLIC "-//W3C//DTD SVG 1.1//EN"
  "http://www.w3.org/Graphics/SVG/1.1/DTD/svg11.dtd">
<svg xmlns:xlink="http://www.w3.org/1999/xlink" width="551.910452pt" height="551.700429pt" viewBox="0 0 551.910452 551.700429" xmlns="http://www.w3.org/2000/svg" version="1.1">
 <metadata>
  <rdf:RDF xmlns:dc="http://purl.org/dc/elements/1.1/" xmlns:cc="http://creativecommons.org/ns#" xmlns:rdf="http://www.w3.org/1999/02/22-rdf-syntax-ns#">
   <cc:Work>
    <dc:type rdf:resource="http://purl.org/dc/dcmitype/StillImage"/>
    <dc:date>2026-06-01T14:58:22.781967</dc:date>
    <dc:format>image/svg+xml</dc:format>
    <dc:creator>
     <cc:Agent>
      <dc:title>Matplotlib v3.8.4, https://matplotlib.org/</dc:title>
     </cc:Agent>
    </dc:creator>
   </cc:Work>
  </rdf:RDF>
 </metadata>
 <defs>
  <style type="text/css">*{stroke-linejoin: round; stroke-linecap: butt}</style>
 </defs>
 <g id="figure_1">
  <g id="patch_1">
   <path d="M 0 551.700429 
L 551.910452 551.700429 
L 551.910452 0 
L 0 0 
z
" style="fill: #ffffff"/>
  </g>
  <g id="axes_1">
   <g id="line2d_1">
    <path d="M 441.360343 275.850215 
L 441.278264 270.638391 
L 441.032108 265.431736 
L 440.62212 260.235414 
L 440.048705 255.05458 
L 439.312433 249.894372 
L 438.414034 244.759907 
L 437.354399 239.656279 
L 436.13458 234.588549 
L 434.755785 229.561744 
L 433.219382 224.580849 
L 431.526896 219.650805 
L 429.680004 214.776501 
L 427.68054 209.962772 
L 425.530485 205.214392 
L 423.231972 200.536071 
L 420.787282 195.932449 
L 418.198838 191.408092 
L 415.469209 186.967487 
L 412.6011 182.615039 
L 409.597358 178.355065 
L 406.460962 174.191789 
L 403.195021 170.129342 
L 399.802776 166.171752 
L 396.287591 162.322944 
L 392.652952 158.586737 
L 388.902464 154.966835 
L 385.039848 151.466829 
L 381.068934 148.09019 
L 376.993661 144.840268 
L 372.81807 141.720286 
L 368.546303 138.733338 
L 364.182598 135.882387 
L 359.731282 133.17026 
L 355.196769 130.599649 
L 350.583559 128.173101 
L 345.896225 125.893024 
L 341.139418 123.761679 
L 336.317855 121.781181 
L 331.436317 119.953493 
L 326.499648 118.280428 
L 321.512744 116.763646 
L 316.480549 115.404652 
L 311.408056 114.204792 
L 306.300296 113.165258 
L 301.162334 112.287079 
L 295.999267 111.571128 
L 290.816216 111.018114 
L 285.618321 110.628585 
L 280.410737 110.402929 
L 275.198631 110.341368 
L 269.98717 110.443965 
L 264.781525 110.710617 
L 259.586858 111.141059 
L 254.408321 111.734865 
L 249.251051 112.491446 
L 244.120163 113.410052 
L 239.020746 114.48977 
L 233.957858 115.729531 
L 228.936519 117.128105 
L 223.961712 118.684105 
L 219.038369 120.395987 
L 214.171373 122.262053 
L 209.365553 124.280453 
L 204.625674 126.449185 
L 199.956439 128.766098 
L 195.362477 131.228893 
L 190.848345 133.835128 
L 186.418521 136.582218 
L 182.077398 139.467439 
L 177.829282 142.487928 
L 173.678386 145.640691 
L 169.628827 148.922599 
L 165.684623 152.330398 
L 161.849683 155.860708 
L 158.127814 159.510028 
L 154.522705 163.274737 
L 151.037932 167.151103 
L 147.676953 171.135279 
L 144.4431 175.223315 
L 141.33958 179.411156 
L 138.369473 183.694649 
L 135.535723 188.069544 
L 132.841141 192.531503 
L 130.288401 197.0761 
L 127.880033 201.698828 
L 125.618427 206.395102 
L 123.505826 211.160263 
L 121.544324 215.989586 
L 119.735868 220.87828 
L 118.082251 225.821498 
L 116.585114 230.814335 
L 115.245941 235.851841 
L 114.06606 240.929018 
L 113.046642 246.040831 
L 112.188697 251.18221 
L 111.493077 256.348055 
L 110.960472 261.533244 
L 110.59141 266.732632 
L 110.386257 271.941064 
L 110.345216 277.153373 
L 110.468328 282.364389 
L 110.755472 287.568944 
L 111.206361 292.761876 
L 111.82055 297.938035 
L 112.597428 303.092286 
L 113.536226 308.219518 
L 114.636012 313.314645 
L 115.895695 318.372614 
L 117.314026 323.388407 
L 118.889599 328.35705 
L 120.62085 333.273616 
L 122.506062 338.133227 
L 124.543366 342.931064 
L 126.730741 347.662368 
L 129.066018 352.322446 
L 131.546879 356.906677 
L 134.170866 361.410514 
L 136.935374 365.829489 
L 139.837663 370.15922 
L 142.874853 374.395412 
L 146.043932 378.533863 
L 149.341757 382.57047 
L 152.765058 386.501229 
L 156.310438 390.32224 
L 159.974382 394.029714 
L 163.753254 397.619974 
L 167.643309 401.089459 
L 171.640686 404.434727 
L 175.741422 407.652461 
L 179.941448 410.73947 
L 184.2366 413.692691 
L 188.622618 416.509196 
L 193.09515 419.186191 
L 197.649762 421.72102 
L 202.281935 424.11117 
L 206.987076 426.35427 
L 211.760517 428.448096 
L 216.597524 430.39057 
L 221.493301 432.179766 
L 226.44299 433.813909 
L 231.441683 435.291379 
L 236.484421 436.61071 
L 241.566204 437.770594 
L 246.681991 438.76988 
L 251.826707 439.607577 
L 256.995251 440.282855 
L 262.182496 440.795042 
L 267.383298 441.143633 
L 272.592496 441.32828 
L 277.804926 441.3488 
L 283.015417 441.205174 
L 288.218802 440.897543 
L 293.409919 440.426214 
L 298.58362 439.791652 
L 303.734773 438.994489 
L 308.858269 438.035513 
L 313.949026 436.915677 
L 319.001997 435.636091 
L 324.012167 434.198025 
L 328.97457 432.602904 
L 333.884281 430.852311 
L 338.736433 428.947981 
L 343.526212 426.891805 
L 348.248869 424.685821 
L 352.899717 422.332216 
L 357.474146 419.833327 
L 361.967617 417.19163 
L 366.375675 414.409746 
L 370.693946 411.490435 
L 374.918148 408.436591 
L 379.044092 405.251244 
L 383.067685 401.937553 
L 386.984936 398.498804 
L 390.791959 394.938409 
L 394.484981 391.259898 
L 398.060336 387.46692 
L 401.514479 383.563237 
L 404.843985 379.552721 
L 408.045551 375.43935 
L 411.116001 371.227203 
L 414.05229 366.920457 
L 416.851506 362.523386 
L 419.510872 358.040349 
L 422.027751 353.475794 
L 424.399647 348.834247 
L 426.624206 344.120312 
L 428.699223 339.338665 
L 430.62264 334.494048 
L 432.392548 329.591266 
L 434.007193 324.635181 
L 435.464972 319.630711 
L 436.764441 314.582817 
L 437.904309 309.496508 
L 438.883448 304.376827 
L 439.700884 299.228852 
L 440.355809 294.057689 
L 440.847571 288.868468 
L 441.175684 283.666335 
L 441.339822 278.45645 
L 441.360343 275.850215 
L 441.360343 275.850215 
" clip-path="url(#pfcd50533f0)" style="fill: none; stroke: #000000; stroke-width: 1.5; stroke-linecap: square"/>
   </g>
   <g id="line2d_2">
    <path d="M 275.850215 135.74413 
L 263.605465 135.892084 
L 251.255906 136.368958 
L 238.712246 137.249429 
L 225.912662 138.647917 
L 212.838628 140.72143 
L 199.517426 143.637946 
L 186.031414 147.575674 
L 172.511986 152.696509 
L 159.142181 159.142181 
L 146.141168 167.011402 
L 133.76183 176.358857 
L 122.270455 187.180899 
L 111.929426 199.412696 
L 102.995079 212.93609 
L 95.694138 227.577539 
L 90.218471 243.11833 
L 86.711261 259.3027 
L 85.271902 275.850215 
L 85.938066 292.465375 
L 88.695316 308.850673 
L 93.475021 324.7175 
L 100.159931 339.796248 
L 108.586218 353.846697 
L 118.560108 366.6617 
L 129.859275 378.074171 
L 142.249475 387.954546 
L 155.484047 396.216382 
L 169.319035 402.809131 
L 183.512502 407.722135 
L 197.836712 410.973565 
L 212.072863 412.621187 
L 226.025603 412.74221 
L 239.519426 411.438562 
L 252.401753 408.833047 
L 264.545372 405.065152 
L 275.850215 400.283745 
" clip-path="url(#pfcd50533f0)" style="fill: none; stroke: #000000; stroke-linecap: square"/>
   </g>
   <g id="line2d_3">
    <path d="M 275.850215 110.340086 
L 275.850215 135.74413 
" clip-path="url(#pfcd50533f0)" style="fill: none; stroke: #808080; stroke-width: 0.6; stroke-linecap: square"/>
   </g>
   <g id="line2d_4">
    <path d="M 247.109682 112.854557 
L 251.255906 136.368958 
" clip-path="url(#pfcd50533f0)" style="fill: none; stroke: #808080; stroke-width: 0.6; stroke-linecap: square"/>
   </g>
   <g id="line2d_5">
    <path d="M 219.242417 120.321568 
L 225.912662 138.647917 
" clip-path="url(#pfcd50533f0)" style="fill: none; stroke: #808080; stroke-width: 0.6; stroke-linecap: square"/>
   </g>
   <g id="line2d_6">
    <path d="M 193.09515 132.514238 
L 199.517426 143.637946 
" clip-path="url(#pfcd50533f0)" style="fill: none; stroke: #808080; stroke-width: 0.6; stroke-linecap: square"/>
   </g>
   <g id="line2d_7">
    <path d="M 169.462355 149.0621 
L 172.511986 152.696509 
" clip-path="url(#pfcd50533f0)" style="fill: none; stroke: #808080; stroke-width: 0.6; stroke-linecap: square"/>
   </g>
   <g id="line2d_8">
    <path d="M 149.0621 169.462355 
L 146.141168 167.011402 
" clip-path="url(#pfcd50533f0)" style="fill: none; stroke: #808080; stroke-width: 0.6; stroke-linecap: square"/>
   </g>
   <g id="line2d_9">
    <path d="M 132.514238 193.09515 
L 122.270455 187.180899 
" clip-path="url(#pfcd50533f0)" style="fill: none; stroke: #808080; stroke-width: 0.6; stroke-linecap: square"/>
   </g>
   <g id="line2d_10">
    <path d="M 120.321568 219.242417 
L 102.995079 212.93609 
" clip-path="url(#pfcd50533f0)" style="fill: none; stroke: #808080; stroke-width: 0.6; stroke-linecap: square"/>
   </g>
   <g id="line2d_11">
    <path d="M 112.854557 247.109682 
L 90.218471 243.11833 
" clip-path="url(#pfcd50533f0)" style="fill: none; stroke: #808080; stroke-width: 0.6; stroke-linecap: square"/>
   </g>
   <g id="line2d_12">
    <path d="M 110.340086 275.850215 
L 85.271902 275.850215 
" clip-path="url(#pfcd50533f0)" style="fill: none; stroke: #808080; stroke-width: 0.6; stroke-linecap: square"/>
   </g>
   <g id="line2d_13">
    <path d="M 112.854557 304.590747 
L 88.695316 308.850673 
" clip-path="url(#pfcd50533f0)" style="fill: none; stroke: #808080; stroke-width: 0.6; stroke-linecap: square"/>
   </g>
   <g id="line2d_14">
    <path d="M 120.321568 332.458013 
L 100.159931 339.796248 
" clip-path="url(#pfcd50533f0)" style="fill: none; stroke: #808080; stroke-width: 0.6; stroke-linecap: square"/>
   </g>
   <g id="line2d_15">
    <path d="M 132.514238 358.605279 
L 118.560108 366.6617 
" clip-path="url(#pfcd50533f0)" style="fill: none; stroke: #808080; stroke-width: 0.6; stroke-linecap: square"/>
   </g>
   <g id="line2d_16">
    <path d="M 149.0621 382.238075 
L 142.249475 387.954546 
" clip-path="url(#pfcd50533f0)" style="fill: none; stroke: #808080; stroke-width: 0.6; stroke-linecap: square"/>
   </g>
   <g id="line2d_17">
    <path d="M 169.462355 402.638329 
L 169.319035 402.809131 
" clip-path="url(#pfcd50533f0)" style="fill: none; stroke: #808080; stroke-width: 0.6; stroke-linecap: square"/>
   </g>
   <g id="line2d_18">
    <path d="M 193.09515 419.186191 
L 197.836712 410.973565 
" clip-path="url(#pfcd50533f0)" style="fill: none; stroke: #808080; stroke-width: 0.6; stroke-linecap: square"/>
   </g>
   <g id="line2d_19">
    <path d="M 219.242417 431.378861 
L 226.025603 412.74221 
" clip-path="url(#pfcd50533f0)" style="fill: none; stroke: #808080; stroke-width: 0.6; stroke-linecap: square"/>
   </g>
   <g id="line2d_20">
    <path d="M 247.109682 438.845873 
L 252.401753 408.833047 
" clip-path="url(#pfcd50533f0)" style="fill: none; stroke: #808080; stroke-width: 0.6; stroke-linecap: square"/>
   </g>
   <g id="line2d_21">
    <path d="M 275.850215 441.360343 
L 275.850215 400.283745 
" clip-path="url(#pfcd50533f0)" style="fill: none; stroke: #808080; stroke-width: 0.6; stroke-linecap: square"/>
   </g>
   <g id="line2d_22">
    <path d="M 275.850215 76.478606 
L 293.247549 76.997767 
L 310.636499 78.56739 
L 328.00117 81.2202 
L 345.310493 85.009668 
L 362.513998 89.999132 
L 379.536236 96.260757 
L 396.27434 103.866739 
L 412.60175 112.876081 
L 428.36556 123.334869 
L 443.39405 135.264244 
L 457.50128 148.656769 
L 470.49344 163.472896 
L 482.178524 179.637744 
L 492.370331 197.043337 
L 500.898383 215.548739 
L 507.609622 234.984778 
L 512.378723 255.156652 
L 515.109439 275.850215 
L 515.714932 296.835658 
L 514.141705 317.867434 
L 510.392531 338.695639 
L 504.503772 359.073303 
L 496.543088 378.760991 
L 486.607867 397.531202 
L 474.82069 415.170841 
L 461.328345 431.484845 
L 446.300071 446.300071 
L 429.917617 459.460595 
L 412.383617 470.840122 
L 393.907884 480.332096 
L 374.711645 487.859236 
L 355.021804 493.37237 
L 335.066759 496.849369 
L 315.073931 498.298967 
L 295.264582 497.757447 
L 275.850215 495.288671 
" clip-path="url(#pfcd50533f0)" style="fill: none; stroke: #000000; stroke-linecap: square"/>
   </g>
   <g id="line2d_23">
    <path d="M 275.850215 110.340086 
L 275.850215 76.478606 
" clip-path="url(#pfcd50533f0)" style="fill: none; stroke: #808080; stroke-width: 0.6; stroke-linecap: square"/>
   </g>
   <g id="line2d_24">
    <path d="M 304.590747 112.854557 
L 310.636499 78.56739 
" clip-path="url(#pfcd50533f0)" style="fill: none; stroke: #808080; stroke-width: 0.6; stroke-linecap: square"/>
   </g>
   <g id="line2d_25">
    <path d="M 332.458013 120.321568 
L 345.310493 85.009668 
" clip-path="url(#pfcd50533f0)" style="fill: none; stroke: #808080; stroke-width: 0.6; stroke-linecap: square"/>
   </g>
   <g id="line2d_26">
    <path d="M 358.605279 132.514238 
L 379.536236 96.260757 
" clip-path="url(#pfcd50533f0)" style="fill: none; stroke: #808080; stroke-width: 0.6; stroke-linecap: square"/>
   </g>
   <g id="line2d_27">
    <path d="M 382.238075 149.0621 
L 412.60175 112.876081 
" clip-path="url(#pfcd50533f0)" style="fill: none; stroke: #808080; stroke-width: 0.6; stroke-linecap: square"/>
   </g>
   <g id="line2d_28">
    <path d="M 402.638329 169.462355 
L 443.39405 135.264244 
" clip-path="url(#pfcd50533f0)" style="fill: none; stroke: #808080; stroke-width: 0.6; stroke-linecap: square"/>
   </g>
   <g id="line2d_29">
    <path d="M 419.186191 193.09515 
L 470.49344 163.472896 
" clip-path="url(#pfcd50533f0)" style="fill: none; stroke: #808080; stroke-width: 0.6; stroke-linecap: square"/>
   </g>
   <g id="line2d_30">
    <path d="M 431.378861 219.242417 
L 492.370331 197.043337 
" clip-path="url(#pfcd50533f0)" style="fill: none; stroke: #808080; stroke-width: 0.6; stroke-linecap: square"/>
   </g>
   <g id="line2d_31">
    <path d="M 438.845873 247.109682 
L 507.609622 234.984778 
" clip-path="url(#pfcd50533f0)" style="fill: none; stroke: #808080; stroke-width: 0.6; stroke-linecap: square"/>
   </g>
   <g id="line2d_32">
    <path d="M 441.360343 275.850215 
L 515.109439 275.850215 
" clip-path="url(#pfcd50533f0)" style="fill: none; stroke: #808080; stroke-width: 0.6; stroke-linecap: square"/>
   </g>
   <g id="line2d_33">
    <path d="M 438.845873 304.590747 
L 514.141705 317.867434 
" clip-path="url(#pfcd50533f0)" style="fill: none; stroke: #808080; stroke-width: 0.6; stroke-linecap: square"/>
   </g>
   <g id="line2d_34">
    <path d="M 431.378861 332.458013 
L 504.503772 359.073303 
" clip-path="url(#pfcd50533f0)" style="fill: none; stroke: #808080; stroke-width: 0.6; stroke-linecap: square"/>
   </g>
   <g id="line2d_35">
    <path d="M 419.186191 358.605279 
L 486.607867 397.531202 
" clip-path="url(#pfcd50533f0)" style="fill: none; stroke: #808080; stroke-width: 0.6; stroke-linecap: square"/>
   </g>
   <g id="line2d_36">
    <path d="M 402.638329 382.238075 
L 461.328345 431.484845 
" clip-path="url(#pfcd50533f0)" style="fill: none; stroke: #808080; stroke-width: 0.6; stroke-linecap: square"/>
   </g>
   <g id="line2d_37">
    <path d="M 382.238075 402.638329 
L 429.917617 459.460595 
" clip-path="url(#pfcd50533f0)" style="fill: none; stroke: #808080; stroke-width: 0.6; stroke-linecap: square"/>
   </g>
   <g id="line2d_38">
    <path d="M 358.605279 419.186191 
L 393.907884 480.332096 
" clip-path="url(#pfcd50533f0)" style="fill: none; stroke: #808080; stroke-width: 0.6; stroke-linecap: square"/>
   </g>
   <g id="line2d_39">
    <path d="M 332.458013 431.378861 
L 355.021804 493.37237 
" clip-path="url(#pfcd50533f0)" style="fill: none; stroke: #808080; stroke-width: 0.6; stroke-linecap: square"/>
   </g>
   <g id="line2d_40">
    <path d="M 304.590747 438.845873 
L 315.073931 498.298967 
" clip-path="url(#pfcd50533f0)" style="fill: none; stroke: #808080; stroke-width: 0.6; stroke-linecap: square"/>
   </g>
   <g id="line2d_41">
    <path d="M 275.850215 441.360343 
L 275.850215 495.288671 
" clip-path="url(#pfcd50533f0)" style="fill: none; stroke: #808080; stroke-width: 0.6; stroke-linecap: square"/>
   </g>
   <g id="text_1">
    <!-- 90.0 -->
    <g transform="translate(260.100215 151.102357) scale(0.18 -0.18)">
     <defs>
      <path id="TimesNewRomanPSMT-39" d="M 338 -88 
L 338 28 
Q 744 34 1094 217 
Q 1444 400 1770 856 
Q 2097 1313 2225 1859 
Q 1734 1544 1338 1544 
Q 891 1544 572 1889 
Q 253 2234 253 2806 
Q 253 3363 572 3797 
Q 956 4325 1575 4325 
Q 2097 4325 2469 3894 
Q 2925 3359 2925 2575 
Q 2925 1869 2578 1258 
Q 2231 647 1613 244 
Q 1109 -88 516 -88 
L 338 -88 
z
M 2275 2091 
Q 2331 2497 2331 2741 
Q 2331 3044 2228 3395 
Q 2125 3747 1936 3934 
Q 1747 4122 1506 4122 
Q 1228 4122 1018 3872 
Q 809 3622 809 3128 
Q 809 2469 1088 2097 
Q 1291 1828 1588 1828 
Q 1731 1828 1928 1897 
Q 2125 1966 2275 2091 
z
" transform="scale(0.015625)"/>
      <path id="TimesNewRomanPSMT-30" d="M 231 2094 
Q 231 2819 450 3342 
Q 669 3866 1031 4122 
Q 1313 4325 1613 4325 
Q 2100 4325 2488 3828 
Q 2972 3213 2972 2159 
Q 2972 1422 2759 906 
Q 2547 391 2217 158 
Q 1888 -75 1581 -75 
Q 975 -75 572 641 
Q 231 1244 231 2094 
z
M 844 2016 
Q 844 1141 1059 588 
Q 1238 122 1591 122 
Q 1759 122 1940 273 
Q 2122 425 2216 781 
Q 2359 1319 2359 2297 
Q 2359 3022 2209 3506 
Q 2097 3866 1919 4016 
Q 1791 4119 1609 4119 
Q 1397 4119 1231 3928 
Q 1006 3669 925 3112 
Q 844 2556 844 2016 
z
" transform="scale(0.015625)"/>
      <path id="TimesNewRomanPSMT-2e" d="M 800 606 
Q 947 606 1047 504 
Q 1147 403 1147 259 
Q 1147 116 1045 14 
Q 944 -88 800 -88 
Q 656 -88 554 14 
Q 453 116 453 259 
Q 453 406 554 506 
Q 656 606 800 606 
z
" transform="scale(0.015625)"/>
     </defs>
     <use xlink:href="#TimesNewRomanPSMT-39"/>
     <use xlink:href="#TimesNewRomanPSMT-30" x="50"/>
     <use xlink:href="#TimesNewRomanPSMT-2e" x="100"/>
     <use xlink:href="#TimesNewRomanPSMT-30" x="125"/>
    </g>
   </g>
   <g id="text_2">
    <!-- 78.0 -->
    <g transform="translate(225.818058 152.231682) scale(0.18 -0.18)">
     <defs>
      <path id="TimesNewRomanPSMT-37" d="M 644 4238 
L 2916 4238 
L 2916 4119 
L 1503 -88 
L 1153 -88 
L 2419 3728 
L 1253 3728 
Q 900 3728 750 3644 
Q 488 3500 328 3200 
L 238 3234 
L 644 4238 
z
" transform="scale(0.015625)"/>
      <path id="TimesNewRomanPSMT-38" d="M 1228 2134 
Q 725 2547 579 2797 
Q 434 3047 434 3316 
Q 434 3728 753 4026 
Q 1072 4325 1600 4325 
Q 2113 4325 2425 4047 
Q 2738 3769 2738 3413 
Q 2738 3175 2569 2928 
Q 2400 2681 1866 2347 
Q 2416 1922 2594 1678 
Q 2831 1359 2831 1006 
Q 2831 559 2490 242 
Q 2150 -75 1597 -75 
Q 994 -75 656 303 
Q 388 606 388 966 
Q 388 1247 577 1523 
Q 766 1800 1228 2134 
z
M 1719 2469 
Q 2094 2806 2194 3001 
Q 2294 3197 2294 3444 
Q 2294 3772 2109 3958 
Q 1925 4144 1606 4144 
Q 1288 4144 1088 3959 
Q 888 3775 888 3528 
Q 888 3366 970 3203 
Q 1053 3041 1206 2894 
L 1719 2469 
z
M 1375 2016 
Q 1116 1797 991 1539 
Q 866 1281 866 981 
Q 866 578 1086 336 
Q 1306 94 1647 94 
Q 1984 94 2187 284 
Q 2391 475 2391 747 
Q 2391 972 2272 1150 
Q 2050 1481 1375 2016 
z
" transform="scale(0.015625)"/>
     </defs>
     <use xlink:href="#TimesNewRomanPSMT-37"/>
     <use xlink:href="#TimesNewRomanPSMT-38" x="50"/>
     <use xlink:href="#TimesNewRomanPSMT-2e" x="100"/>
     <use xlink:href="#TimesNewRomanPSMT-30" x="125"/>
    </g>
   </g>
   <g id="text_3">
    <!-- 45.5 -->
    <g transform="translate(189.28443 157.517897) scale(0.18 -0.18)">
     <defs>
      <path id="TimesNewRomanPSMT-34" d="M 2978 1563 
L 2978 1119 
L 2409 1119 
L 2409 0 
L 1894 0 
L 1894 1119 
L 100 1119 
L 100 1519 
L 2066 4325 
L 2409 4325 
L 2409 1563 
L 2978 1563 
z
M 1894 1563 
L 1894 3666 
L 406 1563 
L 1894 1563 
z
" transform="scale(0.015625)"/>
      <path id="TimesNewRomanPSMT-35" d="M 2778 4238 
L 2534 3706 
L 1259 3706 
L 981 3138 
Q 1809 3016 2294 2522 
Q 2709 2097 2709 1522 
Q 2709 1188 2573 903 
Q 2438 619 2231 419 
Q 2025 219 1772 97 
Q 1413 -75 1034 -75 
Q 653 -75 479 54 
Q 306 184 306 341 
Q 306 428 378 495 
Q 450 563 559 563 
Q 641 563 702 538 
Q 763 513 909 409 
Q 1144 247 1384 247 
Q 1750 247 2026 523 
Q 2303 800 2303 1197 
Q 2303 1581 2056 1914 
Q 1809 2247 1375 2428 
Q 1034 2569 447 2591 
L 1259 4238 
L 2778 4238 
z
" transform="scale(0.015625)"/>
     </defs>
     <use xlink:href="#TimesNewRomanPSMT-34"/>
     <use xlink:href="#TimesNewRomanPSMT-35" x="50"/>
     <use xlink:href="#TimesNewRomanPSMT-2e" x="100"/>
     <use xlink:href="#TimesNewRomanPSMT-35" x="125"/>
    </g>
   </g>
   <g id="text_4">
    <!-- 1.6 -->
    <g transform="translate(155.694403 171.268622) scale(0.18 -0.18)">
     <defs>
      <path id="TimesNewRomanPSMT-31" d="M 750 3822 
L 1781 4325 
L 1884 4325 
L 1884 747 
Q 1884 391 1914 303 
Q 1944 216 2037 169 
Q 2131 122 2419 116 
L 2419 0 
L 825 0 
L 825 116 
Q 1125 122 1212 167 
Q 1300 213 1334 289 
Q 1369 366 1369 747 
L 1369 3034 
Q 1369 3497 1338 3628 
Q 1316 3728 1258 3775 
Q 1200 3822 1119 3822 
Q 1003 3822 797 3725 
L 750 3822 
z
" transform="scale(0.015625)"/>
      <path id="TimesNewRomanPSMT-36" d="M 2869 4325 
L 2869 4209 
Q 2456 4169 2195 4045 
Q 1934 3922 1679 3669 
Q 1425 3416 1258 3105 
Q 1091 2794 978 2366 
Q 1428 2675 1881 2675 
Q 2316 2675 2634 2325 
Q 2953 1975 2953 1425 
Q 2953 894 2631 456 
Q 2244 -75 1606 -75 
Q 1172 -75 869 213 
Q 275 772 275 1663 
Q 275 2231 503 2743 
Q 731 3256 1154 3653 
Q 1578 4050 1965 4187 
Q 2353 4325 2688 4325 
L 2869 4325 
z
M 925 2138 
Q 869 1716 869 1456 
Q 869 1156 980 804 
Q 1091 453 1309 247 
Q 1469 100 1697 100 
Q 1969 100 2183 356 
Q 2397 613 2397 1088 
Q 2397 1622 2184 2012 
Q 1972 2403 1581 2403 
Q 1463 2403 1327 2353 
Q 1191 2303 925 2138 
z
" transform="scale(0.015625)"/>
     </defs>
     <use xlink:href="#TimesNewRomanPSMT-31"/>
     <use xlink:href="#TimesNewRomanPSMT-2e" x="50"/>
     <use xlink:href="#TimesNewRomanPSMT-36" x="75"/>
    </g>
   </g>
   <g id="text_5">
    <!-- -41.9 -->
    <g transform="translate(93.968004 185.988113) scale(0.18 -0.18)">
     <defs>
      <path id="TimesNewRomanPSMT-2d" d="M 259 1672 
L 1875 1672 
L 1875 1200 
L 259 1200 
L 259 1672 
z
" transform="scale(0.015625)"/>
     </defs>
     <use xlink:href="#TimesNewRomanPSMT-2d"/>
     <use xlink:href="#TimesNewRomanPSMT-34" x="33.300781"/>
     <use xlink:href="#TimesNewRomanPSMT-31" x="83.300781"/>
     <use xlink:href="#TimesNewRomanPSMT-2e" x="133.300781"/>
     <use xlink:href="#TimesNewRomanPSMT-39" x="158.300781"/>
    </g>
   </g>
   <g id="text_6">
    <!-- -74.4 -->
    <g transform="translate(66.289386 229.045947) scale(0.18 -0.18)">
     <use xlink:href="#TimesNewRomanPSMT-2d"/>
     <use xlink:href="#TimesNewRomanPSMT-37" x="33.300781"/>
     <use xlink:href="#TimesNewRomanPSMT-34" x="83.300781"/>
     <use xlink:href="#TimesNewRomanPSMT-2e" x="133.300781"/>
     <use xlink:href="#TimesNewRomanPSMT-34" x="158.300781"/>
    </g>
   </g>
   <g id="text_7">
    <!-- -88.8 -->
    <g transform="translate(55.491175 280.174433) scale(0.18 -0.18)">
     <use xlink:href="#TimesNewRomanPSMT-2d"/>
     <use xlink:href="#TimesNewRomanPSMT-38" x="33.300781"/>
     <use xlink:href="#TimesNewRomanPSMT-38" x="83.300781"/>
     <use xlink:href="#TimesNewRomanPSMT-2e" x="133.300781"/>
     <use xlink:href="#TimesNewRomanPSMT-38" x="158.300781"/>
    </g>
   </g>
   <g id="text_8">
    <!-- -82.5 -->
    <g transform="translate(64.070268 331.897531) scale(0.18 -0.18)">
     <defs>
      <path id="TimesNewRomanPSMT-32" d="M 2934 816 
L 2638 0 
L 138 0 
L 138 116 
Q 1241 1122 1691 1759 
Q 2141 2397 2141 2925 
Q 2141 3328 1894 3587 
Q 1647 3847 1303 3847 
Q 991 3847 742 3664 
Q 494 3481 375 3128 
L 259 3128 
Q 338 3706 661 4015 
Q 984 4325 1469 4325 
Q 1984 4325 2329 3994 
Q 2675 3663 2675 3213 
Q 2675 2891 2525 2569 
Q 2294 2063 1775 1497 
Q 997 647 803 472 
L 1909 472 
Q 2247 472 2383 497 
Q 2519 522 2628 598 
Q 2738 675 2819 816 
L 2934 816 
z
" transform="scale(0.015625)"/>
     </defs>
     <use xlink:href="#TimesNewRomanPSMT-2d"/>
     <use xlink:href="#TimesNewRomanPSMT-38" x="33.300781"/>
     <use xlink:href="#TimesNewRomanPSMT-32" x="83.300781"/>
     <use xlink:href="#TimesNewRomanPSMT-2e" x="133.300781"/>
     <use xlink:href="#TimesNewRomanPSMT-35" x="158.300781"/>
    </g>
   </g>
   <g id="text_9">
    <!-- -57.1 -->
    <g transform="translate(90.257658 376.502923) scale(0.18 -0.18)">
     <use xlink:href="#TimesNewRomanPSMT-2d"/>
     <use xlink:href="#TimesNewRomanPSMT-35" x="33.300781"/>
     <use xlink:href="#TimesNewRomanPSMT-37" x="83.300781"/>
     <use xlink:href="#TimesNewRomanPSMT-2e" x="133.300781"/>
     <use xlink:href="#TimesNewRomanPSMT-31" x="158.300781"/>
    </g>
   </g>
   <g id="text_10">
    <!-- -16.7 -->
    <g transform="translate(128.935106 408.342823) scale(0.18 -0.18)">
     <use xlink:href="#TimesNewRomanPSMT-2d"/>
     <use xlink:href="#TimesNewRomanPSMT-31" x="33.300781"/>
     <use xlink:href="#TimesNewRomanPSMT-36" x="83.300781"/>
     <use xlink:href="#TimesNewRomanPSMT-2e" x="133.300781"/>
     <use xlink:href="#TimesNewRomanPSMT-37" x="158.300781"/>
    </g>
   </g>
   <g id="text_11">
    <!-- 33.6 -->
    <g transform="translate(187.603716 405.742052) scale(0.18 -0.18)">
     <defs>
      <path id="TimesNewRomanPSMT-33" d="M 325 3431 
Q 506 3859 782 4092 
Q 1059 4325 1472 4325 
Q 1981 4325 2253 3994 
Q 2459 3747 2459 3466 
Q 2459 3003 1878 2509 
Q 2269 2356 2469 2072 
Q 2669 1788 2669 1403 
Q 2669 853 2319 450 
Q 1863 -75 997 -75 
Q 569 -75 414 31 
Q 259 138 259 259 
Q 259 350 332 419 
Q 406 488 509 488 
Q 588 488 669 463 
Q 722 447 909 348 
Q 1097 250 1169 231 
Q 1284 197 1416 197 
Q 1734 197 1970 444 
Q 2206 691 2206 1028 
Q 2206 1275 2097 1509 
Q 2016 1684 1919 1775 
Q 1784 1900 1550 2001 
Q 1316 2103 1072 2103 
L 972 2103 
L 972 2197 
Q 1219 2228 1467 2375 
Q 1716 2522 1828 2728 
Q 1941 2934 1941 3181 
Q 1941 3503 1739 3701 
Q 1538 3900 1238 3900 
Q 753 3900 428 3381 
L 325 3431 
z
" transform="scale(0.015625)"/>
     </defs>
     <use xlink:href="#TimesNewRomanPSMT-33"/>
     <use xlink:href="#TimesNewRomanPSMT-33" x="50"/>
     <use xlink:href="#TimesNewRomanPSMT-2e" x="100"/>
     <use xlink:href="#TimesNewRomanPSMT-36" x="125"/>
    </g>
   </g>
   <g id="text_12">
    <!-- 89.1 -->
    <g transform="translate(226.625238 405.104747) scale(0.18 -0.18)">
     <use xlink:href="#TimesNewRomanPSMT-38"/>
     <use xlink:href="#TimesNewRomanPSMT-39" x="50"/>
     <use xlink:href="#TimesNewRomanPSMT-2e" x="100"/>
     <use xlink:href="#TimesNewRomanPSMT-31" x="125"/>
    </g>
   </g>
   <g id="text_13">
    <!-- 145.5 -->
    <g transform="translate(255.600215 393.573955) scale(0.18 -0.18)">
     <use xlink:href="#TimesNewRomanPSMT-31"/>
     <use xlink:href="#TimesNewRomanPSMT-34" x="50"/>
     <use xlink:href="#TimesNewRomanPSMT-35" x="100"/>
     <use xlink:href="#TimesNewRomanPSMT-2e" x="150"/>
     <use xlink:href="#TimesNewRomanPSMT-35" x="175"/>
    </g>
   </g>
   <g id="text_14">
    <!-- 239.4 -->
    <g transform="translate(255.600215 64.251812) scale(0.18 -0.18)">
     <use xlink:href="#TimesNewRomanPSMT-32"/>
     <use xlink:href="#TimesNewRomanPSMT-33" x="50"/>
     <use xlink:href="#TimesNewRomanPSMT-39" x="100"/>
     <use xlink:href="#TimesNewRomanPSMT-2e" x="150"/>
     <use xlink:href="#TimesNewRomanPSMT-34" x="175"/>
    </g>
   </g>
   <g id="text_15">
    <!-- 254.4 -->
    <g transform="translate(312.034887 69.557368) scale(0.18 -0.18)">
     <use xlink:href="#TimesNewRomanPSMT-32"/>
     <use xlink:href="#TimesNewRomanPSMT-35" x="50"/>
     <use xlink:href="#TimesNewRomanPSMT-34" x="100"/>
     <use xlink:href="#TimesNewRomanPSMT-2e" x="150"/>
     <use xlink:href="#TimesNewRomanPSMT-34" x="175"/>
    </g>
   </g>
   <g id="text_16">
    <!-- 296.0 -->
    <g transform="translate(367.561742 86.251379) scale(0.18 -0.18)">
     <use xlink:href="#TimesNewRomanPSMT-32"/>
     <use xlink:href="#TimesNewRomanPSMT-39" x="50"/>
     <use xlink:href="#TimesNewRomanPSMT-36" x="100"/>
     <use xlink:href="#TimesNewRomanPSMT-2e" x="150"/>
     <use xlink:href="#TimesNewRomanPSMT-30" x="175"/>
    </g>
   </g>
   <g id="text_17">
    <!-- 354.8 -->
    <g transform="translate(419.818893 115.955755) scale(0.18 -0.18)">
     <use xlink:href="#TimesNewRomanPSMT-33"/>
     <use xlink:href="#TimesNewRomanPSMT-35" x="50"/>
     <use xlink:href="#TimesNewRomanPSMT-34" x="100"/>
     <use xlink:href="#TimesNewRomanPSMT-2e" x="150"/>
     <use xlink:href="#TimesNewRomanPSMT-38" x="175"/>
    </g>
   </g>
   <g id="text_18">
    <!-- 418.9 -->
    <g transform="translate(464.577037 159.521608) scale(0.18 -0.18)">
     <use xlink:href="#TimesNewRomanPSMT-34"/>
     <use xlink:href="#TimesNewRomanPSMT-31" x="50"/>
     <use xlink:href="#TimesNewRomanPSMT-38" x="100"/>
     <use xlink:href="#TimesNewRomanPSMT-2e" x="150"/>
     <use xlink:href="#TimesNewRomanPSMT-39" x="175"/>
    </g>
   </g>
   <g id="text_19">
    <!-- 477.1 -->
    <g transform="translate(496.635434 215.589241) scale(0.18 -0.18)">
     <use xlink:href="#TimesNewRomanPSMT-34"/>
     <use xlink:href="#TimesNewRomanPSMT-37" x="50"/>
     <use xlink:href="#TimesNewRomanPSMT-37" x="100"/>
     <use xlink:href="#TimesNewRomanPSMT-2e" x="150"/>
     <use xlink:href="#TimesNewRomanPSMT-31" x="175"/>
    </g>
   </g>
   <g id="text_20">
    <!-- 521.5 -->
    <g transform="translate(511.410452 280.174433) scale(0.18 -0.18)">
     <use xlink:href="#TimesNewRomanPSMT-35"/>
     <use xlink:href="#TimesNewRomanPSMT-32" x="50"/>
     <use xlink:href="#TimesNewRomanPSMT-31" x="100"/>
     <use xlink:href="#TimesNewRomanPSMT-2e" x="150"/>
     <use xlink:href="#TimesNewRomanPSMT-35" x="175"/>
    </g>
   </g>
   <g id="text_21">
    <!-- 546.6 -->
    <g transform="translate(506.129581 347.303575) scale(0.18 -0.18)">
     <use xlink:href="#TimesNewRomanPSMT-35"/>
     <use xlink:href="#TimesNewRomanPSMT-34" x="50"/>
     <use xlink:href="#TimesNewRomanPSMT-36" x="100"/>
     <use xlink:href="#TimesNewRomanPSMT-2e" x="150"/>
     <use xlink:href="#TimesNewRomanPSMT-36" x="175"/>
    </g>
   </g>
   <g id="text_22">
    <!-- 550.5 -->
    <g transform="translate(480.691465 410.130927) scale(0.18 -0.18)">
     <use xlink:href="#TimesNewRomanPSMT-35"/>
     <use xlink:href="#TimesNewRomanPSMT-35" x="50"/>
     <use xlink:href="#TimesNewRomanPSMT-30" x="100"/>
     <use xlink:href="#TimesNewRomanPSMT-2e" x="150"/>
     <use xlink:href="#TimesNewRomanPSMT-35" x="175"/>
    </g>
   </g>
   <g id="text_23">
    <!-- 534.1 -->
    <g transform="translate(437.753404 462.327623) scale(0.18 -0.18)">
     <use xlink:href="#TimesNewRomanPSMT-35"/>
     <use xlink:href="#TimesNewRomanPSMT-33" x="50"/>
     <use xlink:href="#TimesNewRomanPSMT-34" x="100"/>
     <use xlink:href="#TimesNewRomanPSMT-2e" x="150"/>
     <use xlink:href="#TimesNewRomanPSMT-31" x="175"/>
    </g>
   </g>
   <g id="text_24">
    <!-- 499.2 -->
    <g transform="translate(381.93339 498.989912) scale(0.18 -0.18)">
     <use xlink:href="#TimesNewRomanPSMT-34"/>
     <use xlink:href="#TimesNewRomanPSMT-39" x="50"/>
     <use xlink:href="#TimesNewRomanPSMT-39" x="100"/>
     <use xlink:href="#TimesNewRomanPSMT-2e" x="150"/>
     <use xlink:href="#TimesNewRomanPSMT-32" x="175"/>
    </g>
   </g>
   <g id="text_25">
    <!-- 447.5 -->
    <g transform="translate(319.100477 517.160638) scale(0.18 -0.18)">
     <use xlink:href="#TimesNewRomanPSMT-34"/>
     <use xlink:href="#TimesNewRomanPSMT-34" x="50"/>
     <use xlink:href="#TimesNewRomanPSMT-37" x="100"/>
     <use xlink:href="#TimesNewRomanPSMT-2e" x="150"/>
     <use xlink:href="#TimesNewRomanPSMT-35" x="175"/>
    </g>
   </g>
   <g id="text_26">
    <!-- 381.3 -->
    <g transform="translate(255.600215 516.163903) scale(0.18 -0.18)">
     <use xlink:href="#TimesNewRomanPSMT-33"/>
     <use xlink:href="#TimesNewRomanPSMT-38" x="50"/>
     <use xlink:href="#TimesNewRomanPSMT-31" x="100"/>
     <use xlink:href="#TimesNewRomanPSMT-2e" x="150"/>
     <use xlink:href="#TimesNewRomanPSMT-33" x="175"/>
    </g>
   </g>
   <g id="text_27">
    <!-- kN·m -->
    <g transform="translate(208.810026 281.135371) scale(0.22 -0.22)">
     <defs>
      <path id="TimesNewRomanPSMT-6b" d="M 1047 4444 
L 1047 1597 
L 1775 2259 
Q 2006 2472 2044 2528 
Q 2069 2566 2069 2603 
Q 2069 2666 2017 2711 
Q 1966 2756 1847 2763 
L 1847 2863 
L 3091 2863 
L 3091 2763 
Q 2834 2756 2664 2684 
Q 2494 2613 2291 2428 
L 1556 1750 
L 2291 822 
Q 2597 438 2703 334 
Q 2853 188 2966 144 
Q 3044 113 3238 113 
L 3238 0 
L 1847 0 
L 1847 113 
Q 1966 116 2008 148 
Q 2050 181 2050 241 
Q 2050 313 1925 472 
L 1047 1594 
L 1047 644 
Q 1047 366 1086 278 
Q 1125 191 1197 153 
Q 1269 116 1509 113 
L 1509 0 
L 53 0 
L 53 113 
Q 272 113 381 166 
Q 447 200 481 272 
Q 528 375 528 628 
L 528 3234 
Q 528 3731 506 3842 
Q 484 3953 434 3995 
Q 384 4038 303 4038 
Q 238 4038 106 3984 
L 53 4094 
L 903 4444 
L 1047 4444 
z
" transform="scale(0.015625)"/>
      <path id="TimesNewRomanPSMT-4e" d="M -84 4238 
L 1066 4238 
L 3656 1059 
L 3656 3503 
Q 3656 3894 3569 3991 
Q 3453 4122 3203 4122 
L 3056 4122 
L 3056 4238 
L 4531 4238 
L 4531 4122 
L 4381 4122 
Q 4113 4122 4000 3959 
Q 3931 3859 3931 3503 
L 3931 -69 
L 3819 -69 
L 1025 3344 
L 1025 734 
Q 1025 344 1109 247 
Q 1228 116 1475 116 
L 1625 116 
L 1625 0 
L 150 0 
L 150 116 
L 297 116 
Q 569 116 681 278 
Q 750 378 750 734 
L 750 3681 
Q 566 3897 470 3965 
Q 375 4034 191 4094 
Q 100 4122 -84 4122 
L -84 4238 
z
" transform="scale(0.015625)"/>
      <path id="TimesNewRomanPSMT-b7" d="M 1066 2525 
Q 1203 2525 1298 2429 
Q 1394 2334 1394 2197 
Q 1394 2063 1297 1966 
Q 1200 1869 1066 1869 
Q 931 1869 834 1966 
Q 738 2063 738 2197 
Q 738 2334 833 2429 
Q 928 2525 1066 2525 
z
" transform="scale(0.015625)"/>
      <path id="TimesNewRomanPSMT-6d" d="M 1050 2338 
Q 1363 2650 1419 2697 
Q 1559 2816 1721 2881 
Q 1884 2947 2044 2947 
Q 2313 2947 2506 2790 
Q 2700 2634 2766 2338 
Q 3088 2713 3309 2830 
Q 3531 2947 3766 2947 
Q 3994 2947 4170 2830 
Q 4347 2713 4450 2447 
Q 4519 2266 4519 1878 
L 4519 647 
Q 4519 378 4559 278 
Q 4591 209 4675 161 
Q 4759 113 4950 113 
L 4950 0 
L 3538 0 
L 3538 113 
L 3597 113 
Q 3781 113 3884 184 
Q 3956 234 3988 344 
Q 4000 397 4000 647 
L 4000 1878 
Q 4000 2228 3916 2372 
Q 3794 2572 3525 2572 
Q 3359 2572 3192 2489 
Q 3025 2406 2788 2181 
L 2781 2147 
L 2788 2013 
L 2788 647 
Q 2788 353 2820 281 
Q 2853 209 2943 161 
Q 3034 113 3253 113 
L 3253 0 
L 1806 0 
L 1806 113 
Q 2044 113 2133 169 
Q 2222 225 2256 338 
Q 2272 391 2272 647 
L 2272 1878 
Q 2272 2228 2169 2381 
Q 2031 2581 1784 2581 
Q 1616 2581 1450 2491 
Q 1191 2353 1050 2181 
L 1050 647 
Q 1050 366 1089 281 
Q 1128 197 1204 155 
Q 1281 113 1516 113 
L 1516 0 
L 100 0 
L 100 113 
Q 297 113 375 155 
Q 453 197 493 289 
Q 534 381 534 647 
L 534 1741 
Q 534 2213 506 2350 
Q 484 2453 437 2492 
Q 391 2531 309 2531 
Q 222 2531 100 2484 
L 53 2597 
L 916 2947 
L 1050 2947 
L 1050 2338 
z
" transform="scale(0.015625)"/>
     </defs>
     <use xlink:href="#TimesNewRomanPSMT-6b"/>
     <use xlink:href="#TimesNewRomanPSMT-4e" x="50"/>
     <use xlink:href="#TimesNewRomanPSMT-b7" x="122.216797"/>
     <use xlink:href="#TimesNewRomanPSMT-6d" x="155.517578"/>
    </g>
   </g>
   <g id="text_28">
    <!-- kN -->
    <g transform="translate(303.783684 281.135371) scale(0.22 -0.22)">
     <use xlink:href="#TimesNewRomanPSMT-6b"/>
     <use xlink:href="#TimesNewRomanPSMT-4e" x="50"/>
    </g>
   </g>
  </g>
 </g>
 <defs>
  <clipPath id="pfcd50533f0">
   <rect x="0" y="0" width="551.700429" height="551.700429"/>
  </clipPath>
 </defs>
</svg>
