<?xml version="1.0" encoding="utf-8" standalone="no"?>
<!DOCTYPE svg PUBLIC "-//W3C//DTD SVG 1.1//EN"
  "http://www.w3.org/Graphics/SVG/1.1/DTD/svg11.dtd">
<svg xmlns:xlink="http://www.w3.org/1999/xlink" width="553.490477pt" height="553.490477pt" viewBox="0 0 553.490477 553.490477" xmlns="http://www.w3.org/2000/svg" version="1.1">
 <metadata>
  <rdf:RDF xmlns:dc="http://purl.org/dc/elements/1.1/" xmlns:cc="http://creativecommons.org/ns#" xmlns:rdf="http://www.w3.org/1999/02/22-rdf-syntax-ns#">
   <cc:Work>
    <dc:type rdf:resource="http://purl.org/dc/dcmitype/StillImage"/>
    <dc:date>2026-05-30T14:44:58.110138</dc:date>
    <dc:format>image/svg+xml</dc:format>
    <dc:creator>
     <cc:Agent>
      <dc:title>Matplotlib v3.8.4, https://matplotlib.org/</dc:title>
     </cc:Agent>
    </dc:creator>
   </cc:Work>
  </rdf:RDF>
 </metadata>
 <defs>
  <style type="text/css">*{stroke-linejoin: round; stroke-linecap: butt}</style>
 </defs>
 <g id="figure_1">
  <g id="patch_1">
   <path d="M 0 553.490477 
L 553.490477 553.490477 
L 553.490477 0 
L 0 0 
z
" style="fill: #ffffff"/>
  </g>
  <g id="axes_1">
   <g id="line2d_1">
    <path d="M 430.492593 276.745238 
L 430.416347 271.903818 
L 430.187686 267.067199 
L 429.806835 262.240179 
L 429.274173 257.427546 
L 428.590228 252.634073 
L 427.755678 247.864513 
L 426.771351 243.123599 
L 425.638223 238.416032 
L 424.357419 233.746481 
L 422.930208 229.119577 
L 421.358007 224.53991 
L 419.642374 220.012022 
L 417.78501 215.540404 
L 415.78776 211.12949 
L 413.652602 206.783657 
L 411.381655 202.507213 
L 408.977172 198.304402 
L 406.441536 194.17939 
L 403.777264 190.13627 
L 400.986998 186.179051 
L 398.073504 182.311659 
L 395.039673 178.537929 
L 391.888515 174.861604 
L 388.623153 171.28633 
L 385.246827 167.815654 
L 381.762886 164.453018 
L 378.174785 161.201757 
L 374.486083 158.065095 
L 370.700439 155.046145 
L 366.821606 152.147899 
L 362.853433 149.373233 
L 358.799856 146.724898 
L 354.664894 144.205522 
L 350.452648 141.817603 
L 346.167298 139.56351 
L 341.813092 137.445477 
L 337.39435 135.465607 
L 332.915454 133.625862 
L 328.380847 131.928068 
L 323.795026 130.373907 
L 319.16254 128.964923 
L 314.487983 127.702512 
L 309.775991 126.587926 
L 305.031238 125.622271 
L 300.258431 124.806505 
L 295.462302 124.141436 
L 290.647609 123.627724 
L 285.819127 123.265879 
L 280.981646 123.056261 
L 276.139962 122.999075 
L 271.298879 123.09438 
L 266.463198 123.342081 
L 261.637715 123.741932 
L 256.827216 124.293536 
L 252.036473 124.996347 
L 247.270236 125.849668 
L 242.533233 126.852651 
L 237.830164 128.004302 
L 233.165691 129.30348 
L 228.544442 130.748895 
L 223.971 132.339114 
L 219.449901 134.072559 
L 214.985629 135.947512 
L 210.582613 137.962112 
L 206.245219 140.114362 
L 201.977749 142.402127 
L 197.784436 144.823137 
L 193.669438 147.374993 
L 189.636838 150.055161 
L 185.690635 152.860985 
L 181.834743 155.789681 
L 178.072985 158.838345 
L 174.409094 162.003952 
L 170.846704 165.283364 
L 167.389347 168.673327 
L 164.040452 172.170479 
L 160.803342 175.771352 
L 157.681227 179.472374 
L 154.677203 183.269874 
L 151.79425 187.160086 
L 149.035227 191.139152 
L 146.402871 195.203124 
L 143.899793 199.347972 
L 141.528476 203.569586 
L 139.29127 207.863777 
L 137.190396 212.226287 
L 135.227937 216.652789 
L 133.405839 221.138893 
L 131.72591 225.680149 
L 130.189815 230.272053 
L 128.799079 234.91005 
L 127.55508 239.589541 
L 126.459053 244.305885 
L 125.512085 249.054402 
L 124.715115 253.830384 
L 124.068933 258.629094 
L 123.57418 263.445772 
L 123.231347 268.275641 
L 123.040774 273.11391 
L 123.002649 277.955781 
L 123.117012 282.796451 
L 123.383748 287.63112 
L 123.802593 292.454991 
L 124.373131 297.263282 
L 125.094797 302.051221 
L 125.966875 306.814062 
L 126.988499 311.547079 
L 128.158657 316.245578 
L 129.476188 320.9049 
L 130.939784 325.520423 
L 132.547996 330.087569 
L 134.299226 334.601809 
L 136.19174 339.058664 
L 138.223658 343.453716 
L 140.392967 347.782603 
L 142.697514 352.041033 
L 145.135014 356.224783 
L 147.70305 360.329702 
L 150.399073 364.35172 
L 153.220411 368.286847 
L 156.164264 372.131179 
L 159.227714 375.880905 
L 162.407721 379.532305 
L 165.701132 383.081758 
L 169.104679 386.525743 
L 172.614988 389.860843 
L 176.228577 393.083753 
L 179.941862 396.191274 
L 183.751159 399.180324 
L 187.65269 402.04794 
L 191.642587 404.791276 
L 195.716891 407.407612 
L 199.871561 409.894353 
L 204.102477 412.249033 
L 208.405443 414.469315 
L 212.77619 416.552999 
L 217.210384 418.498017 
L 221.703626 420.302439 
L 226.25146 421.964478 
L 230.849376 423.482483 
L 235.492812 424.854949 
L 240.177165 426.080516 
L 244.897786 427.157967 
L 249.649995 428.086234 
L 254.429077 428.864396 
L 259.230294 429.491681 
L 264.048882 429.967468 
L 268.880064 430.291284 
L 273.719046 430.462808 
L 278.561029 430.48187 
L 283.401212 430.348452 
L 288.234793 430.062684 
L 293.056978 429.624852 
L 297.862985 429.035389 
L 302.648046 428.294879 
L 307.407416 427.404058 
L 312.136375 426.363809 
L 316.830231 425.175163 
L 321.48433 423.839299 
L 326.094055 422.357543 
L 330.654835 420.731364 
L 335.162145 418.962375 
L 339.611516 417.052331 
L 343.998533 415.003126 
L 348.318847 412.816792 
L 352.568172 410.495497 
L 356.742293 408.041546 
L 360.837071 405.45737 
L 364.848443 402.745533 
L 368.772433 399.908726 
L 372.605146 396.949761 
L 376.342783 393.871573 
L 379.981635 390.677215 
L 383.518095 387.369857 
L 386.948654 383.952777 
L 390.269909 380.429365 
L 393.478567 376.803117 
L 396.571446 373.077627 
L 399.545477 369.256592 
L 402.39771 365.343802 
L 405.125318 361.343136 
L 407.725594 357.258564 
L 410.19596 353.094136 
L 412.533964 348.853982 
L 414.73729 344.542309 
L 416.80375 340.163393 
L 418.731296 335.721576 
L 420.518016 331.221265 
L 422.162137 326.666923 
L 423.662029 322.063067 
L 425.016205 317.414263 
L 426.22332 312.725122 
L 427.282179 308.000296 
L 428.19173 303.244469 
L 428.951072 298.46236 
L 429.559451 293.658711 
L 430.016264 288.838287 
L 430.321058 284.005869 
L 430.47353 279.166249 
L 430.492593 276.745238 
L 430.492593 276.745238 
" clip-path="url(#p2369c1d269)" style="fill: none; stroke: #000000; stroke-width: 2; stroke-linecap: square"/>
   </g>
   <g id="line2d_2">
    <path d="M 276.745238 104.119017 
L 261.724916 105.062165 
L 246.966049 107.859062 
L 232.717164 112.430228 
L 219.203592 118.650864 
L 206.614339 126.349039 
L 195.098885 135.329605 
L 184.759007 145.375285 
L 175.652028 156.267042 
L 167.787696 167.787696 
L 161.138605 179.739755 
L 155.640962 191.947111 
L 151.208731 204.266702 
L 147.745649 216.591742 
L 145.146063 228.847056 
L 143.311799 240.991856 
L 142.155526 253.013441 
L 141.610606 264.92249 
L 141.627158 276.745238 
L 142.185201 288.517716 
L 143.28745 300.277447 
L 144.960923 312.056739 
L 147.252986 323.876564 
L 150.230134 335.7402 
L 153.966054 347.631834 
L 158.541123 359.512651 
L 164.030694 371.323971 
L 170.506217 382.98426 
L 178.024851 394.395615 
L 186.630921 405.44182 
L 196.347897 415.997518 
L 207.183413 425.921055 
L 219.119661 435.070211 
L 232.117313 443.298925 
L 246.114519 450.460681 
L 261.026429 456.412053 
L 276.745238 461.018427 
" clip-path="url(#p2369c1d269)" style="fill: none; stroke: #000000; stroke-width: 1.5; stroke-linecap: square"/>
   </g>
   <g id="line2d_3">
    <path d="M 276.745238 122.997884 
L 276.745238 104.119017 
" clip-path="url(#p2369c1d269)" style="fill: none; stroke: #808080; stroke-width: 0.6; stroke-linecap: square"/>
   </g>
   <g id="line2d_4">
    <path d="M 250.04729 125.333652 
L 246.966049 107.859062 
" clip-path="url(#p2369c1d269)" style="fill: none; stroke: #808080; stroke-width: 0.6; stroke-linecap: square"/>
   </g>
   <g id="line2d_5">
    <path d="M 224.160546 132.269984 
L 219.203592 118.650864 
" clip-path="url(#p2369c1d269)" style="fill: none; stroke: #808080; stroke-width: 0.6; stroke-linecap: square"/>
   </g>
   <g id="line2d_6">
    <path d="M 199.871561 143.596123 
L 195.098885 135.329605 
" clip-path="url(#p2369c1d269)" style="fill: none; stroke: #808080; stroke-width: 0.6; stroke-linecap: square"/>
   </g>
   <g id="line2d_7">
    <path d="M 177.918344 158.967932 
L 175.652028 156.267042 
" clip-path="url(#p2369c1d269)" style="fill: none; stroke: #808080; stroke-width: 0.6; stroke-linecap: square"/>
   </g>
   <g id="line2d_8">
    <path d="M 158.967932 177.918344 
L 161.138605 179.739755 
" clip-path="url(#p2369c1d269)" style="fill: none; stroke: #808080; stroke-width: 0.6; stroke-linecap: square"/>
   </g>
   <g id="line2d_9">
    <path d="M 143.596123 199.871561 
L 151.208731 204.266702 
" clip-path="url(#p2369c1d269)" style="fill: none; stroke: #808080; stroke-width: 0.6; stroke-linecap: square"/>
   </g>
   <g id="line2d_10">
    <path d="M 132.269984 224.160546 
L 145.146063 228.847056 
" clip-path="url(#p2369c1d269)" style="fill: none; stroke: #808080; stroke-width: 0.6; stroke-linecap: square"/>
   </g>
   <g id="line2d_11">
    <path d="M 125.333652 250.04729 
L 142.155526 253.013441 
" clip-path="url(#p2369c1d269)" style="fill: none; stroke: #808080; stroke-width: 0.6; stroke-linecap: square"/>
   </g>
   <g id="line2d_12">
    <path d="M 122.997884 276.745238 
L 141.627158 276.745238 
" clip-path="url(#p2369c1d269)" style="fill: none; stroke: #808080; stroke-width: 0.6; stroke-linecap: square"/>
   </g>
   <g id="line2d_13">
    <path d="M 125.333652 303.443186 
L 143.28745 300.277447 
" clip-path="url(#p2369c1d269)" style="fill: none; stroke: #808080; stroke-width: 0.6; stroke-linecap: square"/>
   </g>
   <g id="line2d_14">
    <path d="M 132.269984 329.329931 
L 147.252986 323.876564 
" clip-path="url(#p2369c1d269)" style="fill: none; stroke: #808080; stroke-width: 0.6; stroke-linecap: square"/>
   </g>
   <g id="line2d_15">
    <path d="M 143.596123 353.618916 
L 153.966054 347.631834 
" clip-path="url(#p2369c1d269)" style="fill: none; stroke: #808080; stroke-width: 0.6; stroke-linecap: square"/>
   </g>
   <g id="line2d_16">
    <path d="M 158.967932 375.572133 
L 164.030694 371.323971 
" clip-path="url(#p2369c1d269)" style="fill: none; stroke: #808080; stroke-width: 0.6; stroke-linecap: square"/>
   </g>
   <g id="line2d_17">
    <path d="M 177.918344 394.522545 
L 178.024851 394.395615 
" clip-path="url(#p2369c1d269)" style="fill: none; stroke: #808080; stroke-width: 0.6; stroke-linecap: square"/>
   </g>
   <g id="line2d_18">
    <path d="M 199.871561 409.894353 
L 196.347897 415.997518 
" clip-path="url(#p2369c1d269)" style="fill: none; stroke: #808080; stroke-width: 0.6; stroke-linecap: square"/>
   </g>
   <g id="line2d_19">
    <path d="M 224.160546 421.220493 
L 219.119661 435.070211 
" clip-path="url(#p2369c1d269)" style="fill: none; stroke: #808080; stroke-width: 0.6; stroke-linecap: square"/>
   </g>
   <g id="line2d_20">
    <path d="M 250.04729 428.156825 
L 246.114519 450.460681 
" clip-path="url(#p2369c1d269)" style="fill: none; stroke: #808080; stroke-width: 0.6; stroke-linecap: square"/>
   </g>
   <g id="line2d_21">
    <path d="M 276.745238 430.492593 
L 276.745238 461.018427 
" clip-path="url(#p2369c1d269)" style="fill: none; stroke: #808080; stroke-width: 0.6; stroke-linecap: square"/>
   </g>
   <g id="line2d_22">
    <path d="M 276.745238 468.238534 
L 293.458337 467.776828 
L 310.182485 466.377286 
L 326.920206 464.000765 
L 343.656799 460.583241 
L 360.355475 456.04797 
L 376.950993 450.306697 
L 393.346793 443.269516 
L 409.419014 434.859688 
L 425.013409 425.013409 
L 439.953609 413.693322 
L 454.046136 400.892663 
L 467.087376 386.639323 
L 478.874267 370.999552 
L 489.208674 354.075605 
L 497.908375 336.005722 
L 504.808893 316.959014 
L 509.774944 297.132696 
L 512.701907 276.745238 
L 513.49387 256.032417 
L 512.090311 235.247552 
L 508.491655 214.648973 
L 502.734017 194.49205 
L 494.88668 175.024214 
L 485.05039 156.480203 
L 473.352363 139.079448 
L 459.945258 123.02217 
L 445.005299 108.485178 
L 428.721293 95.62723 
L 411.304065 84.575318 
L 392.971302 75.435791 
L 373.952391 68.283827 
L 354.482155 63.164814 
L 334.796333 60.095604 
L 315.128962 59.060323 
L 295.706755 60.014106 
L 276.745238 62.883102 
" clip-path="url(#p2369c1d269)" style="fill: none; stroke: #000000; stroke-width: 1.5; stroke-linecap: square"/>
   </g>
   <g id="line2d_23">
    <path d="M 276.745238 430.492593 
L 276.745238 468.238534 
" clip-path="url(#p2369c1d269)" style="fill: none; stroke: #808080; stroke-width: 0.6; stroke-linecap: square"/>
   </g>
   <g id="line2d_24">
    <path d="M 303.443186 428.156825 
L 310.182485 466.377286 
" clip-path="url(#p2369c1d269)" style="fill: none; stroke: #808080; stroke-width: 0.6; stroke-linecap: square"/>
   </g>
   <g id="line2d_25">
    <path d="M 329.329931 421.220493 
L 343.656799 460.583241 
" clip-path="url(#p2369c1d269)" style="fill: none; stroke: #808080; stroke-width: 0.6; stroke-linecap: square"/>
   </g>
   <g id="line2d_26">
    <path d="M 353.618916 409.894353 
L 376.950993 450.306697 
" clip-path="url(#p2369c1d269)" style="fill: none; stroke: #808080; stroke-width: 0.6; stroke-linecap: square"/>
   </g>
   <g id="line2d_27">
    <path d="M 375.572133 394.522545 
L 409.419014 434.859688 
" clip-path="url(#p2369c1d269)" style="fill: none; stroke: #808080; stroke-width: 0.6; stroke-linecap: square"/>
   </g>
   <g id="line2d_28">
    <path d="M 394.522545 375.572133 
L 439.953609 413.693322 
" clip-path="url(#p2369c1d269)" style="fill: none; stroke: #808080; stroke-width: 0.6; stroke-linecap: square"/>
   </g>
   <g id="line2d_29">
    <path d="M 409.894353 353.618916 
L 467.087376 386.639323 
" clip-path="url(#p2369c1d269)" style="fill: none; stroke: #808080; stroke-width: 0.6; stroke-linecap: square"/>
   </g>
   <g id="line2d_30">
    <path d="M 421.220493 329.329931 
L 489.208674 354.075605 
" clip-path="url(#p2369c1d269)" style="fill: none; stroke: #808080; stroke-width: 0.6; stroke-linecap: square"/>
   </g>
   <g id="line2d_31">
    <path d="M 428.156825 303.443186 
L 504.808893 316.959014 
" clip-path="url(#p2369c1d269)" style="fill: none; stroke: #808080; stroke-width: 0.6; stroke-linecap: square"/>
   </g>
   <g id="line2d_32">
    <path d="M 430.492593 276.745238 
L 512.701907 276.745238 
" clip-path="url(#p2369c1d269)" style="fill: none; stroke: #808080; stroke-width: 0.6; stroke-linecap: square"/>
   </g>
   <g id="line2d_33">
    <path d="M 428.156825 250.04729 
L 512.090311 235.247552 
" clip-path="url(#p2369c1d269)" style="fill: none; stroke: #808080; stroke-width: 0.6; stroke-linecap: square"/>
   </g>
   <g id="line2d_34">
    <path d="M 421.220493 224.160546 
L 502.734017 194.49205 
" clip-path="url(#p2369c1d269)" style="fill: none; stroke: #808080; stroke-width: 0.6; stroke-linecap: square"/>
   </g>
   <g id="line2d_35">
    <path d="M 409.894353 199.871561 
L 485.05039 156.480203 
" clip-path="url(#p2369c1d269)" style="fill: none; stroke: #808080; stroke-width: 0.6; stroke-linecap: square"/>
   </g>
   <g id="line2d_36">
    <path d="M 394.522545 177.918344 
L 459.945258 123.02217 
" clip-path="url(#p2369c1d269)" style="fill: none; stroke: #808080; stroke-width: 0.6; stroke-linecap: square"/>
   </g>
   <g id="line2d_37">
    <path d="M 375.572133 158.967932 
L 428.721293 95.62723 
" clip-path="url(#p2369c1d269)" style="fill: none; stroke: #808080; stroke-width: 0.6; stroke-linecap: square"/>
   </g>
   <g id="line2d_38">
    <path d="M 353.618916 143.596123 
L 392.971302 75.435791 
" clip-path="url(#p2369c1d269)" style="fill: none; stroke: #808080; stroke-width: 0.6; stroke-linecap: square"/>
   </g>
   <g id="line2d_39">
    <path d="M 329.329931 132.269984 
L 354.482155 63.164814 
" clip-path="url(#p2369c1d269)" style="fill: none; stroke: #808080; stroke-width: 0.6; stroke-linecap: square"/>
   </g>
   <g id="line2d_40">
    <path d="M 303.443186 125.333652 
L 315.128962 59.060323 
" clip-path="url(#p2369c1d269)" style="fill: none; stroke: #808080; stroke-width: 0.6; stroke-linecap: square"/>
   </g>
   <g id="line2d_41">
    <path d="M 276.745238 122.997884 
L 276.745238 62.883102 
" clip-path="url(#p2369c1d269)" style="fill: none; stroke: #808080; stroke-width: 0.6; stroke-linecap: square"/>
   </g>
   <g id="text_1">
    <!-- 90.0 -->
    <g transform="translate(260.995238 96.143447) scale(0.18 -0.18)">
     <defs>
      <path id="TimesNewRomanPSMT-39" d="M 338 -88 
L 338 28 
Q 744 34 1094 217 
Q 1444 400 1770 856 
Q 2097 1313 2225 1859 
Q 1734 1544 1338 1544 
Q 891 1544 572 1889 
Q 253 2234 253 2806 
Q 253 3363 572 3797 
Q 956 4325 1575 4325 
Q 2097 4325 2469 3894 
Q 2925 3359 2925 2575 
Q 2925 1869 2578 1258 
Q 2231 647 1613 244 
Q 1109 -88 516 -88 
L 338 -88 
z
M 2275 2091 
Q 2331 2497 2331 2741 
Q 2331 3044 2228 3395 
Q 2125 3747 1936 3934 
Q 1747 4122 1506 4122 
Q 1228 4122 1018 3872 
Q 809 3622 809 3128 
Q 809 2469 1088 2097 
Q 1291 1828 1588 1828 
Q 1731 1828 1928 1897 
Q 2125 1966 2275 2091 
z
" transform="scale(0.015625)"/>
      <path id="TimesNewRomanPSMT-30" d="M 231 2094 
Q 231 2819 450 3342 
Q 669 3866 1031 4122 
Q 1313 4325 1613 4325 
Q 2100 4325 2488 3828 
Q 2972 3213 2972 2159 
Q 2972 1422 2759 906 
Q 2547 391 2217 158 
Q 1888 -75 1581 -75 
Q 975 -75 572 641 
Q 231 1244 231 2094 
z
M 844 2016 
Q 844 1141 1059 588 
Q 1238 122 1591 122 
Q 1759 122 1940 273 
Q 2122 425 2216 781 
Q 2359 1319 2359 2297 
Q 2359 3022 2209 3506 
Q 2097 3866 1919 4016 
Q 1791 4119 1609 4119 
Q 1397 4119 1231 3928 
Q 1006 3669 925 3112 
Q 844 2556 844 2016 
z
" transform="scale(0.015625)"/>
      <path id="TimesNewRomanPSMT-2e" d="M 800 606 
Q 947 606 1047 504 
Q 1147 403 1147 259 
Q 1147 116 1045 14 
Q 944 -88 800 -88 
Q 656 -88 554 14 
Q 453 116 453 259 
Q 453 406 554 506 
Q 656 606 800 606 
z
" transform="scale(0.015625)"/>
     </defs>
     <use xlink:href="#TimesNewRomanPSMT-39"/>
     <use xlink:href="#TimesNewRomanPSMT-30" x="50"/>
     <use xlink:href="#TimesNewRomanPSMT-2e" x="100"/>
     <use xlink:href="#TimesNewRomanPSMT-30" x="125"/>
    </g>
   </g>
   <g id="text_2">
    <!-- 78.0 -->
    <g transform="translate(213.783745 104.873763) scale(0.18 -0.18)">
     <defs>
      <path id="TimesNewRomanPSMT-37" d="M 644 4238 
L 2916 4238 
L 2916 4119 
L 1503 -88 
L 1153 -88 
L 2419 3728 
L 1253 3728 
Q 900 3728 750 3644 
Q 488 3500 328 3200 
L 238 3234 
L 644 4238 
z
" transform="scale(0.015625)"/>
      <path id="TimesNewRomanPSMT-38" d="M 1228 2134 
Q 725 2547 579 2797 
Q 434 3047 434 3316 
Q 434 3728 753 4026 
Q 1072 4325 1600 4325 
Q 2113 4325 2425 4047 
Q 2738 3769 2738 3413 
Q 2738 3175 2569 2928 
Q 2400 2681 1866 2347 
Q 2416 1922 2594 1678 
Q 2831 1359 2831 1006 
Q 2831 559 2490 242 
Q 2150 -75 1597 -75 
Q 994 -75 656 303 
Q 388 606 388 966 
Q 388 1247 577 1523 
Q 766 1800 1228 2134 
z
M 1719 2469 
Q 2094 2806 2194 3001 
Q 2294 3197 2294 3444 
Q 2294 3772 2109 3958 
Q 1925 4144 1606 4144 
Q 1288 4144 1088 3959 
Q 888 3775 888 3528 
Q 888 3366 970 3203 
Q 1053 3041 1206 2894 
L 1719 2469 
z
M 1375 2016 
Q 1116 1797 991 1539 
Q 866 1281 866 981 
Q 866 578 1086 336 
Q 1306 94 1647 94 
Q 1984 94 2187 284 
Q 2391 475 2391 747 
Q 2391 972 2272 1150 
Q 2050 1481 1375 2016 
z
" transform="scale(0.015625)"/>
     </defs>
     <use xlink:href="#TimesNewRomanPSMT-37"/>
     <use xlink:href="#TimesNewRomanPSMT-38" x="50"/>
     <use xlink:href="#TimesNewRomanPSMT-2e" x="100"/>
     <use xlink:href="#TimesNewRomanPSMT-30" x="125"/>
    </g>
   </g>
   <g id="text_3">
    <!-- 45.5 -->
    <g transform="translate(173.19899 129.001895) scale(0.18 -0.18)">
     <defs>
      <path id="TimesNewRomanPSMT-34" d="M 2978 1563 
L 2978 1119 
L 2409 1119 
L 2409 0 
L 1894 0 
L 1894 1119 
L 100 1119 
L 100 1519 
L 2066 4325 
L 2409 4325 
L 2409 1563 
L 2978 1563 
z
M 1894 1563 
L 1894 3666 
L 406 1563 
L 1894 1563 
z
" transform="scale(0.015625)"/>
      <path id="TimesNewRomanPSMT-35" d="M 2778 4238 
L 2534 3706 
L 1259 3706 
L 981 3138 
Q 1809 3016 2294 2522 
Q 2709 2097 2709 1522 
Q 2709 1188 2573 903 
Q 2438 619 2231 419 
Q 2025 219 1772 97 
Q 1413 -75 1034 -75 
Q 653 -75 479 54 
Q 306 184 306 341 
Q 306 428 378 495 
Q 450 563 559 563 
Q 641 563 702 538 
Q 763 513 909 409 
Q 1144 247 1384 247 
Q 1750 247 2026 523 
Q 2303 800 2303 1197 
Q 2303 1581 2056 1914 
Q 1809 2247 1375 2428 
Q 1034 2569 447 2591 
L 1259 4238 
L 2778 4238 
z
" transform="scale(0.015625)"/>
     </defs>
     <use xlink:href="#TimesNewRomanPSMT-34"/>
     <use xlink:href="#TimesNewRomanPSMT-35" x="50"/>
     <use xlink:href="#TimesNewRomanPSMT-2e" x="100"/>
     <use xlink:href="#TimesNewRomanPSMT-35" x="125"/>
    </g>
   </g>
   <g id="text_4">
    <!-- 1.6 -->
    <g transform="translate(147.840432 163.414651) scale(0.18 -0.18)">
     <defs>
      <path id="TimesNewRomanPSMT-31" d="M 750 3822 
L 1781 4325 
L 1884 4325 
L 1884 747 
Q 1884 391 1914 303 
Q 1944 216 2037 169 
Q 2131 122 2419 116 
L 2419 0 
L 825 0 
L 825 116 
Q 1125 122 1212 167 
Q 1300 213 1334 289 
Q 1369 366 1369 747 
L 1369 3034 
Q 1369 3497 1338 3628 
Q 1316 3728 1258 3775 
Q 1200 3822 1119 3822 
Q 1003 3822 797 3725 
L 750 3822 
z
" transform="scale(0.015625)"/>
      <path id="TimesNewRomanPSMT-36" d="M 2869 4325 
L 2869 4209 
Q 2456 4169 2195 4045 
Q 1934 3922 1679 3669 
Q 1425 3416 1258 3105 
Q 1091 2794 978 2366 
Q 1428 2675 1881 2675 
Q 2316 2675 2634 2325 
Q 2953 1975 2953 1425 
Q 2953 894 2631 456 
Q 2244 -75 1606 -75 
Q 1172 -75 869 213 
Q 275 772 275 1663 
Q 275 2231 503 2743 
Q 731 3256 1154 3653 
Q 1578 4050 1965 4187 
Q 2353 4325 2688 4325 
L 2869 4325 
z
M 925 2138 
Q 869 1716 869 1456 
Q 869 1156 980 804 
Q 1091 453 1309 247 
Q 1469 100 1697 100 
Q 1969 100 2183 356 
Q 2397 613 2397 1088 
Q 2397 1622 2184 2012 
Q 1972 2403 1581 2403 
Q 1463 2403 1327 2353 
Q 1191 2303 925 2138 
z
" transform="scale(0.015625)"/>
     </defs>
     <use xlink:href="#TimesNewRomanPSMT-31"/>
     <use xlink:href="#TimesNewRomanPSMT-2e" x="50"/>
     <use xlink:href="#TimesNewRomanPSMT-36" x="75"/>
    </g>
   </g>
   <g id="text_5">
    <!-- -41.9 -->
    <g transform="translate(143.113942 214.740815) scale(0.18 -0.18)">
     <defs>
      <path id="TimesNewRomanPSMT-2d" d="M 259 1672 
L 1875 1672 
L 1875 1200 
L 259 1200 
L 259 1672 
z
" transform="scale(0.015625)"/>
     </defs>
     <use xlink:href="#TimesNewRomanPSMT-2d"/>
     <use xlink:href="#TimesNewRomanPSMT-34" x="33.300781"/>
     <use xlink:href="#TimesNewRomanPSMT-31" x="83.300781"/>
     <use xlink:href="#TimesNewRomanPSMT-2e" x="133.300781"/>
     <use xlink:href="#TimesNewRomanPSMT-39" x="158.300781"/>
    </g>
   </g>
   <g id="text_6">
    <!-- -74.4 -->
    <g transform="translate(136.445764 248.499494) scale(0.18 -0.18)">
     <use xlink:href="#TimesNewRomanPSMT-2d"/>
     <use xlink:href="#TimesNewRomanPSMT-37" x="33.300781"/>
     <use xlink:href="#TimesNewRomanPSMT-34" x="83.300781"/>
     <use xlink:href="#TimesNewRomanPSMT-2e" x="133.300781"/>
     <use xlink:href="#TimesNewRomanPSMT-34" x="158.300781"/>
    </g>
   </g>
   <g id="text_7">
    <!-- -88.8 -->
    <g transform="translate(135.180227 281.069457) scale(0.18 -0.18)">
     <use xlink:href="#TimesNewRomanPSMT-2d"/>
     <use xlink:href="#TimesNewRomanPSMT-38" x="33.300781"/>
     <use xlink:href="#TimesNewRomanPSMT-38" x="83.300781"/>
     <use xlink:href="#TimesNewRomanPSMT-2e" x="133.300781"/>
     <use xlink:href="#TimesNewRomanPSMT-38" x="158.300781"/>
    </g>
   </g>
   <g id="text_8">
    <!-- -82.5 -->
    <g transform="translate(138.094888 313.197538) scale(0.18 -0.18)">
     <defs>
      <path id="TimesNewRomanPSMT-32" d="M 2934 816 
L 2638 0 
L 138 0 
L 138 116 
Q 1241 1122 1691 1759 
Q 2141 2397 2141 2925 
Q 2141 3328 1894 3587 
Q 1647 3847 1303 3847 
Q 991 3847 742 3664 
Q 494 3481 375 3128 
L 259 3128 
Q 338 3706 661 4015 
Q 984 4325 1469 4325 
Q 1984 4325 2329 3994 
Q 2675 3663 2675 3213 
Q 2675 2891 2525 2569 
Q 2294 2063 1775 1497 
Q 997 647 803 472 
L 1909 472 
Q 2247 472 2383 497 
Q 2519 522 2628 598 
Q 2738 675 2819 816 
L 2934 816 
z
" transform="scale(0.015625)"/>
     </defs>
     <use xlink:href="#TimesNewRomanPSMT-2d"/>
     <use xlink:href="#TimesNewRomanPSMT-38" x="33.300781"/>
     <use xlink:href="#TimesNewRomanPSMT-32" x="83.300781"/>
     <use xlink:href="#TimesNewRomanPSMT-2e" x="133.300781"/>
     <use xlink:href="#TimesNewRomanPSMT-35" x="158.300781"/>
    </g>
   </g>
   <g id="text_9">
    <!-- -57.1 -->
    <g transform="translate(145.871264 345.806158) scale(0.18 -0.18)">
     <use xlink:href="#TimesNewRomanPSMT-2d"/>
     <use xlink:href="#TimesNewRomanPSMT-35" x="33.300781"/>
     <use xlink:href="#TimesNewRomanPSMT-37" x="83.300781"/>
     <use xlink:href="#TimesNewRomanPSMT-2e" x="133.300781"/>
     <use xlink:href="#TimesNewRomanPSMT-31" x="158.300781"/>
    </g>
   </g>
   <g id="text_10">
    <!-- -16.7 -->
    <g transform="translate(160.456762 378.611215) scale(0.18 -0.18)">
     <use xlink:href="#TimesNewRomanPSMT-2d"/>
     <use xlink:href="#TimesNewRomanPSMT-31" x="33.300781"/>
     <use xlink:href="#TimesNewRomanPSMT-36" x="83.300781"/>
     <use xlink:href="#TimesNewRomanPSMT-2e" x="133.300781"/>
     <use xlink:href="#TimesNewRomanPSMT-37" x="158.300781"/>
    </g>
   </g>
   <g id="text_11">
    <!-- 33.6 -->
    <g transform="translate(174.448003 430.973666) scale(0.18 -0.18)">
     <defs>
      <path id="TimesNewRomanPSMT-33" d="M 325 3431 
Q 506 3859 782 4092 
Q 1059 4325 1472 4325 
Q 1981 4325 2253 3994 
Q 2459 3747 2459 3466 
Q 2459 3003 1878 2509 
Q 2269 2356 2469 2072 
Q 2669 1788 2669 1403 
Q 2669 853 2319 450 
Q 1863 -75 997 -75 
Q 569 -75 414 31 
Q 259 138 259 259 
Q 259 350 332 419 
Q 406 488 509 488 
Q 588 488 669 463 
Q 722 447 909 348 
Q 1097 250 1169 231 
Q 1284 197 1416 197 
Q 1734 197 1970 444 
Q 2206 691 2206 1028 
Q 2206 1275 2097 1509 
Q 2016 1684 1919 1775 
Q 1784 1900 1550 2001 
Q 1316 2103 1072 2103 
L 972 2103 
L 972 2197 
Q 1219 2228 1467 2375 
Q 1716 2522 1828 2728 
Q 1941 2934 1941 3181 
Q 1941 3503 1739 3701 
Q 1538 3900 1238 3900 
Q 753 3900 428 3381 
L 325 3431 
z
" transform="scale(0.015625)"/>
     </defs>
     <use xlink:href="#TimesNewRomanPSMT-33"/>
     <use xlink:href="#TimesNewRomanPSMT-33" x="50"/>
     <use xlink:href="#TimesNewRomanPSMT-2e" x="100"/>
     <use xlink:href="#TimesNewRomanPSMT-36" x="125"/>
    </g>
   </g>
   <g id="text_12">
    <!-- 89.1 -->
    <g transform="translate(213.183893 459.503827) scale(0.18 -0.18)">
     <use xlink:href="#TimesNewRomanPSMT-38"/>
     <use xlink:href="#TimesNewRomanPSMT-39" x="50"/>
     <use xlink:href="#TimesNewRomanPSMT-2e" x="100"/>
     <use xlink:href="#TimesNewRomanPSMT-31" x="125"/>
    </g>
   </g>
   <g id="text_13">
    <!-- 145.5 -->
    <g transform="translate(256.495238 477.642434) scale(0.18 -0.18)">
     <use xlink:href="#TimesNewRomanPSMT-31"/>
     <use xlink:href="#TimesNewRomanPSMT-34" x="50"/>
     <use xlink:href="#TimesNewRomanPSMT-35" x="100"/>
     <use xlink:href="#TimesNewRomanPSMT-2e" x="150"/>
     <use xlink:href="#TimesNewRomanPSMT-35" x="175"/>
    </g>
   </g>
   <g id="text_14">
    <!-- 239.4 -->
    <g transform="translate(256.495238 491.012436) scale(0.18 -0.18)">
     <use xlink:href="#TimesNewRomanPSMT-32"/>
     <use xlink:href="#TimesNewRomanPSMT-33" x="50"/>
     <use xlink:href="#TimesNewRomanPSMT-39" x="100"/>
     <use xlink:href="#TimesNewRomanPSMT-2e" x="150"/>
     <use xlink:href="#TimesNewRomanPSMT-34" x="175"/>
    </g>
   </g>
   <g id="text_15">
    <!-- 254.4 -->
    <g transform="translate(311.445335 486.146009) scale(0.18 -0.18)">
     <use xlink:href="#TimesNewRomanPSMT-32"/>
     <use xlink:href="#TimesNewRomanPSMT-35" x="50"/>
     <use xlink:href="#TimesNewRomanPSMT-34" x="100"/>
     <use xlink:href="#TimesNewRomanPSMT-2e" x="150"/>
     <use xlink:href="#TimesNewRomanPSMT-34" x="175"/>
    </g>
   </g>
   <g id="text_16">
    <!-- 296.0 -->
    <g transform="translate(365.925834 470.608809) scale(0.18 -0.18)">
     <use xlink:href="#TimesNewRomanPSMT-32"/>
     <use xlink:href="#TimesNewRomanPSMT-39" x="50"/>
     <use xlink:href="#TimesNewRomanPSMT-36" x="100"/>
     <use xlink:href="#TimesNewRomanPSMT-2e" x="150"/>
     <use xlink:href="#TimesNewRomanPSMT-30" x="175"/>
    </g>
   </g>
   <g id="text_17">
    <!-- 354.8 -->
    <g transform="translate(417.809304 442.383523) scale(0.18 -0.18)">
     <use xlink:href="#TimesNewRomanPSMT-33"/>
     <use xlink:href="#TimesNewRomanPSMT-35" x="50"/>
     <use xlink:href="#TimesNewRomanPSMT-34" x="100"/>
     <use xlink:href="#TimesNewRomanPSMT-2e" x="150"/>
     <use xlink:href="#TimesNewRomanPSMT-38" x="175"/>
    </g>
   </g>
   <g id="text_18">
    <!-- 418.9 -->
    <g transform="translate(462.81527 400.188383) scale(0.18 -0.18)">
     <use xlink:href="#TimesNewRomanPSMT-34"/>
     <use xlink:href="#TimesNewRomanPSMT-31" x="50"/>
     <use xlink:href="#TimesNewRomanPSMT-38" x="100"/>
     <use xlink:href="#TimesNewRomanPSMT-2e" x="150"/>
     <use xlink:href="#TimesNewRomanPSMT-39" x="175"/>
    </g>
   </g>
   <g id="text_19">
    <!-- 477.1 -->
    <g transform="translate(495.4794 345.10507) scale(0.18 -0.18)">
     <use xlink:href="#TimesNewRomanPSMT-34"/>
     <use xlink:href="#TimesNewRomanPSMT-37" x="50"/>
     <use xlink:href="#TimesNewRomanPSMT-37" x="100"/>
     <use xlink:href="#TimesNewRomanPSMT-2e" x="150"/>
     <use xlink:href="#TimesNewRomanPSMT-31" x="175"/>
    </g>
   </g>
   <g id="text_20">
    <!-- 521.5 -->
    <g transform="translate(510.901589 281.069457) scale(0.18 -0.18)">
     <use xlink:href="#TimesNewRomanPSMT-35"/>
     <use xlink:href="#TimesNewRomanPSMT-32" x="50"/>
     <use xlink:href="#TimesNewRomanPSMT-31" x="100"/>
     <use xlink:href="#TimesNewRomanPSMT-2e" x="150"/>
     <use xlink:href="#TimesNewRomanPSMT-35" x="175"/>
    </g>
   </g>
   <g id="text_21">
    <!-- 546.6 -->
    <g transform="translate(506.06268 214.198063) scale(0.18 -0.18)">
     <use xlink:href="#TimesNewRomanPSMT-35"/>
     <use xlink:href="#TimesNewRomanPSMT-34" x="50"/>
     <use xlink:href="#TimesNewRomanPSMT-36" x="100"/>
     <use xlink:href="#TimesNewRomanPSMT-2e" x="150"/>
     <use xlink:href="#TimesNewRomanPSMT-36" x="175"/>
    </g>
   </g>
   <g id="text_22">
    <!-- 550.5 -->
    <g transform="translate(480.778284 151.579581) scale(0.18 -0.18)">
     <use xlink:href="#TimesNewRomanPSMT-35"/>
     <use xlink:href="#TimesNewRomanPSMT-35" x="50"/>
     <use xlink:href="#TimesNewRomanPSMT-30" x="100"/>
     <use xlink:href="#TimesNewRomanPSMT-2e" x="150"/>
     <use xlink:href="#TimesNewRomanPSMT-35" x="175"/>
    </g>
   </g>
   <g id="text_23">
    <!-- 534.1 -->
    <g transform="translate(437.801195 99.763501) scale(0.18 -0.18)">
     <use xlink:href="#TimesNewRomanPSMT-35"/>
     <use xlink:href="#TimesNewRomanPSMT-33" x="50"/>
     <use xlink:href="#TimesNewRomanPSMT-34" x="100"/>
     <use xlink:href="#TimesNewRomanPSMT-2e" x="150"/>
     <use xlink:href="#TimesNewRomanPSMT-31" x="175"/>
    </g>
   </g>
   <g id="text_24">
    <!-- 499.2 -->
    <g transform="translate(381.946143 63.782116) scale(0.18 -0.18)">
     <use xlink:href="#TimesNewRomanPSMT-34"/>
     <use xlink:href="#TimesNewRomanPSMT-39" x="50"/>
     <use xlink:href="#TimesNewRomanPSMT-39" x="100"/>
     <use xlink:href="#TimesNewRomanPSMT-2e" x="150"/>
     <use xlink:href="#TimesNewRomanPSMT-32" x="175"/>
    </g>
   </g>
   <g id="text_25">
    <!-- 447.5 -->
    <g transform="translate(319.321462 46.598798) scale(0.18 -0.18)">
     <use xlink:href="#TimesNewRomanPSMT-34"/>
     <use xlink:href="#TimesNewRomanPSMT-34" x="50"/>
     <use xlink:href="#TimesNewRomanPSMT-37" x="100"/>
     <use xlink:href="#TimesNewRomanPSMT-2e" x="150"/>
     <use xlink:href="#TimesNewRomanPSMT-35" x="175"/>
    </g>
   </g>
   <g id="text_26">
    <!-- 381.3 -->
    <g transform="translate(256.495238 48.757638) scale(0.18 -0.18)">
     <use xlink:href="#TimesNewRomanPSMT-33"/>
     <use xlink:href="#TimesNewRomanPSMT-38" x="50"/>
     <use xlink:href="#TimesNewRomanPSMT-31" x="100"/>
     <use xlink:href="#TimesNewRomanPSMT-2e" x="150"/>
     <use xlink:href="#TimesNewRomanPSMT-33" x="175"/>
    </g>
   </g>
   <g id="text_27">
    <!-- kN·m -->
    <g transform="translate(212.645743 282.030395) scale(0.22 -0.22)">
     <defs>
      <path id="TimesNewRomanPSMT-6b" d="M 1047 4444 
L 1047 1597 
L 1775 2259 
Q 2006 2472 2044 2528 
Q 2069 2566 2069 2603 
Q 2069 2666 2017 2711 
Q 1966 2756 1847 2763 
L 1847 2863 
L 3091 2863 
L 3091 2763 
Q 2834 2756 2664 2684 
Q 2494 2613 2291 2428 
L 1556 1750 
L 2291 822 
Q 2597 438 2703 334 
Q 2853 188 2966 144 
Q 3044 113 3238 113 
L 3238 0 
L 1847 0 
L 1847 113 
Q 1966 116 2008 148 
Q 2050 181 2050 241 
Q 2050 313 1925 472 
L 1047 1594 
L 1047 644 
Q 1047 366 1086 278 
Q 1125 191 1197 153 
Q 1269 116 1509 113 
L 1509 0 
L 53 0 
L 53 113 
Q 272 113 381 166 
Q 447 200 481 272 
Q 528 375 528 628 
L 528 3234 
Q 528 3731 506 3842 
Q 484 3953 434 3995 
Q 384 4038 303 4038 
Q 238 4038 106 3984 
L 53 4094 
L 903 4444 
L 1047 4444 
z
" transform="scale(0.015625)"/>
      <path id="TimesNewRomanPSMT-4e" d="M -84 4238 
L 1066 4238 
L 3656 1059 
L 3656 3503 
Q 3656 3894 3569 3991 
Q 3453 4122 3203 4122 
L 3056 4122 
L 3056 4238 
L 4531 4238 
L 4531 4122 
L 4381 4122 
Q 4113 4122 4000 3959 
Q 3931 3859 3931 3503 
L 3931 -69 
L 3819 -69 
L 1025 3344 
L 1025 734 
Q 1025 344 1109 247 
Q 1228 116 1475 116 
L 1625 116 
L 1625 0 
L 150 0 
L 150 116 
L 297 116 
Q 569 116 681 278 
Q 750 378 750 734 
L 750 3681 
Q 566 3897 470 3965 
Q 375 4034 191 4094 
Q 100 4122 -84 4122 
L -84 4238 
z
" transform="scale(0.015625)"/>
      <path id="TimesNewRomanPSMT-b7" d="M 1066 2525 
Q 1203 2525 1298 2429 
Q 1394 2334 1394 2197 
Q 1394 2063 1297 1966 
Q 1200 1869 1066 1869 
Q 931 1869 834 1966 
Q 738 2063 738 2197 
Q 738 2334 833 2429 
Q 928 2525 1066 2525 
z
" transform="scale(0.015625)"/>
      <path id="TimesNewRomanPSMT-6d" d="M 1050 2338 
Q 1363 2650 1419 2697 
Q 1559 2816 1721 2881 
Q 1884 2947 2044 2947 
Q 2313 2947 2506 2790 
Q 2700 2634 2766 2338 
Q 3088 2713 3309 2830 
Q 3531 2947 3766 2947 
Q 3994 2947 4170 2830 
Q 4347 2713 4450 2447 
Q 4519 2266 4519 1878 
L 4519 647 
Q 4519 378 4559 278 
Q 4591 209 4675 161 
Q 4759 113 4950 113 
L 4950 0 
L 3538 0 
L 3538 113 
L 3597 113 
Q 3781 113 3884 184 
Q 3956 234 3988 344 
Q 4000 397 4000 647 
L 4000 1878 
Q 4000 2228 3916 2372 
Q 3794 2572 3525 2572 
Q 3359 2572 3192 2489 
Q 3025 2406 2788 2181 
L 2781 2147 
L 2788 2013 
L 2788 647 
Q 2788 353 2820 281 
Q 2853 209 2943 161 
Q 3034 113 3253 113 
L 3253 0 
L 1806 0 
L 1806 113 
Q 2044 113 2133 169 
Q 2222 225 2256 338 
Q 2272 391 2272 647 
L 2272 1878 
Q 2272 2228 2169 2381 
Q 2031 2581 1784 2581 
Q 1616 2581 1450 2491 
Q 1191 2353 1050 2181 
L 1050 647 
Q 1050 366 1089 281 
Q 1128 197 1204 155 
Q 1281 113 1516 113 
L 1516 0 
L 100 0 
L 100 113 
Q 297 113 375 155 
Q 453 197 493 289 
Q 534 381 534 647 
L 534 1741 
Q 534 2213 506 2350 
Q 484 2453 437 2492 
Q 391 2531 309 2531 
Q 222 2531 100 2484 
L 53 2597 
L 916 2947 
L 1050 2947 
L 1050 2338 
z
" transform="scale(0.015625)"/>
     </defs>
     <use xlink:href="#TimesNewRomanPSMT-6b"/>
     <use xlink:href="#TimesNewRomanPSMT-4e" x="50"/>
     <use xlink:href="#TimesNewRomanPSMT-b7" x="122.216797"/>
     <use xlink:href="#TimesNewRomanPSMT-6d" x="155.517578"/>
    </g>
   </g>
   <g id="text_28">
    <!-- kN -->
    <g transform="translate(301.738015 282.030395) scale(0.22 -0.22)">
     <use xlink:href="#TimesNewRomanPSMT-6b"/>
     <use xlink:href="#TimesNewRomanPSMT-4e" x="50"/>
    </g>
   </g>
  </g>
 </g>
 <defs>
  <clipPath id="p2369c1d269">
   <rect x="0" y="0" width="553.490477" height="553.490477"/>
  </clipPath>
 </defs>
</svg>
