<?xml version="1.0" encoding="utf-8" standalone="no"?>
<!DOCTYPE svg PUBLIC "-//W3C//DTD SVG 1.1//EN"
  "http://www.w3.org/Graphics/SVG/1.1/DTD/svg11.dtd">
<svg xmlns:xlink="http://www.w3.org/1999/xlink" width="556.70791pt" height="531.489857pt" viewBox="0 0 556.70791 531.489857" xmlns="http://www.w3.org/2000/svg" version="1.1">
 <metadata>
  <rdf:RDF xmlns:dc="http://purl.org/dc/elements/1.1/" xmlns:cc="http://creativecommons.org/ns#" xmlns:rdf="http://www.w3.org/1999/02/22-rdf-syntax-ns#">
   <cc:Work>
    <dc:type rdf:resource="http://purl.org/dc/dcmitype/StillImage"/>
    <dc:date>2026-06-01T14:58:22.673264</dc:date>
    <dc:format>image/svg+xml</dc:format>
    <dc:creator>
     <cc:Agent>
      <dc:title>Matplotlib v3.8.4, https://matplotlib.org/</dc:title>
     </cc:Agent>
    </dc:creator>
   </cc:Work>
  </rdf:RDF>
 </metadata>
 <defs>
  <style type="text/css">*{stroke-linejoin: round; stroke-linecap: butt}</style>
 </defs>
 <g id="figure_1">
  <g id="patch_1">
   <path d="M 0 531.489857 
L 556.70791 531.489857 
L 556.70791 0 
L 0 0 
z
" style="fill: #ffffff"/>
  </g>
  <g id="axes_1">
   <g id="line2d_1">
    <path d="M 424.729536 265.45596 
L 424.65055 260.440522 
L 424.413669 255.430058 
L 424.019129 250.429538 
L 423.467321 245.443922 
L 422.758793 240.478154 
L 421.894246 235.53716 
L 420.874539 230.625841 
L 419.700683 225.749067 
L 418.373842 220.911675 
L 416.895333 216.118465 
L 415.26662 211.374188 
L 413.489321 206.683552 
L 411.565198 202.051208 
L 409.496159 197.481751 
L 407.284256 192.979713 
L 404.931684 188.549559 
L 402.440775 184.195683 
L 399.814 179.922404 
L 397.053964 175.73396 
L 394.163406 171.634505 
L 391.145191 167.628105 
L 388.002314 163.718734 
L 384.737891 159.910269 
L 381.355161 156.206487 
L 377.857478 152.611063 
L 374.248312 149.127562 
L 370.531242 145.759439 
L 366.709955 142.510035 
L 362.788241 139.382572 
L 358.76999 136.380153 
L 354.659187 133.505756 
L 350.459909 130.762231 
L 346.176322 128.1523 
L 341.812674 125.67855 
L 337.373293 123.343437 
L 332.862582 121.149275 
L 328.285014 119.098241 
L 323.645131 117.192369 
L 318.947535 115.43355 
L 314.196883 113.823528 
L 309.397889 112.3639 
L 304.555311 111.056113 
L 299.673954 109.901465 
L 294.758658 108.901101 
L 289.814299 108.056013 
L 284.845781 107.367039 
L 279.858031 106.834863 
L 274.855996 106.460012 
L 269.844639 106.242859 
L 264.828928 106.183618 
L 259.81384 106.282349 
L 254.804347 106.538953 
L 249.805419 106.953176 
L 244.822014 107.524607 
L 239.859074 108.252679 
L 234.921522 109.136671 
L 230.014255 110.175705 
L 225.14214 111.368751 
L 220.31001 112.714626 
L 215.522657 114.211994 
L 210.784829 115.859371 
L 206.101226 117.655122 
L 201.476493 119.597467 
L 196.915217 121.68448 
L 192.421922 123.914089 
L 188.001064 126.284084 
L 183.657028 128.792114 
L 179.394123 131.435692 
L 175.216577 134.212195 
L 171.128533 137.11887 
L 167.134047 140.152834 
L 163.237079 143.311077 
L 159.441495 146.590468 
L 155.751059 149.987753 
L 152.169432 153.499564 
L 148.700167 157.122416 
L 145.346704 160.852717 
L 142.112368 164.686766 
L 139.000369 168.620762 
L 136.013793 172.650802 
L 133.155601 176.772889 
L 130.428629 180.982935 
L 127.835582 185.276764 
L 125.379031 189.650117 
L 123.061412 194.098656 
L 120.885025 198.617971 
L 118.852028 203.203577 
L 116.964438 207.850927 
L 115.224126 212.555412 
L 113.632819 217.312365 
L 112.192095 222.117068 
L 110.903382 226.964756 
L 109.76796 231.850622 
L 108.786955 236.769817 
L 107.961338 241.717465 
L 107.29193 246.688658 
L 106.779394 251.678464 
L 106.424238 256.681935 
L 106.226815 261.694109 
L 106.187321 266.710014 
L 106.305794 271.724675 
L 106.582118 276.733118 
L 107.016018 281.730377 
L 107.607063 286.711494 
L 108.354668 291.671529 
L 109.258091 296.605563 
L 110.316436 301.508701 
L 111.528653 306.376081 
L 112.893541 311.202876 
L 114.409745 315.984297 
L 116.075761 320.715602 
L 117.889937 325.392099 
L 119.850474 330.00915 
L 121.955427 334.562175 
L 124.202708 339.046658 
L 126.590089 343.458151 
L 129.115201 347.792279 
L 131.775541 352.044744 
L 134.568469 356.211327 
L 137.491215 360.287896 
L 140.540881 364.270408 
L 143.714442 368.154912 
L 147.008749 371.937556 
L 150.420537 375.614589 
L 153.94642 379.182362 
L 157.582902 382.637338 
L 161.326376 385.97609 
L 165.173129 389.195306 
L 169.119346 392.291794 
L 173.161112 395.262482 
L 177.294419 398.104423 
L 181.515168 400.8148 
L 185.819172 403.390923 
L 190.202162 405.830238 
L 194.659792 408.130325 
L 199.187639 410.288904 
L 203.781213 412.303832 
L 208.435958 414.173112 
L 213.147258 415.89489 
L 217.910439 417.467458 
L 222.720777 418.889255 
L 227.573501 420.158873 
L 232.463798 421.275051 
L 237.386818 422.236684 
L 242.337678 423.042815 
L 247.311467 423.692648 
L 252.303252 424.185536 
L 257.308083 424.520991 
L 262.320995 424.69868 
L 267.337017 424.718428 
L 272.351172 424.580213 
L 277.358489 424.284175 
L 282.354001 423.830605 
L 287.332752 423.219955 
L 292.289806 422.452829 
L 297.220245 421.529988 
L 302.119178 420.452348 
L 306.981749 419.220978 
L 311.803132 417.837099 
L 316.578547 416.302084 
L 321.303257 414.617454 
L 325.972576 412.784882 
L 330.581873 410.806184 
L 335.126575 408.683322 
L 339.602176 406.418404 
L 344.004237 404.013674 
L 348.328391 401.471519 
L 352.570349 398.794459 
L 356.725904 395.985149 
L 360.790936 393.046377 
L 364.76141 389.981056 
L 368.633391 386.792227 
L 372.403037 383.483054 
L 376.066609 380.056817 
L 379.620474 376.516915 
L 383.061107 372.86686 
L 386.385096 369.110271 
L 389.589143 365.250874 
L 392.670071 361.292498 
L 395.624824 357.239067 
L 398.450471 353.094604 
L 401.144211 348.863218 
L 403.70337 344.549105 
L 406.125411 340.156546 
L 408.407932 335.689896 
L 410.548668 331.153586 
L 412.545497 326.552115 
L 414.396438 321.890047 
L 416.099654 317.172006 
L 417.653458 312.402671 
L 419.056307 307.586772 
L 420.306811 302.729088 
L 421.403728 297.834434 
L 422.345972 292.907667 
L 423.132607 287.953672 
L 423.762853 282.977363 
L 424.236086 277.983676 
L 424.551835 272.977563 
L 424.709788 267.96399 
L 424.729536 265.45596 
L 424.729536 265.45596 
" clip-path="url(#pe3c4e8f349)" style="fill: none; stroke: #000000; stroke-width: 1.5; stroke-linecap: square"/>
   </g>
   <g id="line2d_2">
    <path d="M 265.45596 133.194621 
L 253.888974 133.24471 
L 242.176205 133.429909 
L 230.192149 133.849625 
L 217.851495 134.663767 
L 205.121045 136.067317 
L 192.034093 138.285556 
L 178.690497 141.542037 
L 165.251441 146.036864 
L 151.940874 151.940874 
L 139.022393 159.3656 
L 126.785616 168.35794 
L 115.529527 178.895893 
L 105.536822 190.884441 
L 97.063809 204.166229 
L 90.330822 218.531321 
L 85.491234 233.723323 
L 82.646919 249.462241 
L 81.841754 265.45596 
L 83.060583 281.413488 
L 86.23694 297.057109 
L 91.250981 312.134043 
L 97.958978 326.419876 
L 106.187114 339.724243 
L 115.746351 351.890843 
L 126.442967 362.793906 
L 138.084479 372.333323 
L 150.477082 380.434838 
L 163.434072 387.040911 
L 176.767591 392.116078 
L 190.298312 395.632825 
L 203.842293 397.586896 
L 217.215529 397.995454 
L 230.237193 396.894189 
L 242.727607 394.354857 
L 254.518856 390.467633 
L 265.45596 385.360735 
" clip-path="url(#pe3c4e8f349)" style="fill: none; stroke: #000000; stroke-linecap: square"/>
   </g>
   <g id="line2d_3">
    <path d="M 265.45596 106.182384 
L 265.45596 133.194621 
" clip-path="url(#pe3c4e8f349)" style="fill: none; stroke: #808080; stroke-width: 0.6; stroke-linecap: square"/>
   </g>
   <g id="line2d_4">
    <path d="M 237.798394 108.602107 
L 242.176205 133.429909 
" clip-path="url(#pe3c4e8f349)" style="fill: none; stroke: #808080; stroke-width: 0.6; stroke-linecap: square"/>
   </g>
   <g id="line2d_5">
    <path d="M 210.981189 115.787756 
L 217.851495 134.663767 
" clip-path="url(#pe3c4e8f349)" style="fill: none; stroke: #808080; stroke-width: 0.6; stroke-linecap: square"/>
   </g>
   <g id="line2d_6">
    <path d="M 185.819172 127.520997 
L 192.034093 138.285556 
" clip-path="url(#pe3c4e8f349)" style="fill: none; stroke: #808080; stroke-width: 0.6; stroke-linecap: square"/>
   </g>
   <g id="line2d_7">
    <path d="M 163.076879 143.445322 
L 165.251441 146.036864 
" clip-path="url(#pe3c4e8f349)" style="fill: none; stroke: #808080; stroke-width: 0.6; stroke-linecap: square"/>
   </g>
   <g id="line2d_8">
    <path d="M 143.445322 163.076879 
L 139.022393 159.3656 
" clip-path="url(#pe3c4e8f349)" style="fill: none; stroke: #808080; stroke-width: 0.6; stroke-linecap: square"/>
   </g>
   <g id="line2d_9">
    <path d="M 127.520997 185.819172 
L 115.529527 178.895893 
" clip-path="url(#pe3c4e8f349)" style="fill: none; stroke: #808080; stroke-width: 0.6; stroke-linecap: square"/>
   </g>
   <g id="line2d_10">
    <path d="M 115.787756 210.981189 
L 97.063809 204.166229 
" clip-path="url(#pe3c4e8f349)" style="fill: none; stroke: #808080; stroke-width: 0.6; stroke-linecap: square"/>
   </g>
   <g id="line2d_11">
    <path d="M 108.602107 237.798394 
L 85.491234 233.723323 
" clip-path="url(#pe3c4e8f349)" style="fill: none; stroke: #808080; stroke-width: 0.6; stroke-linecap: square"/>
   </g>
   <g id="line2d_12">
    <path d="M 106.182384 265.45596 
L 81.841754 265.45596 
" clip-path="url(#pe3c4e8f349)" style="fill: none; stroke: #808080; stroke-width: 0.6; stroke-linecap: square"/>
   </g>
   <g id="line2d_13">
    <path d="M 108.602107 293.113526 
L 86.23694 297.057109 
" clip-path="url(#pe3c4e8f349)" style="fill: none; stroke: #808080; stroke-width: 0.6; stroke-linecap: square"/>
   </g>
   <g id="line2d_14">
    <path d="M 115.787756 319.930731 
L 97.958978 326.419876 
" clip-path="url(#pe3c4e8f349)" style="fill: none; stroke: #808080; stroke-width: 0.6; stroke-linecap: square"/>
   </g>
   <g id="line2d_15">
    <path d="M 127.520997 345.092748 
L 115.746351 351.890843 
" clip-path="url(#pe3c4e8f349)" style="fill: none; stroke: #808080; stroke-width: 0.6; stroke-linecap: square"/>
   </g>
   <g id="line2d_16">
    <path d="M 143.445322 367.835041 
L 138.084479 372.333323 
" clip-path="url(#pe3c4e8f349)" style="fill: none; stroke: #808080; stroke-width: 0.6; stroke-linecap: square"/>
   </g>
   <g id="line2d_17">
    <path d="M 163.076879 387.466598 
L 163.434072 387.040911 
" clip-path="url(#pe3c4e8f349)" style="fill: none; stroke: #808080; stroke-width: 0.6; stroke-linecap: square"/>
   </g>
   <g id="line2d_18">
    <path d="M 185.819172 403.390923 
L 190.298312 395.632825 
" clip-path="url(#pe3c4e8f349)" style="fill: none; stroke: #808080; stroke-width: 0.6; stroke-linecap: square"/>
   </g>
   <g id="line2d_19">
    <path d="M 210.981189 415.124164 
L 217.215529 397.995454 
" clip-path="url(#pe3c4e8f349)" style="fill: none; stroke: #808080; stroke-width: 0.6; stroke-linecap: square"/>
   </g>
   <g id="line2d_20">
    <path d="M 237.798394 422.309812 
L 242.727607 394.354857 
" clip-path="url(#pe3c4e8f349)" style="fill: none; stroke: #808080; stroke-width: 0.6; stroke-linecap: square"/>
   </g>
   <g id="line2d_21">
    <path d="M 265.45596 424.729536 
L 265.45596 385.360735 
" clip-path="url(#pe3c4e8f349)" style="fill: none; stroke: #808080; stroke-width: 0.6; stroke-linecap: square"/>
   </g>
   <g id="line2d_22">
    <path d="M 265.45596 48.657584 
L 284.373386 49.228795 
L 303.277739 50.957993 
L 322.147104 53.881729 
L 340.941611 58.060838 
L 359.5979 63.567918 
L 378.023291 70.483623 
L 396.096746 78.881582 
L 413.667686 88.824103 
L 430.559556 100.352364 
L 446.581092 113.473928 
L 461.527045 128.165508 
L 475.19021 144.365834 
L 487.374699 161.973553 
L 497.894252 180.85534 
L 506.588949 200.84457 
L 513.32367 221.750195 
L 517.995851 243.361582 
L 520.530552 265.45596 
L 520.870209 287.801811 
L 518.987477 310.160407 
L 514.901055 332.294572 
L 508.656525 353.973727 
L 500.323681 374.976577 
L 489.991518 395.091625 
L 477.767268 414.117938 
L 463.773619 431.864235 
L 448.15067 448.15067 
L 431.055536 462.80985 
L 412.662019 475.688 
L 393.160268 486.646309 
L 372.758594 495.567201 
L 351.680871 502.356956 
L 330.163556 506.947997 
L 308.453958 509.309726 
L 286.802033 509.442693 
L 265.45596 507.387968 
" clip-path="url(#pe3c4e8f349)" style="fill: none; stroke: #000000; stroke-linecap: square"/>
   </g>
   <g id="line2d_23">
    <path d="M 265.45596 106.182384 
L 265.45596 48.657584 
" clip-path="url(#pe3c4e8f349)" style="fill: none; stroke: #808080; stroke-width: 0.6; stroke-linecap: square"/>
   </g>
   <g id="line2d_24">
    <path d="M 293.113526 108.602107 
L 303.277739 50.957993 
" clip-path="url(#pe3c4e8f349)" style="fill: none; stroke: #808080; stroke-width: 0.6; stroke-linecap: square"/>
   </g>
   <g id="line2d_25">
    <path d="M 319.930731 115.787756 
L 340.941611 58.060838 
" clip-path="url(#pe3c4e8f349)" style="fill: none; stroke: #808080; stroke-width: 0.6; stroke-linecap: square"/>
   </g>
   <g id="line2d_26">
    <path d="M 345.092748 127.520997 
L 378.023291 70.483623 
" clip-path="url(#pe3c4e8f349)" style="fill: none; stroke: #808080; stroke-width: 0.6; stroke-linecap: square"/>
   </g>
   <g id="line2d_27">
    <path d="M 367.835041 143.445322 
L 413.667686 88.824103 
" clip-path="url(#pe3c4e8f349)" style="fill: none; stroke: #808080; stroke-width: 0.6; stroke-linecap: square"/>
   </g>
   <g id="line2d_28">
    <path d="M 387.466598 163.076879 
L 446.581092 113.473928 
" clip-path="url(#pe3c4e8f349)" style="fill: none; stroke: #808080; stroke-width: 0.6; stroke-linecap: square"/>
   </g>
   <g id="line2d_29">
    <path d="M 403.390923 185.819172 
L 475.19021 144.365834 
" clip-path="url(#pe3c4e8f349)" style="fill: none; stroke: #808080; stroke-width: 0.6; stroke-linecap: square"/>
   </g>
   <g id="line2d_30">
    <path d="M 415.124164 210.981189 
L 497.894252 180.85534 
" clip-path="url(#pe3c4e8f349)" style="fill: none; stroke: #808080; stroke-width: 0.6; stroke-linecap: square"/>
   </g>
   <g id="line2d_31">
    <path d="M 422.309812 237.798394 
L 513.32367 221.750195 
" clip-path="url(#pe3c4e8f349)" style="fill: none; stroke: #808080; stroke-width: 0.6; stroke-linecap: square"/>
   </g>
   <g id="line2d_32">
    <path d="M 424.729536 265.45596 
L 520.530552 265.45596 
" clip-path="url(#pe3c4e8f349)" style="fill: none; stroke: #808080; stroke-width: 0.6; stroke-linecap: square"/>
   </g>
   <g id="line2d_33">
    <path d="M 422.309812 293.113526 
L 518.987477 310.160407 
" clip-path="url(#pe3c4e8f349)" style="fill: none; stroke: #808080; stroke-width: 0.6; stroke-linecap: square"/>
   </g>
   <g id="line2d_34">
    <path d="M 415.124164 319.930731 
L 508.656525 353.973727 
" clip-path="url(#pe3c4e8f349)" style="fill: none; stroke: #808080; stroke-width: 0.6; stroke-linecap: square"/>
   </g>
   <g id="line2d_35">
    <path d="M 403.390923 345.092748 
L 489.991518 395.091625 
" clip-path="url(#pe3c4e8f349)" style="fill: none; stroke: #808080; stroke-width: 0.6; stroke-linecap: square"/>
   </g>
   <g id="line2d_36">
    <path d="M 387.466598 367.835041 
L 463.773619 431.864235 
" clip-path="url(#pe3c4e8f349)" style="fill: none; stroke: #808080; stroke-width: 0.6; stroke-linecap: square"/>
   </g>
   <g id="line2d_37">
    <path d="M 367.835041 387.466598 
L 431.055536 462.80985 
" clip-path="url(#pe3c4e8f349)" style="fill: none; stroke: #808080; stroke-width: 0.6; stroke-linecap: square"/>
   </g>
   <g id="line2d_38">
    <path d="M 345.092748 403.390923 
L 393.160268 486.646309 
" clip-path="url(#pe3c4e8f349)" style="fill: none; stroke: #808080; stroke-width: 0.6; stroke-linecap: square"/>
   </g>
   <g id="line2d_39">
    <path d="M 319.930731 415.124164 
L 351.680871 502.356956 
" clip-path="url(#pe3c4e8f349)" style="fill: none; stroke: #808080; stroke-width: 0.6; stroke-linecap: square"/>
   </g>
   <g id="line2d_40">
    <path d="M 293.113526 422.309812 
L 308.453958 509.309726 
" clip-path="url(#pe3c4e8f349)" style="fill: none; stroke: #808080; stroke-width: 0.6; stroke-linecap: square"/>
   </g>
   <g id="line2d_41">
    <path d="M 265.45596 424.729536 
L 265.45596 507.387968 
" clip-path="url(#pe3c4e8f349)" style="fill: none; stroke: #808080; stroke-width: 0.6; stroke-linecap: square"/>
   </g>
   <g id="text_1">
    <!-- 88.5 -->
    <g transform="translate(249.70596 148.137078) scale(0.18 -0.18)">
     <defs>
      <path id="TimesNewRomanPSMT-38" d="M 1228 2134 
Q 725 2547 579 2797 
Q 434 3047 434 3316 
Q 434 3728 753 4026 
Q 1072 4325 1600 4325 
Q 2113 4325 2425 4047 
Q 2738 3769 2738 3413 
Q 2738 3175 2569 2928 
Q 2400 2681 1866 2347 
Q 2416 1922 2594 1678 
Q 2831 1359 2831 1006 
Q 2831 559 2490 242 
Q 2150 -75 1597 -75 
Q 994 -75 656 303 
Q 388 606 388 966 
Q 388 1247 577 1523 
Q 766 1800 1228 2134 
z
M 1719 2469 
Q 2094 2806 2194 3001 
Q 2294 3197 2294 3444 
Q 2294 3772 2109 3958 
Q 1925 4144 1606 4144 
Q 1288 4144 1088 3959 
Q 888 3775 888 3528 
Q 888 3366 970 3203 
Q 1053 3041 1206 2894 
L 1719 2469 
z
M 1375 2016 
Q 1116 1797 991 1539 
Q 866 1281 866 981 
Q 866 578 1086 336 
Q 1306 94 1647 94 
Q 1984 94 2187 284 
Q 2391 475 2391 747 
Q 2391 972 2272 1150 
Q 2050 1481 1375 2016 
z
" transform="scale(0.015625)"/>
      <path id="TimesNewRomanPSMT-2e" d="M 800 606 
Q 947 606 1047 504 
Q 1147 403 1147 259 
Q 1147 116 1045 14 
Q 944 -88 800 -88 
Q 656 -88 554 14 
Q 453 116 453 259 
Q 453 406 554 506 
Q 656 606 800 606 
z
" transform="scale(0.015625)"/>
      <path id="TimesNewRomanPSMT-35" d="M 2778 4238 
L 2534 3706 
L 1259 3706 
L 981 3138 
Q 1809 3016 2294 2522 
Q 2709 2097 2709 1522 
Q 2709 1188 2573 903 
Q 2438 619 2231 419 
Q 2025 219 1772 97 
Q 1413 -75 1034 -75 
Q 653 -75 479 54 
Q 306 184 306 341 
Q 306 428 378 495 
Q 450 563 559 563 
Q 641 563 702 538 
Q 763 513 909 409 
Q 1144 247 1384 247 
Q 1750 247 2026 523 
Q 2303 800 2303 1197 
Q 2303 1581 2056 1914 
Q 1809 2247 1375 2428 
Q 1034 2569 447 2591 
L 1259 4238 
L 2778 4238 
z
" transform="scale(0.015625)"/>
     </defs>
     <use xlink:href="#TimesNewRomanPSMT-38"/>
     <use xlink:href="#TimesNewRomanPSMT-38" x="50"/>
     <use xlink:href="#TimesNewRomanPSMT-2e" x="100"/>
     <use xlink:href="#TimesNewRomanPSMT-35" x="125"/>
    </g>
   </g>
   <g id="text_2">
    <!-- 75.4 -->
    <g transform="translate(217.190351 148.430275) scale(0.18 -0.18)">
     <defs>
      <path id="TimesNewRomanPSMT-37" d="M 644 4238 
L 2916 4238 
L 2916 4119 
L 1503 -88 
L 1153 -88 
L 2419 3728 
L 1253 3728 
Q 900 3728 750 3644 
Q 488 3500 328 3200 
L 238 3234 
L 644 4238 
z
" transform="scale(0.015625)"/>
      <path id="TimesNewRomanPSMT-34" d="M 2978 1563 
L 2978 1119 
L 2409 1119 
L 2409 0 
L 1894 0 
L 1894 1119 
L 100 1119 
L 100 1519 
L 2066 4325 
L 2409 4325 
L 2409 1563 
L 2978 1563 
z
M 1894 1563 
L 1894 3666 
L 406 1563 
L 1894 1563 
z
" transform="scale(0.015625)"/>
     </defs>
     <use xlink:href="#TimesNewRomanPSMT-37"/>
     <use xlink:href="#TimesNewRomanPSMT-35" x="50"/>
     <use xlink:href="#TimesNewRomanPSMT-2e" x="100"/>
     <use xlink:href="#TimesNewRomanPSMT-34" x="125"/>
    </g>
   </g>
   <g id="text_3">
    <!-- 40.7 -->
    <g transform="translate(181.593212 151.805439) scale(0.18 -0.18)">
     <defs>
      <path id="TimesNewRomanPSMT-30" d="M 231 2094 
Q 231 2819 450 3342 
Q 669 3866 1031 4122 
Q 1313 4325 1613 4325 
Q 2100 4325 2488 3828 
Q 2972 3213 2972 2159 
Q 2972 1422 2759 906 
Q 2547 391 2217 158 
Q 1888 -75 1581 -75 
Q 975 -75 572 641 
Q 231 1244 231 2094 
z
M 844 2016 
Q 844 1141 1059 588 
Q 1238 122 1591 122 
Q 1759 122 1940 273 
Q 2122 425 2216 781 
Q 2359 1319 2359 2297 
Q 2359 3022 2209 3506 
Q 2097 3866 1919 4016 
Q 1791 4119 1609 4119 
Q 1397 4119 1231 3928 
Q 1006 3669 925 3112 
Q 844 2556 844 2016 
z
" transform="scale(0.015625)"/>
     </defs>
     <use xlink:href="#TimesNewRomanPSMT-34"/>
     <use xlink:href="#TimesNewRomanPSMT-30" x="50"/>
     <use xlink:href="#TimesNewRomanPSMT-2e" x="100"/>
     <use xlink:href="#TimesNewRomanPSMT-37" x="125"/>
    </g>
   </g>
   <g id="text_4">
    <!-- -4.1 -->
    <g transform="translate(130.185927 148.756864) scale(0.18 -0.18)">
     <defs>
      <path id="TimesNewRomanPSMT-2d" d="M 259 1672 
L 1875 1672 
L 1875 1200 
L 259 1200 
L 259 1672 
z
" transform="scale(0.015625)"/>
      <path id="TimesNewRomanPSMT-31" d="M 750 3822 
L 1781 4325 
L 1884 4325 
L 1884 747 
Q 1884 391 1914 303 
Q 1944 216 2037 169 
Q 2131 122 2419 116 
L 2419 0 
L 825 0 
L 825 116 
Q 1125 122 1212 167 
Q 1300 213 1334 289 
Q 1369 366 1369 747 
L 1369 3034 
Q 1369 3497 1338 3628 
Q 1316 3728 1258 3775 
Q 1200 3822 1119 3822 
Q 1003 3822 797 3725 
L 750 3822 
z
" transform="scale(0.015625)"/>
     </defs>
     <use xlink:href="#TimesNewRomanPSMT-2d"/>
     <use xlink:href="#TimesNewRomanPSMT-34" x="33.300781"/>
     <use xlink:href="#TimesNewRomanPSMT-2e" x="83.300781"/>
     <use xlink:href="#TimesNewRomanPSMT-31" x="108.300781"/>
    </g>
   </g>
   <g id="text_5">
    <!-- -45.4 -->
    <g transform="translate(87.587144 177.910993) scale(0.18 -0.18)">
     <use xlink:href="#TimesNewRomanPSMT-2d"/>
     <use xlink:href="#TimesNewRomanPSMT-34" x="33.300781"/>
     <use xlink:href="#TimesNewRomanPSMT-35" x="83.300781"/>
     <use xlink:href="#TimesNewRomanPSMT-2e" x="133.300781"/>
     <use xlink:href="#TimesNewRomanPSMT-34" x="158.300781"/>
    </g>
   </g>
   <g id="text_6">
    <!-- -72.2 -->
    <g transform="translate(61.327673 220.107337) scale(0.18 -0.18)">
     <defs>
      <path id="TimesNewRomanPSMT-32" d="M 2934 816 
L 2638 0 
L 138 0 
L 138 116 
Q 1241 1122 1691 1759 
Q 2141 2397 2141 2925 
Q 2141 3328 1894 3587 
Q 1647 3847 1303 3847 
Q 991 3847 742 3664 
Q 494 3481 375 3128 
L 259 3128 
Q 338 3706 661 4015 
Q 984 4325 1469 4325 
Q 1984 4325 2329 3994 
Q 2675 3663 2675 3213 
Q 2675 2891 2525 2569 
Q 2294 2063 1775 1497 
Q 997 647 803 472 
L 1909 472 
Q 2247 472 2383 497 
Q 2519 522 2628 598 
Q 2738 675 2819 816 
L 2934 816 
z
" transform="scale(0.015625)"/>
     </defs>
     <use xlink:href="#TimesNewRomanPSMT-2d"/>
     <use xlink:href="#TimesNewRomanPSMT-37" x="33.300781"/>
     <use xlink:href="#TimesNewRomanPSMT-32" x="83.300781"/>
     <use xlink:href="#TimesNewRomanPSMT-2e" x="133.300781"/>
     <use xlink:href="#TimesNewRomanPSMT-32" x="158.300781"/>
    </g>
   </g>
   <g id="text_7">
    <!-- -79.7 -->
    <g transform="translate(52.476797 269.780179) scale(0.18 -0.18)">
     <defs>
      <path id="TimesNewRomanPSMT-39" d="M 338 -88 
L 338 28 
Q 744 34 1094 217 
Q 1444 400 1770 856 
Q 2097 1313 2225 1859 
Q 1734 1544 1338 1544 
Q 891 1544 572 1889 
Q 253 2234 253 2806 
Q 253 3363 572 3797 
Q 956 4325 1575 4325 
Q 2097 4325 2469 3894 
Q 2925 3359 2925 2575 
Q 2925 1869 2578 1258 
Q 2231 647 1613 244 
Q 1109 -88 516 -88 
L 338 -88 
z
M 2275 2091 
Q 2331 2497 2331 2741 
Q 2331 3044 2228 3395 
Q 2125 3747 1936 3934 
Q 1747 4122 1506 4122 
Q 1228 4122 1018 3872 
Q 809 3622 809 3128 
Q 809 2469 1088 2097 
Q 1291 1828 1588 1828 
Q 1731 1828 1928 1897 
Q 2125 1966 2275 2091 
z
" transform="scale(0.015625)"/>
     </defs>
     <use xlink:href="#TimesNewRomanPSMT-2d"/>
     <use xlink:href="#TimesNewRomanPSMT-37" x="33.300781"/>
     <use xlink:href="#TimesNewRomanPSMT-39" x="83.300781"/>
     <use xlink:href="#TimesNewRomanPSMT-2e" x="133.300781"/>
     <use xlink:href="#TimesNewRomanPSMT-37" x="158.300781"/>
    </g>
   </g>
   <g id="text_8">
    <!-- -69.0 -->
    <g transform="translate(62.247832 319.206464) scale(0.18 -0.18)">
     <defs>
      <path id="TimesNewRomanPSMT-36" d="M 2869 4325 
L 2869 4209 
Q 2456 4169 2195 4045 
Q 1934 3922 1679 3669 
Q 1425 3416 1258 3105 
Q 1091 2794 978 2366 
Q 1428 2675 1881 2675 
Q 2316 2675 2634 2325 
Q 2953 1975 2953 1425 
Q 2953 894 2631 456 
Q 2244 -75 1606 -75 
Q 1172 -75 869 213 
Q 275 772 275 1663 
Q 275 2231 503 2743 
Q 731 3256 1154 3653 
Q 1578 4050 1965 4187 
Q 2353 4325 2688 4325 
L 2869 4325 
z
M 925 2138 
Q 869 1716 869 1456 
Q 869 1156 980 804 
Q 1091 453 1309 247 
Q 1469 100 1697 100 
Q 1969 100 2183 356 
Q 2397 613 2397 1088 
Q 2397 1622 2184 2012 
Q 1972 2403 1581 2403 
Q 1463 2403 1327 2353 
Q 1191 2303 925 2138 
z
" transform="scale(0.015625)"/>
     </defs>
     <use xlink:href="#TimesNewRomanPSMT-2d"/>
     <use xlink:href="#TimesNewRomanPSMT-36" x="33.300781"/>
     <use xlink:href="#TimesNewRomanPSMT-39" x="83.300781"/>
     <use xlink:href="#TimesNewRomanPSMT-2e" x="133.300781"/>
     <use xlink:href="#TimesNewRomanPSMT-30" x="158.300781"/>
    </g>
   </g>
   <g id="text_9">
    <!-- -44.5 -->
    <g transform="translate(87.803968 361.524181) scale(0.18 -0.18)">
     <use xlink:href="#TimesNewRomanPSMT-2d"/>
     <use xlink:href="#TimesNewRomanPSMT-34" x="33.300781"/>
     <use xlink:href="#TimesNewRomanPSMT-34" x="83.300781"/>
     <use xlink:href="#TimesNewRomanPSMT-2e" x="133.300781"/>
     <use xlink:href="#TimesNewRomanPSMT-35" x="158.300781"/>
    </g>
   </g>
   <g id="text_10">
    <!-- -10.9 -->
    <g transform="translate(124.222135 392.267285) scale(0.18 -0.18)">
     <use xlink:href="#TimesNewRomanPSMT-2d"/>
     <use xlink:href="#TimesNewRomanPSMT-31" x="33.300781"/>
     <use xlink:href="#TimesNewRomanPSMT-30" x="83.300781"/>
     <use xlink:href="#TimesNewRomanPSMT-2e" x="133.300781"/>
     <use xlink:href="#TimesNewRomanPSMT-39" x="158.300781"/>
    </g>
   </g>
   <g id="text_11">
    <!-- 29.3 -->
    <g transform="translate(179.857431 390.76138) scale(0.18 -0.18)">
     <defs>
      <path id="TimesNewRomanPSMT-33" d="M 325 3431 
Q 506 3859 782 4092 
Q 1059 4325 1472 4325 
Q 1981 4325 2253 3994 
Q 2459 3747 2459 3466 
Q 2459 3003 1878 2509 
Q 2269 2356 2469 2072 
Q 2669 1788 2669 1403 
Q 2669 853 2319 450 
Q 1863 -75 997 -75 
Q 569 -75 414 31 
Q 259 138 259 259 
Q 259 350 332 419 
Q 406 488 509 488 
Q 588 488 669 463 
Q 722 447 909 348 
Q 1097 250 1169 231 
Q 1284 197 1416 197 
Q 1734 197 1970 444 
Q 2206 691 2206 1028 
Q 2206 1275 2097 1509 
Q 2016 1684 1919 1775 
Q 1784 1900 1550 2001 
Q 1316 2103 1072 2103 
L 972 2103 
L 972 2197 
Q 1219 2228 1467 2375 
Q 1716 2522 1828 2728 
Q 1941 2934 1941 3181 
Q 1941 3503 1739 3701 
Q 1538 3900 1238 3900 
Q 753 3900 428 3381 
L 325 3431 
z
" transform="scale(0.015625)"/>
     </defs>
     <use xlink:href="#TimesNewRomanPSMT-32"/>
     <use xlink:href="#TimesNewRomanPSMT-39" x="50"/>
     <use xlink:href="#TimesNewRomanPSMT-2e" x="100"/>
     <use xlink:href="#TimesNewRomanPSMT-33" x="125"/>
    </g>
   </g>
   <g id="text_12">
    <!-- 76.0 -->
    <g transform="translate(217.235395 390.961977) scale(0.18 -0.18)">
     <use xlink:href="#TimesNewRomanPSMT-37"/>
     <use xlink:href="#TimesNewRomanPSMT-36" x="50"/>
     <use xlink:href="#TimesNewRomanPSMT-2e" x="100"/>
     <use xlink:href="#TimesNewRomanPSMT-30" x="125"/>
    </g>
   </g>
   <g id="text_13">
    <!-- 128.9 -->
    <g transform="translate(245.20596 379.066716) scale(0.18 -0.18)">
     <use xlink:href="#TimesNewRomanPSMT-31"/>
     <use xlink:href="#TimesNewRomanPSMT-32" x="50"/>
     <use xlink:href="#TimesNewRomanPSMT-38" x="100"/>
     <use xlink:href="#TimesNewRomanPSMT-2e" x="150"/>
     <use xlink:href="#TimesNewRomanPSMT-39" x="175"/>
    </g>
   </g>
   <g id="text_14">
    <!-- 442.6 -->
    <g transform="translate(245.20596 37.054446) scale(0.18 -0.18)">
     <use xlink:href="#TimesNewRomanPSMT-34"/>
     <use xlink:href="#TimesNewRomanPSMT-34" x="50"/>
     <use xlink:href="#TimesNewRomanPSMT-32" x="100"/>
     <use xlink:href="#TimesNewRomanPSMT-2e" x="150"/>
     <use xlink:href="#TimesNewRomanPSMT-36" x="175"/>
    </g>
   </g>
   <g id="text_15">
    <!-- 459.8 -->
    <g transform="translate(306.019408 42.821302) scale(0.18 -0.18)">
     <use xlink:href="#TimesNewRomanPSMT-34"/>
     <use xlink:href="#TimesNewRomanPSMT-35" x="50"/>
     <use xlink:href="#TimesNewRomanPSMT-39" x="100"/>
     <use xlink:href="#TimesNewRomanPSMT-2e" x="150"/>
     <use xlink:href="#TimesNewRomanPSMT-38" x="175"/>
    </g>
   </g>
   <g id="text_16">
    <!-- 506.7 -->
    <g transform="translate(365.73697 61.014345) scale(0.18 -0.18)">
     <use xlink:href="#TimesNewRomanPSMT-35"/>
     <use xlink:href="#TimesNewRomanPSMT-30" x="50"/>
     <use xlink:href="#TimesNewRomanPSMT-36" x="100"/>
     <use xlink:href="#TimesNewRomanPSMT-2e" x="150"/>
     <use xlink:href="#TimesNewRomanPSMT-37" x="175"/>
    </g>
   </g>
   <g id="text_17">
    <!-- 571.0 -->
    <g transform="translate(421.571899 93.41424) scale(0.18 -0.18)">
     <use xlink:href="#TimesNewRomanPSMT-35"/>
     <use xlink:href="#TimesNewRomanPSMT-37" x="50"/>
     <use xlink:href="#TimesNewRomanPSMT-31" x="100"/>
     <use xlink:href="#TimesNewRomanPSMT-2e" x="150"/>
     <use xlink:href="#TimesNewRomanPSMT-30" x="175"/>
    </g>
   </g>
   <g id="text_18">
    <!-- 637.9 -->
    <g transform="translate(468.733706 140.726374) scale(0.18 -0.18)">
     <use xlink:href="#TimesNewRomanPSMT-36"/>
     <use xlink:href="#TimesNewRomanPSMT-33" x="50"/>
     <use xlink:href="#TimesNewRomanPSMT-37" x="100"/>
     <use xlink:href="#TimesNewRomanPSMT-2e" x="150"/>
     <use xlink:href="#TimesNewRomanPSMT-39" x="175"/>
    </g>
   </g>
   <g id="text_19">
    <!-- 695.3 -->
    <g transform="translate(501.723595 201.046486) scale(0.18 -0.18)">
     <use xlink:href="#TimesNewRomanPSMT-36"/>
     <use xlink:href="#TimesNewRomanPSMT-39" x="50"/>
     <use xlink:href="#TimesNewRomanPSMT-35" x="100"/>
     <use xlink:href="#TimesNewRomanPSMT-2e" x="150"/>
     <use xlink:href="#TimesNewRomanPSMT-33" x="175"/>
    </g>
   </g>
   <g id="text_20">
    <!-- 737.1 -->
    <g transform="translate(516.20791 269.780179) scale(0.18 -0.18)">
     <use xlink:href="#TimesNewRomanPSMT-37"/>
     <use xlink:href="#TimesNewRomanPSMT-33" x="50"/>
     <use xlink:href="#TimesNewRomanPSMT-37" x="100"/>
     <use xlink:href="#TimesNewRomanPSMT-2e" x="150"/>
     <use xlink:href="#TimesNewRomanPSMT-31" x="175"/>
    </g>
   </g>
   <g id="text_21">
    <!-- 761.5 -->
    <g transform="translate(510.035701 340.741094) scale(0.18 -0.18)">
     <use xlink:href="#TimesNewRomanPSMT-37"/>
     <use xlink:href="#TimesNewRomanPSMT-36" x="50"/>
     <use xlink:href="#TimesNewRomanPSMT-31" x="100"/>
     <use xlink:href="#TimesNewRomanPSMT-2e" x="150"/>
     <use xlink:href="#TimesNewRomanPSMT-35" x="175"/>
    </g>
   </g>
   <g id="text_22">
    <!-- 769.4 -->
    <g transform="translate(483.535014 407.379522) scale(0.18 -0.18)">
     <use xlink:href="#TimesNewRomanPSMT-37"/>
     <use xlink:href="#TimesNewRomanPSMT-36" x="50"/>
     <use xlink:href="#TimesNewRomanPSMT-39" x="100"/>
     <use xlink:href="#TimesNewRomanPSMT-2e" x="150"/>
     <use xlink:href="#TimesNewRomanPSMT-34" x="175"/>
    </g>
   </g>
   <g id="text_23">
    <!-- 762.5 -->
    <g transform="translate(439.163012 463.737231) scale(0.18 -0.18)">
     <use xlink:href="#TimesNewRomanPSMT-37"/>
     <use xlink:href="#TimesNewRomanPSMT-36" x="50"/>
     <use xlink:href="#TimesNewRomanPSMT-32" x="100"/>
     <use xlink:href="#TimesNewRomanPSMT-2e" x="150"/>
     <use xlink:href="#TimesNewRomanPSMT-35" x="175"/>
    </g>
   </g>
   <g id="text_24">
    <!-- 739.7 -->
    <g transform="translate(380.873947 504.764024) scale(0.18 -0.18)">
     <use xlink:href="#TimesNewRomanPSMT-37"/>
     <use xlink:href="#TimesNewRomanPSMT-33" x="50"/>
     <use xlink:href="#TimesNewRomanPSMT-39" x="100"/>
     <use xlink:href="#TimesNewRomanPSMT-2e" x="150"/>
     <use xlink:href="#TimesNewRomanPSMT-37" x="175"/>
    </g>
   </g>
   <g id="text_25">
    <!-- 698.1 -->
    <g transform="translate(314.03586 526.656862) scale(0.18 -0.18)">
     <use xlink:href="#TimesNewRomanPSMT-36"/>
     <use xlink:href="#TimesNewRomanPSMT-39" x="50"/>
     <use xlink:href="#TimesNewRomanPSMT-38" x="100"/>
     <use xlink:href="#TimesNewRomanPSMT-2e" x="150"/>
     <use xlink:href="#TimesNewRomanPSMT-31" x="175"/>
    </g>
   </g>
   <g id="text_26">
    <!-- 636.0 -->
    <g transform="translate(245.20596 527.639544) scale(0.18 -0.18)">
     <use xlink:href="#TimesNewRomanPSMT-36"/>
     <use xlink:href="#TimesNewRomanPSMT-33" x="50"/>
     <use xlink:href="#TimesNewRomanPSMT-36" x="100"/>
     <use xlink:href="#TimesNewRomanPSMT-2e" x="150"/>
     <use xlink:href="#TimesNewRomanPSMT-30" x="175"/>
    </g>
   </g>
   <g id="text_27">
    <!-- kN·m -->
    <g transform="translate(199.97491 270.741116) scale(0.22 -0.22)">
     <defs>
      <path id="TimesNewRomanPSMT-6b" d="M 1047 4444 
L 1047 1597 
L 1775 2259 
Q 2006 2472 2044 2528 
Q 2069 2566 2069 2603 
Q 2069 2666 2017 2711 
Q 1966 2756 1847 2763 
L 1847 2863 
L 3091 2863 
L 3091 2763 
Q 2834 2756 2664 2684 
Q 2494 2613 2291 2428 
L 1556 1750 
L 2291 822 
Q 2597 438 2703 334 
Q 2853 188 2966 144 
Q 3044 113 3238 113 
L 3238 0 
L 1847 0 
L 1847 113 
Q 1966 116 2008 148 
Q 2050 181 2050 241 
Q 2050 313 1925 472 
L 1047 1594 
L 1047 644 
Q 1047 366 1086 278 
Q 1125 191 1197 153 
Q 1269 116 1509 113 
L 1509 0 
L 53 0 
L 53 113 
Q 272 113 381 166 
Q 447 200 481 272 
Q 528 375 528 628 
L 528 3234 
Q 528 3731 506 3842 
Q 484 3953 434 3995 
Q 384 4038 303 4038 
Q 238 4038 106 3984 
L 53 4094 
L 903 4444 
L 1047 4444 
z
" transform="scale(0.015625)"/>
      <path id="TimesNewRomanPSMT-4e" d="M -84 4238 
L 1066 4238 
L 3656 1059 
L 3656 3503 
Q 3656 3894 3569 3991 
Q 3453 4122 3203 4122 
L 3056 4122 
L 3056 4238 
L 4531 4238 
L 4531 4122 
L 4381 4122 
Q 4113 4122 4000 3959 
Q 3931 3859 3931 3503 
L 3931 -69 
L 3819 -69 
L 1025 3344 
L 1025 734 
Q 1025 344 1109 247 
Q 1228 116 1475 116 
L 1625 116 
L 1625 0 
L 150 0 
L 150 116 
L 297 116 
Q 569 116 681 278 
Q 750 378 750 734 
L 750 3681 
Q 566 3897 470 3965 
Q 375 4034 191 4094 
Q 100 4122 -84 4122 
L -84 4238 
z
" transform="scale(0.015625)"/>
      <path id="TimesNewRomanPSMT-b7" d="M 1066 2525 
Q 1203 2525 1298 2429 
Q 1394 2334 1394 2197 
Q 1394 2063 1297 1966 
Q 1200 1869 1066 1869 
Q 931 1869 834 1966 
Q 738 2063 738 2197 
Q 738 2334 833 2429 
Q 928 2525 1066 2525 
z
" transform="scale(0.015625)"/>
      <path id="TimesNewRomanPSMT-6d" d="M 1050 2338 
Q 1363 2650 1419 2697 
Q 1559 2816 1721 2881 
Q 1884 2947 2044 2947 
Q 2313 2947 2506 2790 
Q 2700 2634 2766 2338 
Q 3088 2713 3309 2830 
Q 3531 2947 3766 2947 
Q 3994 2947 4170 2830 
Q 4347 2713 4450 2447 
Q 4519 2266 4519 1878 
L 4519 647 
Q 4519 378 4559 278 
Q 4591 209 4675 161 
Q 4759 113 4950 113 
L 4950 0 
L 3538 0 
L 3538 113 
L 3597 113 
Q 3781 113 3884 184 
Q 3956 234 3988 344 
Q 4000 397 4000 647 
L 4000 1878 
Q 4000 2228 3916 2372 
Q 3794 2572 3525 2572 
Q 3359 2572 3192 2489 
Q 3025 2406 2788 2181 
L 2781 2147 
L 2788 2013 
L 2788 647 
Q 2788 353 2820 281 
Q 2853 209 2943 161 
Q 3034 113 3253 113 
L 3253 0 
L 1806 0 
L 1806 113 
Q 2044 113 2133 169 
Q 2222 225 2256 338 
Q 2272 391 2272 647 
L 2272 1878 
Q 2272 2228 2169 2381 
Q 2031 2581 1784 2581 
Q 1616 2581 1450 2491 
Q 1191 2353 1050 2181 
L 1050 647 
Q 1050 366 1089 281 
Q 1128 197 1204 155 
Q 1281 113 1516 113 
L 1516 0 
L 100 0 
L 100 113 
Q 297 113 375 155 
Q 453 197 493 289 
Q 534 381 534 647 
L 534 1741 
Q 534 2213 506 2350 
Q 484 2453 437 2492 
Q 391 2531 309 2531 
Q 222 2531 100 2484 
L 53 2597 
L 916 2947 
L 1050 2947 
L 1050 2338 
z
" transform="scale(0.015625)"/>
     </defs>
     <use xlink:href="#TimesNewRomanPSMT-6b"/>
     <use xlink:href="#TimesNewRomanPSMT-4e" x="50"/>
     <use xlink:href="#TimesNewRomanPSMT-b7" x="122.216797"/>
     <use xlink:href="#TimesNewRomanPSMT-6d" x="155.517578"/>
    </g>
   </g>
   <g id="text_28">
    <!-- kN -->
    <g transform="translate(291.830291 270.741116) scale(0.22 -0.22)">
     <use xlink:href="#TimesNewRomanPSMT-6b"/>
     <use xlink:href="#TimesNewRomanPSMT-4e" x="50"/>
    </g>
   </g>
  </g>
 </g>
 <defs>
  <clipPath id="pe3c4e8f349">
   <rect x="0" y="0" width="530.91192" height="530.91192"/>
  </clipPath>
 </defs>
</svg>
